{"glyphs":{"0":{"ha":879,"x_min":56,"x_max":856,"o":"m 361 -14 q 181 28 251 -14 q 83 155 110 71 q 78 364 56 239 q 94 446 86 406 q 110 527 101 486 q 131 610 119 568 q 215 817 160 733 q 354 944 271 901 q 549 986 438 986 q 729 944 658 986 q 828 817 800 901 q 833 610 856 733 q 818 527 826 568 q 801 446 810 486 q 781 364 792 406 q 695 155 750 239 q 558 28 640 71 q 361 -14 475 -14 m 367 106 q 541 169 472 106 q 643 371 610 232 q 663 449 654 413 q 678 524 671 486 q 693 601 686 561 q 685 804 718 740 q 543 868 651 868 q 369 804 438 868 q 268 601 301 740 q 249 524 258 561 q 233 449 240 486 q 218 371 226 413 q 226 169 193 232 q 367 106 260 106 z "},"1":{"ha":589,"x_min":88,"x_max":599,"o":"m 292 0 q 270 9 278 0 q 265 32 263 18 l 428 797 l 167 625 q 140 618 151 617 q 122 632 129 619 l 93 683 q 91 708 88 696 q 110 729 94 721 l 463 963 q 478 971 472 969 q 496 972 485 972 l 569 972 q 591 963 583 972 q 596 940 599 954 l 401 32 q 388 9 399 18 q 364 0 378 0 l 292 0 z "},"2":{"ha":815,"x_min":4,"x_max":822,"o":"m 32 0 q 11 9 18 0 q 7 32 4 18 l 17 76 q 29 104 19 89 q 64 138 39 119 l 422 432 q 555 534 504 492 q 631 615 606 576 q 665 696 657 654 q 647 822 682 775 q 525 868 613 868 q 425 845 469 868 q 349 783 381 822 q 299 693 318 743 q 280 668 293 675 q 256 661 267 661 l 185 661 q 165 669 171 661 q 161 688 160 676 q 206 794 174 740 q 288 891 238 847 q 403 961 338 935 q 550 988 469 988 q 722 948 660 988 q 803 843 783 908 q 806 700 822 778 q 762 588 793 639 q 681 490 731 538 q 561 392 631 442 l 238 121 l 671 121 q 692 113 686 121 q 696 89 699 104 l 685 32 q 671 9 682 18 q 644 0 660 0 l 32 0 z "},"3":{"ha":835,"x_min":32,"x_max":858,"o":"m 343 -14 q 194 8 256 -14 q 97 65 133 29 q 46 145 60 101 q 40 233 32 189 q 53 253 43 246 q 75 261 63 261 l 143 261 q 166 255 157 261 q 178 231 175 249 q 208 153 181 181 q 280 115 236 125 q 368 104 324 104 q 533 150 464 104 q 622 285 603 196 q 595 414 642 375 q 454 453 549 453 l 322 453 q 301 461 308 453 q 296 485 294 469 l 304 522 q 314 544 307 535 q 328 560 321 553 l 658 854 l 250 854 q 228 863 235 854 q 225 886 222 871 l 236 939 q 250 963 239 954 q 275 972 261 972 l 829 972 q 851 963 844 972 q 856 939 858 954 l 844 889 q 837 872 843 879 q 824 857 831 864 l 490 558 l 514 557 q 666 524 604 554 q 754 433 728 493 q 760 281 781 372 q 680 122 740 188 q 533 22 619 57 q 343 -14 446 -14 z "},"4":{"ha":865,"x_min":10,"x_max":806,"o":"m 476 0 q 455 9 463 0 q 450 32 447 18 l 493 232 l 38 232 q 17 241 24 232 q 11 264 10 250 l 24 319 q 31 340 28 332 q 43 357 35 349 l 590 949 q 646 972 611 972 l 751 972 q 773 963 765 972 q 778 940 781 954 l 653 353 l 778 353 q 799 344 793 353 q 803 321 806 335 l 790 264 q 778 241 789 250 q 753 232 767 232 l 626 232 l 583 32 q 570 9 581 18 q 546 0 560 0 l 476 0 m 194 350 l 521 350 l 618 813 l 194 350 z "},"5":{"ha":824,"x_min":18,"x_max":815,"o":"m 325 -14 q 147 24 217 -14 q 48 122 78 61 q 26 253 18 182 q 38 273 28 265 q 60 281 47 281 l 135 281 q 157 274 147 281 q 165 250 167 268 q 185 166 163 199 q 247 119 208 133 q 331 104 286 104 q 448 128 393 104 q 543 201 503 153 q 597 317 583 249 q 575 465 618 413 q 433 518 532 518 q 354 507 388 518 q 297 481 321 496 q 253 454 272 465 q 214 443 233 443 l 142 443 q 121 453 128 443 q 118 475 114 463 l 260 938 q 276 963 265 954 q 303 972 288 972 l 786 972 q 808 963 801 972 q 813 940 815 954 l 800 886 q 787 863 797 871 q 763 854 776 854 l 363 854 l 278 581 q 343 610 300 593 q 463 628 386 628 q 588 606 531 628 q 683 544 644 585 q 738 444 722 503 q 738 311 753 386 q 660 134 715 207 q 519 24 604 61 q 325 -14 435 -14 z "},"6":{"ha":838,"x_min":49,"x_max":800,"o":"m 357 -14 q 171 33 242 -14 q 74 155 100 79 q 67 319 49 231 q 95 399 76 361 q 136 472 114 438 q 181 533 158 506 q 218 576 203 560 l 561 944 q 581 962 568 951 q 613 972 593 972 l 686 972 q 704 963 699 972 q 707 942 710 954 q 703 931 706 936 q 699 924 701 926 l 435 640 q 475 648 453 646 q 515 650 497 650 q 650 622 593 649 q 742 551 707 596 q 789 447 778 506 q 786 321 800 388 q 710 157 768 233 q 561 33 651 81 q 357 -14 471 -14 m 382 104 q 495 129 439 104 q 592 202 551 154 q 647 321 633 250 q 642 438 663 390 q 576 510 621 486 q 472 535 531 535 q 358 510 414 535 q 262 438 303 486 q 206 321 221 390 q 211 202 190 250 q 278 129 232 154 q 382 104 324 104 z "},"7":{"ha":713,"x_min":115,"x_max":810,"o":"m 139 0 q 121 9 126 0 q 118 31 115 18 q 124 43 118 36 l 642 851 l 185 851 q 164 860 171 851 q 160 883 157 869 l 172 939 q 186 963 175 954 q 211 972 197 972 l 781 972 q 803 963 797 972 q 807 939 810 954 l 796 888 q 788 858 793 869 q 774 833 782 847 l 261 35 q 242 12 254 24 q 214 0 231 0 l 139 0 z "},"8":{"ha":879,"x_min":31,"x_max":847,"o":"m 360 -14 q 175 24 251 -14 q 65 128 99 63 q 47 281 31 194 q 120 426 64 365 q 251 518 176 488 q 185 603 210 550 q 175 725 161 656 q 244 866 192 808 q 377 955 297 924 q 549 986 457 986 q 712 953 643 986 q 814 862 781 921 q 832 722 847 803 q 779 603 819 651 q 675 518 739 554 q 763 417 736 485 q 775 276 790 349 q 701 121 756 186 q 560 21 646 56 q 360 -14 474 -14 m 364 97 q 486 121 429 97 q 584 185 543 144 q 636 279 625 225 q 602 410 654 363 q 456 458 550 458 q 335 437 393 458 q 235 376 276 415 q 183 279 194 336 q 218 145 167 193 q 364 97 269 97 m 464 568 q 569 588 519 568 q 655 640 619 607 q 701 721 690 674 q 676 834 719 793 q 544 875 633 875 q 436 856 486 875 q 351 803 386 838 q 306 721 317 768 q 330 608 290 649 q 464 568 369 568 z "},"9":{"ha":824,"x_min":111,"x_max":842,"o":"m 200 0 q 182 9 188 0 q 179 31 176 18 q 183 42 181 38 q 189 49 186 46 l 464 344 q 388 336 428 336 q 254 364 310 338 q 165 435 199 390 q 122 538 132 481 q 125 657 111 594 q 172 776 138 718 q 260 882 207 835 q 385 958 313 929 q 544 986 457 986 q 692 959 632 986 q 788 885 753 932 q 832 781 822 839 q 828 660 842 722 q 790 556 817 603 q 731 471 763 508 q 672 401 700 433 l 325 28 q 307 10 319 21 q 275 0 294 0 l 200 0 m 431 449 q 543 474 489 449 q 637 547 597 500 q 690 658 676 593 q 684 770 703 724 q 622 842 665 817 q 519 868 578 868 q 408 842 461 868 q 315 770 354 817 q 263 658 276 724 q 268 547 249 593 q 331 474 288 500 q 431 449 374 449 z "},"A":{"ha":935,"x_min":-60,"x_max":833,"o":"m -29 0 q -53 15 -47 0 q -51 43 -60 29 l 483 942 q 503 964 492 956 q 533 972 515 972 l 639 972 q 667 964 658 972 q 676 942 675 956 l 829 43 q 825 11 833 22 q 803 0 817 0 l 732 0 q 708 8 717 0 q 697 31 700 15 l 661 221 l 206 221 l 86 24 q 70 7 81 14 q 46 0 60 0 l -29 0 m 271 340 l 647 340 l 564 833 l 271 340 z "},"Á":{"ha":935,"x_min":-60,"x_max":860,"o":"m -29 0 q -53 15 -47 0 q -51 43 -60 29 l 483 942 q 503 964 492 956 q 533 972 515 972 l 639 972 q 667 964 658 972 q 676 942 675 956 l 829 43 q 825 11 833 22 q 803 0 817 0 l 732 0 q 708 8 717 0 q 697 31 700 15 l 661 221 l 206 221 l 86 24 q 70 7 81 14 q 46 0 60 0 l -29 0 m 271 340 l 647 340 l 564 833 l 271 340 m 554 1042 q 535 1060 535 1042 q 546 1079 536 1071 l 679 1207 q 704 1228 693 1222 q 736 1233 715 1233 l 839 1233 q 856 1226 850 1233 q 860 1211 861 1219 q 849 1189 860 1197 l 658 1057 q 635 1044 644 1047 q 610 1042 625 1042 l 554 1042 z "},"Ă":{"ha":935,"x_min":-60,"x_max":833,"o":"m -29 0 q -53 15 -47 0 q -51 43 -60 29 l 483 942 q 503 964 492 956 q 533 972 515 972 l 639 972 q 667 964 658 972 q 676 942 675 956 l 829 43 q 825 11 833 22 q 803 0 817 0 l 732 0 q 708 8 717 0 q 697 31 700 15 l 661 221 l 206 221 l 86 24 q 70 7 81 14 q 46 0 60 0 l -29 0 m 271 340 l 647 340 l 564 833 l 271 340 m 600 1029 q 503 1053 539 1029 q 454 1117 467 1078 q 450 1200 442 1157 q 461 1219 453 1211 q 482 1226 469 1226 l 525 1226 q 543 1219 538 1226 q 546 1200 549 1211 q 551 1140 540 1168 q 606 1113 561 1113 q 674 1140 651 1113 q 707 1200 697 1168 q 718 1219 710 1211 q 739 1226 726 1226 l 782 1226 q 800 1219 794 1226 q 803 1200 806 1211 q 771 1117 793 1157 q 708 1053 749 1078 q 600 1029 667 1029 z "},"Â":{"ha":935,"x_min":-60,"x_max":833,"o":"m -29 0 q -53 15 -47 0 q -51 43 -60 29 l 483 942 q 503 964 492 956 q 533 972 515 972 l 639 972 q 667 964 658 972 q 676 942 675 956 l 829 43 q 825 11 833 22 q 803 0 817 0 l 732 0 q 708 8 717 0 q 697 31 700 15 l 661 221 l 206 221 l 86 24 q 70 7 81 14 q 46 0 60 0 l -29 0 m 271 340 l 647 340 l 564 833 l 271 340 m 394 1042 q 379 1057 378 1042 q 392 1078 379 1068 l 554 1213 q 583 1231 572 1228 q 604 1233 593 1233 l 649 1233 q 670 1231 661 1233 q 690 1213 679 1228 l 796 1079 q 800 1058 803 1069 q 778 1042 797 1042 l 739 1042 q 724 1044 731 1042 q 710 1051 717 1047 l 615 1131 l 486 1051 q 471 1044 478 1047 q 454 1042 464 1042 l 394 1042 z "},"Ä":{"ha":935,"x_min":-60,"x_max":833,"o":"m -29 0 q -53 15 -47 0 q -51 43 -60 29 l 483 942 q 503 964 492 956 q 533 972 515 972 l 639 972 q 667 964 658 972 q 676 942 675 956 l 829 43 q 825 11 833 22 q 803 0 817 0 l 732 0 q 708 8 717 0 q 697 31 700 15 l 661 221 l 206 221 l 86 24 q 70 7 81 14 q 46 0 60 0 l -29 0 m 271 340 l 647 340 l 564 833 l 271 340 m 694 1042 q 674 1050 681 1042 q 671 1072 668 1058 l 688 1147 q 701 1170 690 1161 q 725 1179 711 1179 l 800 1179 q 821 1170 814 1179 q 825 1147 828 1161 l 808 1072 q 794 1050 806 1058 q 769 1042 783 1042 l 694 1042 m 418 1042 q 398 1050 404 1042 q 394 1072 392 1058 l 410 1147 q 423 1170 413 1161 q 449 1179 433 1179 l 524 1179 q 544 1170 538 1179 q 549 1147 551 1161 l 532 1072 q 518 1050 529 1058 q 493 1042 507 1042 l 418 1042 z "},"À":{"ha":935,"x_min":-60,"x_max":833,"o":"m -29 0 q -53 15 -47 0 q -51 43 -60 29 l 483 942 q 503 964 492 956 q 533 972 515 972 l 639 972 q 667 964 658 972 q 676 942 675 956 l 829 43 q 825 11 833 22 q 803 0 817 0 l 732 0 q 708 8 717 0 q 697 31 700 15 l 661 221 l 206 221 l 86 24 q 70 7 81 14 q 46 0 60 0 l -29 0 m 271 340 l 647 340 l 564 833 l 271 340 m 582 1042 q 558 1044 567 1042 q 539 1057 549 1047 l 408 1186 q 403 1207 400 1194 q 435 1233 408 1233 l 535 1233 q 563 1228 556 1233 q 581 1207 571 1222 l 658 1082 q 661 1064 664 1072 q 635 1042 656 1042 l 582 1042 z "},"Ā":{"ha":935,"x_min":-60,"x_max":833,"o":"m -29 0 q -53 15 -47 0 q -51 43 -60 29 l 483 942 q 503 964 492 956 q 533 972 515 972 l 639 972 q 667 964 658 972 q 676 942 675 956 l 829 43 q 825 11 833 22 q 803 0 817 0 l 732 0 q 708 8 717 0 q 697 31 700 15 l 661 221 l 206 221 l 86 24 q 70 7 81 14 q 46 0 60 0 l -29 0 m 271 340 l 647 340 l 564 833 l 271 340 m 433 1042 q 414 1050 419 1042 q 410 1072 408 1058 l 421 1125 q 434 1147 424 1139 q 458 1156 444 1156 l 781 1156 q 801 1147 794 1156 q 804 1125 807 1139 l 794 1072 q 782 1050 793 1058 q 757 1042 771 1042 l 433 1042 z "},"Ą":{"ha":931,"x_min":-58,"x_max":829,"o":"m 681 -306 q 581 -281 619 -306 q 529 -210 542 -256 q 529 -106 517 -165 q 588 7 544 -37 q 690 63 631 51 q 685 69 688 65 q 683 78 683 74 l 658 221 l 199 221 l 81 24 q 66 8 76 17 q 39 0 56 0 l -35 0 q -52 8 -46 0 q -57 28 -58 17 q -53 35 -56 31 q -50 43 -51 40 l 486 942 q 506 964 494 956 q 538 972 518 972 l 635 972 q 662 964 653 972 q 672 942 671 956 l 828 43 q 828 35 829 40 q 826 28 828 31 q 813 8 824 17 q 790 0 803 0 l 750 0 q 674 -29 707 0 q 631 -106 640 -58 q 641 -181 619 -153 q 708 -210 663 -210 l 728 -210 q 749 -219 742 -210 q 753 -242 756 -228 l 744 -274 q 731 -297 742 -287 q 706 -306 719 -306 l 681 -306 m 265 340 l 643 340 l 560 833 l 265 340 z "},"Å":{"ha":935,"x_min":-60,"x_max":833,"o":"m -29 0 q -53 15 -47 0 q -51 43 -60 29 l 483 942 q 503 964 492 956 q 533 972 515 972 l 639 972 q 667 964 658 972 q 676 942 675 956 l 829 43 q 825 11 833 22 q 803 0 817 0 l 732 0 q 708 8 717 0 q 697 31 700 15 l 661 221 l 206 221 l 86 24 q 70 7 81 14 q 46 0 60 0 l -29 0 m 271 340 l 647 340 l 564 833 l 271 340 m 594 1028 q 517 1059 546 1028 q 497 1138 488 1090 q 548 1216 510 1185 q 633 1247 586 1247 q 712 1216 682 1247 q 731 1138 742 1185 q 681 1058 721 1088 q 594 1028 642 1028 m 601 1096 q 637 1108 622 1096 q 656 1138 651 1119 q 652 1167 660 1156 q 626 1179 644 1179 q 591 1167 606 1179 q 572 1138 576 1156 q 576 1108 568 1119 q 601 1096 585 1096 z "},"Ã":{"ha":935,"x_min":-60,"x_max":833,"o":"m -29 0 q -53 15 -47 0 q -51 43 -60 29 l 483 942 q 503 964 492 956 q 533 972 515 972 l 639 972 q 667 964 658 972 q 676 942 675 956 l 829 43 q 825 11 833 22 q 803 0 817 0 l 732 0 q 708 8 717 0 q 697 31 700 15 l 661 221 l 206 221 l 86 24 q 70 7 81 14 q 46 0 60 0 l -29 0 m 271 340 l 647 340 l 564 833 l 271 340 m 679 1035 q 624 1047 644 1035 q 585 1070 603 1058 q 546 1082 567 1082 q 513 1072 524 1082 q 494 1052 503 1063 q 471 1042 486 1042 l 426 1042 q 412 1049 417 1042 q 408 1064 407 1056 q 423 1108 411 1085 q 453 1150 435 1131 q 495 1181 471 1169 q 547 1193 519 1193 q 603 1181 582 1193 q 642 1158 625 1169 q 679 1146 658 1146 q 713 1156 703 1146 q 731 1177 724 1167 q 754 1188 739 1188 l 799 1188 q 815 1181 810 1188 q 817 1164 819 1174 q 802 1122 814 1144 q 772 1079 790 1099 q 731 1047 754 1060 q 679 1035 707 1035 z "},"Æ":{"ha":1329,"x_min":-47,"x_max":1363,"o":"m -19 0 q -45 18 -43 0 q -40 49 -47 36 l 492 942 q 513 965 501 958 q 539 972 525 972 l 1333 972 q 1356 963 1349 972 q 1360 939 1363 954 l 1349 886 q 1335 863 1346 871 q 1310 854 1325 854 l 846 854 l 779 550 l 1213 550 q 1235 541 1228 550 q 1239 517 1242 532 l 1228 465 q 1215 442 1225 451 q 1189 433 1204 433 l 756 433 l 688 118 l 1164 118 q 1185 110 1179 118 q 1189 86 1192 101 l 1178 32 q 1165 9 1175 18 q 1139 0 1154 0 l 563 0 q 541 9 549 0 q 536 32 533 18 l 576 221 l 214 221 l 94 24 q 77 7 88 14 q 54 0 67 0 l -19 0 m 279 340 l 601 340 l 710 846 l 578 846 l 279 340 z "},"Ǽ":{"ha":1329,"x_min":-47,"x_max":1363,"o":"m -19 0 q -45 18 -43 0 q -40 49 -47 36 l 492 942 q 513 965 501 958 q 539 972 525 972 l 1333 972 q 1356 963 1349 972 q 1360 939 1363 954 l 1349 886 q 1335 863 1346 871 q 1310 854 1325 854 l 846 854 l 779 550 l 1213 550 q 1235 541 1228 550 q 1239 517 1242 532 l 1228 465 q 1215 442 1225 451 q 1189 433 1204 433 l 756 433 l 688 118 l 1164 118 q 1185 110 1179 118 q 1189 86 1192 101 l 1178 32 q 1165 9 1175 18 q 1139 0 1154 0 l 563 0 q 541 9 549 0 q 536 32 533 18 l 576 221 l 214 221 l 94 24 q 77 7 88 14 q 54 0 67 0 l -19 0 m 279 340 l 601 340 l 710 846 l 578 846 l 279 340 m 815 1042 q 796 1060 796 1042 q 807 1079 797 1071 l 940 1207 q 965 1228 954 1222 q 997 1233 976 1233 l 1100 1233 q 1117 1226 1111 1233 q 1121 1211 1122 1219 q 1110 1189 1121 1197 l 919 1057 q 896 1044 906 1047 q 871 1042 886 1042 l 815 1042 z "},"B":{"ha":932,"x_min":38,"x_max":913,"o":"m 65 0 q 44 9 51 0 q 40 32 38 18 l 233 939 q 247 963 236 954 q 271 972 257 972 l 647 972 q 803 938 742 972 q 888 846 864 904 q 897 715 913 788 q 856 613 883 654 q 797 548 829 572 q 733 511 764 524 q 813 423 782 481 q 825 281 843 365 q 766 140 808 204 q 649 38 724 76 q 464 0 575 0 l 65 0 m 193 113 l 461 113 q 609 161 547 113 q 686 281 671 210 q 669 402 701 354 q 535 450 638 450 l 265 450 l 193 113 m 289 561 l 539 561 q 683 602 625 561 q 757 714 742 643 q 740 822 774 785 q 619 860 707 860 l 353 860 l 289 561 z "},"C":{"ha":924,"x_min":60,"x_max":928,"o":"m 394 -14 q 233 13 300 -14 q 126 90 165 39 q 73 209 86 140 q 75 363 60 278 q 99 485 85 419 q 128 610 114 550 q 213 807 156 722 q 361 939 269 892 q 581 986 453 986 q 745 961 676 986 q 856 892 814 936 q 913 792 897 847 q 917 676 928 736 q 908 656 915 664 q 889 647 901 647 l 810 647 q 787 654 796 647 q 778 679 778 661 q 729 826 786 783 q 575 868 672 868 q 381 805 464 868 q 265 603 299 742 q 215 369 236 489 q 240 167 190 231 q 400 104 289 104 q 572 144 497 104 q 694 293 647 185 q 712 318 703 311 q 733 325 721 325 l 813 325 q 832 317 825 325 q 836 297 839 310 q 787 183 819 239 q 701 83 754 128 q 572 13 647 39 q 394 -14 497 -14 z "},"Ć":{"ha":924,"x_min":60,"x_max":928,"o":"m 394 -14 q 233 13 300 -14 q 126 90 165 39 q 73 209 86 140 q 75 363 60 278 q 99 485 85 419 q 128 610 114 550 q 213 807 156 722 q 361 939 269 892 q 581 986 453 986 q 745 961 676 986 q 856 892 814 936 q 913 792 897 847 q 917 676 928 736 q 908 656 915 664 q 889 647 901 647 l 810 647 q 787 654 796 647 q 778 679 778 661 q 729 826 786 783 q 575 868 672 868 q 381 805 464 868 q 265 603 299 742 q 215 369 236 489 q 240 167 190 231 q 400 104 289 104 q 572 144 497 104 q 694 293 647 185 q 712 318 703 311 q 733 325 721 325 l 813 325 q 832 317 825 325 q 836 297 839 310 q 787 183 819 239 q 701 83 754 128 q 572 13 647 39 q 394 -14 497 -14 m 564 1042 q 544 1060 544 1042 q 556 1079 546 1071 l 689 1207 q 714 1228 703 1222 q 746 1233 725 1233 l 849 1233 q 865 1226 860 1233 q 869 1211 871 1219 q 858 1189 869 1197 l 668 1057 q 644 1044 654 1047 q 619 1042 635 1042 l 564 1042 z "},"Č":{"ha":924,"x_min":60,"x_max":928,"o":"m 394 -14 q 233 13 300 -14 q 126 90 165 39 q 73 209 86 140 q 75 363 60 278 q 99 485 85 419 q 128 610 114 550 q 213 807 156 722 q 361 939 269 892 q 581 986 453 986 q 745 961 676 986 q 856 892 814 936 q 913 792 897 847 q 917 676 928 736 q 908 656 915 664 q 889 647 901 647 l 810 647 q 787 654 796 647 q 778 679 778 661 q 729 826 786 783 q 575 868 672 868 q 381 805 464 868 q 265 603 299 742 q 215 369 236 489 q 240 167 190 231 q 400 104 289 104 q 572 144 497 104 q 694 293 647 185 q 712 318 703 311 q 733 325 721 325 l 813 325 q 832 317 825 325 q 836 297 839 310 q 787 183 819 239 q 701 83 754 128 q 572 13 647 39 q 394 -14 497 -14 m 583 1042 q 563 1045 572 1042 q 542 1063 553 1049 l 438 1196 q 432 1217 429 1206 q 454 1233 435 1233 l 493 1233 q 510 1231 503 1233 q 522 1224 517 1228 l 617 1144 l 746 1224 q 762 1231 754 1228 q 778 1233 769 1233 l 838 1233 q 853 1217 854 1233 q 840 1197 853 1207 l 678 1063 q 651 1045 661 1049 q 628 1042 640 1042 l 583 1042 z "},"Ç":{"ha":924,"x_min":57,"x_max":926,"o":"m 313 -306 q 247 -292 275 -304 q 210 -262 219 -279 q 215 -235 201 -246 l 242 -215 q 264 -210 256 -204 q 285 -226 272 -217 q 328 -236 299 -236 q 370 -222 350 -236 q 396 -185 390 -208 q 386 -149 400 -162 q 350 -136 372 -136 q 313 -142 329 -136 q 286 -149 297 -147 q 267 -140 275 -151 l 249 -115 q 249 -96 243 -107 q 263 -74 256 -85 l 304 -8 q 149 55 206 6 q 74 183 92 104 q 75 363 57 261 q 99 485 85 419 q 128 610 113 550 q 217 807 156 722 q 372 939 278 892 q 593 986 465 986 q 756 960 689 986 q 861 889 822 933 q 913 790 900 844 q 915 676 926 735 q 903 656 914 664 q 881 647 893 647 l 804 647 q 785 654 792 647 q 776 679 778 661 q 719 828 775 788 q 567 868 664 868 q 377 805 456 868 q 264 603 299 742 q 238 488 250 546 q 215 369 226 429 q 242 167 190 231 q 406 104 294 104 q 575 144 503 104 q 696 293 647 185 q 713 318 703 311 q 736 325 722 325 l 811 325 q 831 317 824 325 q 835 297 839 310 q 784 183 821 239 q 690 83 747 128 q 555 13 633 39 q 381 -14 476 -14 l 336 -78 q 361 -69 346 -72 q 390 -67 376 -67 q 459 -99 436 -67 q 471 -183 482 -132 q 419 -270 461 -233 q 313 -306 378 -307 z "},"Ĉ":{"ha":924,"x_min":60,"x_max":928,"o":"m 394 -14 q 233 13 300 -14 q 126 90 165 39 q 73 209 86 140 q 75 363 60 278 q 99 485 85 419 q 128 610 114 550 q 213 807 156 722 q 361 939 269 892 q 581 986 453 986 q 745 961 676 986 q 856 892 814 936 q 913 792 897 847 q 917 676 928 736 q 908 656 915 664 q 889 647 901 647 l 810 647 q 787 654 796 647 q 778 679 778 661 q 729 826 786 783 q 575 868 672 868 q 381 805 464 868 q 265 603 299 742 q 215 369 236 489 q 240 167 190 231 q 400 104 289 104 q 572 144 497 104 q 694 293 647 185 q 712 318 703 311 q 733 325 721 325 l 813 325 q 832 317 825 325 q 836 297 839 310 q 787 183 819 239 q 701 83 754 128 q 572 13 647 39 q 394 -14 497 -14 m 404 1042 q 389 1057 388 1042 q 401 1078 389 1068 l 564 1213 q 592 1231 582 1228 q 614 1233 603 1233 l 658 1233 q 680 1231 671 1233 q 700 1213 689 1228 l 806 1079 q 810 1058 813 1069 q 788 1042 807 1042 l 749 1042 q 733 1044 740 1042 q 719 1051 726 1047 l 625 1131 l 496 1051 q 481 1044 488 1047 q 464 1042 474 1042 l 404 1042 z "},"Ċ":{"ha":924,"x_min":60,"x_max":928,"o":"m 394 -14 q 233 13 300 -14 q 126 90 165 39 q 73 209 86 140 q 75 363 60 278 q 99 485 85 419 q 128 610 114 550 q 213 807 156 722 q 361 939 269 892 q 581 986 453 986 q 745 961 676 986 q 856 892 814 936 q 913 792 897 847 q 917 676 928 736 q 908 656 915 664 q 889 647 901 647 l 810 647 q 787 654 796 647 q 778 679 778 661 q 729 826 786 783 q 575 868 672 868 q 381 805 464 868 q 265 603 299 742 q 215 369 236 489 q 240 167 190 231 q 400 104 289 104 q 572 144 497 104 q 694 293 647 185 q 712 318 703 311 q 733 325 721 325 l 813 325 q 832 317 825 325 q 836 297 839 310 q 787 183 819 239 q 701 83 754 128 q 572 13 647 39 q 394 -14 497 -14 m 560 1042 q 540 1050 546 1042 q 536 1072 533 1058 l 556 1163 q 569 1185 558 1176 q 593 1194 579 1194 l 682 1194 q 703 1185 696 1194 q 707 1163 710 1176 l 689 1072 q 675 1050 686 1058 q 650 1042 664 1042 l 560 1042 z "},"D":{"ha":957,"x_min":38,"x_max":926,"o":"m 65 0 q 44 9 51 0 q 40 32 38 18 l 233 939 q 247 963 236 954 q 271 972 257 972 l 571 972 q 735 948 664 972 q 850 876 806 924 q 910 757 894 828 q 908 596 926 686 q 886 486 896 533 q 861 378 876 439 q 778 166 832 250 q 635 41 724 82 q 404 0 546 0 l 65 0 m 194 118 l 406 118 q 564 144 501 118 q 665 229 626 171 q 725 383 703 288 q 742 456 735 425 q 756 519 750 488 q 769 590 763 550 q 748 790 796 725 q 556 854 700 854 l 351 854 l 194 118 z "},"Ð":{"ha":969,"x_min":32,"x_max":939,"o":"m 79 0 q 58 9 65 0 q 54 32 51 18 l 139 435 l 58 435 q 38 444 44 435 q 33 467 32 453 l 43 511 q 57 534 46 525 q 82 543 68 543 l 163 543 l 246 939 q 260 963 249 954 q 285 972 271 972 l 583 972 q 749 948 678 972 q 864 876 819 924 q 924 757 908 828 q 922 596 939 686 q 900 486 910 533 q 875 378 890 439 q 791 166 844 250 q 648 41 738 82 q 418 0 558 0 l 79 0 m 208 118 l 419 118 q 578 144 515 118 q 678 229 640 171 q 739 383 717 288 q 756 456 749 425 q 769 519 763 488 q 783 590 775 550 q 761 790 808 725 q 569 854 714 854 l 365 854 l 299 543 l 483 543 q 503 534 497 543 q 507 511 510 525 l 499 467 q 485 444 497 453 q 460 435 474 435 l 276 435 l 208 118 z "},"Ď":{"ha":957,"x_min":38,"x_max":926,"o":"m 65 0 q 44 9 51 0 q 40 32 38 18 l 233 939 q 247 963 236 954 q 271 972 257 972 l 571 972 q 735 948 664 972 q 850 876 806 924 q 910 757 894 828 q 908 596 926 686 q 886 486 896 533 q 861 378 876 439 q 778 166 832 250 q 635 41 724 82 q 404 0 546 0 l 65 0 m 194 118 l 406 118 q 564 144 501 118 q 665 229 626 171 q 725 383 703 288 q 742 456 735 425 q 756 519 750 488 q 769 590 763 550 q 748 790 796 725 q 556 854 700 854 l 351 854 l 194 118 m 538 1042 q 517 1045 526 1042 q 496 1063 507 1049 l 392 1196 q 386 1217 383 1206 q 408 1233 389 1233 l 447 1233 q 464 1231 457 1233 q 476 1224 471 1228 l 571 1144 l 700 1224 q 716 1231 708 1228 q 732 1233 724 1233 l 792 1233 q 807 1217 808 1233 q 794 1197 807 1207 l 632 1063 q 605 1045 615 1049 q 582 1042 594 1042 l 538 1042 z "},"Đ":{"ha":969,"x_min":32,"x_max":939,"o":"m 79 0 q 58 9 65 0 q 54 32 51 18 l 139 435 l 58 435 q 38 444 44 435 q 33 467 32 453 l 43 511 q 57 534 46 525 q 82 543 68 543 l 163 543 l 246 939 q 260 963 249 954 q 285 972 271 972 l 583 972 q 749 948 678 972 q 864 876 819 924 q 924 757 908 828 q 922 596 939 686 q 900 486 910 533 q 875 378 890 439 q 791 166 844 250 q 648 41 738 82 q 418 0 558 0 l 79 0 m 208 118 l 419 118 q 578 144 515 118 q 678 229 640 171 q 739 383 717 288 q 756 456 749 425 q 769 519 763 488 q 783 590 775 550 q 761 790 808 725 q 569 854 714 854 l 365 854 l 299 543 l 483 543 q 503 534 497 543 q 507 511 510 525 l 499 467 q 485 444 497 453 q 460 435 474 435 l 276 435 l 208 118 z "},"E":{"ha":840,"x_min":38,"x_max":874,"o":"m 65 0 q 44 9 51 0 q 40 32 38 18 l 233 939 q 247 963 236 954 q 271 972 257 972 l 846 972 q 867 963 861 972 q 871 939 874 954 l 860 886 q 847 863 857 871 q 821 854 836 854 l 349 854 l 283 550 l 725 550 q 747 541 740 550 q 751 517 754 532 l 740 465 q 727 442 738 451 q 701 433 717 433 l 260 433 l 192 118 l 675 118 q 697 110 690 118 q 701 86 704 101 l 689 32 q 676 9 686 18 q 651 0 667 0 l 65 0 z "},"É":{"ha":840,"x_min":38,"x_max":874,"o":"m 65 0 q 44 9 51 0 q 40 32 38 18 l 233 939 q 247 963 236 954 q 271 972 257 972 l 846 972 q 867 963 861 972 q 871 939 874 954 l 860 886 q 847 863 857 871 q 821 854 836 854 l 349 854 l 283 550 l 725 550 q 747 541 740 550 q 751 517 754 532 l 740 465 q 727 442 738 451 q 701 433 717 433 l 260 433 l 192 118 l 675 118 q 697 110 690 118 q 701 86 704 101 l 689 32 q 676 9 686 18 q 651 0 667 0 l 65 0 m 522 1042 q 503 1060 503 1042 q 514 1079 504 1071 l 647 1207 q 672 1228 661 1222 q 704 1233 683 1233 l 807 1233 q 824 1226 818 1233 q 828 1211 829 1219 q 817 1189 828 1197 l 626 1057 q 603 1044 613 1047 q 578 1042 593 1042 l 522 1042 z "},"Ĕ":{"ha":840,"x_min":38,"x_max":874,"o":"m 65 0 q 44 9 51 0 q 40 32 38 18 l 233 939 q 247 963 236 954 q 271 972 257 972 l 846 972 q 867 963 861 972 q 871 939 874 954 l 860 886 q 847 863 857 871 q 821 854 836 854 l 349 854 l 283 550 l 725 550 q 747 541 740 550 q 751 517 754 532 l 740 465 q 727 442 738 451 q 701 433 717 433 l 260 433 l 192 118 l 675 118 q 697 110 690 118 q 701 86 704 101 l 689 32 q 676 9 686 18 q 651 0 667 0 l 65 0 m 568 1029 q 471 1053 507 1029 q 422 1117 435 1078 q 418 1200 410 1157 q 429 1219 421 1211 q 450 1226 438 1226 l 493 1226 q 511 1219 506 1226 q 514 1200 517 1211 q 519 1140 508 1168 q 574 1113 529 1113 q 642 1140 619 1113 q 675 1200 665 1168 q 686 1219 678 1211 q 707 1226 694 1226 l 750 1226 q 768 1219 763 1226 q 771 1200 774 1211 q 739 1117 761 1157 q 676 1053 717 1078 q 568 1029 635 1029 z "},"Ě":{"ha":840,"x_min":38,"x_max":874,"o":"m 65 0 q 44 9 51 0 q 40 32 38 18 l 233 939 q 247 963 236 954 q 271 972 257 972 l 846 972 q 867 963 861 972 q 871 939 874 954 l 860 886 q 847 863 857 871 q 821 854 836 854 l 349 854 l 283 550 l 725 550 q 747 541 740 550 q 751 517 754 532 l 740 465 q 727 442 738 451 q 701 433 717 433 l 260 433 l 192 118 l 675 118 q 697 110 690 118 q 701 86 704 101 l 689 32 q 676 9 686 18 q 651 0 667 0 l 65 0 m 542 1042 q 521 1045 531 1042 q 500 1063 511 1049 l 396 1196 q 390 1217 388 1206 q 413 1233 393 1233 l 451 1233 q 468 1231 461 1233 q 481 1224 475 1228 l 575 1144 l 704 1224 q 720 1231 713 1228 q 736 1233 728 1233 l 796 1233 q 811 1217 813 1233 q 799 1197 811 1207 l 636 1063 q 609 1045 619 1049 q 586 1042 599 1042 l 542 1042 z "},"Ê":{"ha":840,"x_min":38,"x_max":874,"o":"m 65 0 q 44 9 51 0 q 40 32 38 18 l 233 939 q 247 963 236 954 q 271 972 257 972 l 846 972 q 867 963 861 972 q 871 939 874 954 l 860 886 q 847 863 857 871 q 821 854 836 854 l 349 854 l 283 550 l 725 550 q 747 541 740 550 q 751 517 754 532 l 740 465 q 727 442 738 451 q 701 433 717 433 l 260 433 l 192 118 l 675 118 q 697 110 690 118 q 701 86 704 101 l 689 32 q 676 9 686 18 q 651 0 667 0 l 65 0 m 364 1042 q 349 1057 347 1042 q 361 1078 349 1068 l 524 1213 q 552 1231 542 1228 q 574 1233 563 1233 l 618 1233 q 640 1231 631 1233 q 660 1213 649 1228 l 765 1079 q 769 1058 772 1069 q 747 1042 767 1042 l 708 1042 q 693 1044 700 1042 q 679 1051 686 1047 l 585 1131 l 456 1051 q 440 1044 447 1047 q 424 1042 433 1042 l 364 1042 z "},"Ë":{"ha":840,"x_min":38,"x_max":874,"o":"m 65 0 q 44 9 51 0 q 40 32 38 18 l 233 939 q 247 963 236 954 q 271 972 257 972 l 846 972 q 867 963 861 972 q 871 939 874 954 l 860 886 q 847 863 857 871 q 821 854 836 854 l 349 854 l 283 550 l 725 550 q 747 541 740 550 q 751 517 754 532 l 740 465 q 727 442 738 451 q 701 433 717 433 l 260 433 l 192 118 l 675 118 q 697 110 690 118 q 701 86 704 101 l 689 32 q 676 9 686 18 q 651 0 667 0 l 65 0 m 664 1042 q 644 1050 650 1042 q 640 1072 638 1058 l 657 1147 q 670 1170 660 1161 q 694 1179 681 1179 l 769 1179 q 790 1170 783 1179 q 794 1147 797 1161 l 778 1072 q 764 1050 775 1058 q 739 1042 753 1042 l 664 1042 m 388 1042 q 367 1050 374 1042 q 364 1072 361 1058 l 379 1147 q 392 1170 382 1161 q 418 1179 403 1179 l 493 1179 q 514 1170 507 1179 q 518 1147 521 1161 l 501 1072 q 488 1050 499 1058 q 463 1042 476 1042 l 388 1042 z "},"Ė":{"ha":840,"x_min":38,"x_max":874,"o":"m 65 0 q 44 9 51 0 q 40 32 38 18 l 233 939 q 247 963 236 954 q 271 972 257 972 l 846 972 q 867 963 861 972 q 871 939 874 954 l 860 886 q 847 863 857 871 q 821 854 836 854 l 349 854 l 283 550 l 725 550 q 747 541 740 550 q 751 517 754 532 l 740 465 q 727 442 738 451 q 701 433 717 433 l 260 433 l 192 118 l 675 118 q 697 110 690 118 q 701 86 704 101 l 689 32 q 676 9 686 18 q 651 0 667 0 l 65 0 m 518 1042 q 498 1050 504 1042 q 494 1072 492 1058 l 514 1163 q 527 1185 517 1176 q 551 1194 538 1194 l 640 1194 q 661 1185 654 1194 q 665 1163 668 1176 l 647 1072 q 633 1050 644 1058 q 608 1042 622 1042 l 518 1042 z "},"È":{"ha":840,"x_min":38,"x_max":874,"o":"m 65 0 q 44 9 51 0 q 40 32 38 18 l 233 939 q 247 963 236 954 q 271 972 257 972 l 846 972 q 867 963 861 972 q 871 939 874 954 l 860 886 q 847 863 857 871 q 821 854 836 854 l 349 854 l 283 550 l 725 550 q 747 541 740 550 q 751 517 754 532 l 740 465 q 727 442 738 451 q 701 433 717 433 l 260 433 l 192 118 l 675 118 q 697 110 690 118 q 701 86 704 101 l 689 32 q 676 9 686 18 q 651 0 667 0 l 65 0 m 551 1042 q 527 1044 536 1042 q 508 1057 518 1047 l 378 1186 q 372 1207 369 1194 q 404 1233 378 1233 l 504 1233 q 533 1228 525 1233 q 550 1207 540 1222 l 628 1082 q 631 1064 633 1072 q 604 1042 625 1042 l 551 1042 z "},"Ē":{"ha":840,"x_min":38,"x_max":874,"o":"m 65 0 q 44 9 51 0 q 40 32 38 18 l 233 939 q 247 963 236 954 q 271 972 257 972 l 846 972 q 867 963 861 972 q 871 939 874 954 l 860 886 q 847 863 857 871 q 821 854 836 854 l 349 854 l 283 550 l 725 550 q 747 541 740 550 q 751 517 754 532 l 740 465 q 727 442 738 451 q 701 433 717 433 l 260 433 l 192 118 l 675 118 q 697 110 690 118 q 701 86 704 101 l 689 32 q 676 9 686 18 q 651 0 667 0 l 65 0 m 401 1042 q 382 1050 388 1042 q 378 1072 376 1058 l 389 1125 q 402 1147 392 1139 q 426 1156 413 1156 l 749 1156 q 769 1147 763 1156 q 772 1125 775 1139 l 763 1072 q 750 1050 761 1058 q 725 1042 739 1042 l 401 1042 z "},"Ę":{"ha":840,"x_min":38,"x_max":874,"o":"m 564 -306 q 464 -280 503 -306 q 411 -208 425 -254 q 410 -103 397 -162 q 428 -47 417 -72 q 457 0 440 -21 l 65 0 q 44 9 51 0 q 40 32 38 18 l 233 939 q 247 963 236 954 q 271 972 257 972 l 846 972 q 867 963 861 972 q 871 939 874 954 l 860 886 q 847 863 857 871 q 821 854 836 854 l 349 854 l 283 550 l 725 550 q 747 541 740 550 q 751 517 754 532 l 740 465 q 727 442 738 451 q 701 433 717 433 l 260 433 l 192 118 l 675 118 q 697 110 690 118 q 701 86 704 101 l 689 32 q 676 9 686 18 q 651 0 667 0 l 622 0 q 551 -31 581 -3 q 510 -106 521 -60 q 522 -181 500 -153 q 588 -210 543 -210 l 607 -210 q 628 -219 621 -210 q 632 -242 635 -228 l 624 -274 q 612 -297 622 -287 q 586 -306 601 -306 l 564 -306 z "},"F":{"ha":815,"x_min":38,"x_max":867,"o":"m 65 0 q 44 9 51 0 q 40 32 38 18 l 233 939 q 247 963 236 954 q 271 972 257 972 l 839 972 q 860 963 854 972 q 864 939 867 954 l 853 883 q 840 860 850 868 q 814 851 829 851 l 350 851 l 281 528 l 717 528 q 738 519 732 528 q 742 494 744 510 l 731 439 q 718 416 729 425 q 692 407 707 407 l 256 407 l 175 32 q 162 9 172 18 q 136 0 151 0 l 65 0 z "},"G":{"ha":946,"x_min":74,"x_max":949,"o":"m 404 -14 q 205 32 281 -14 q 101 161 129 78 q 93 357 74 244 q 119 487 104 418 q 149 618 135 556 q 240 813 176 731 q 399 941 303 896 q 617 986 494 986 q 781 958 714 986 q 885 888 847 931 q 935 800 922 846 q 943 719 949 754 q 931 699 942 707 q 907 692 921 692 l 825 692 q 808 697 813 692 q 799 717 803 703 q 774 788 794 753 q 709 845 753 822 q 590 868 665 868 q 401 808 481 868 q 286 611 321 749 q 258 488 272 550 q 233 364 244 426 q 265 165 210 225 q 431 104 319 104 q 567 132 503 104 q 676 216 631 160 q 739 360 721 272 l 751 418 l 543 418 q 522 427 529 418 q 518 451 515 436 l 528 496 q 542 520 531 511 q 567 529 553 529 l 881 529 q 902 520 896 529 q 906 496 908 511 l 878 363 q 789 164 854 249 q 625 33 724 79 q 404 -14 526 -14 z "},"Ğ":{"ha":946,"x_min":74,"x_max":949,"o":"m 404 -14 q 205 32 281 -14 q 101 161 129 78 q 93 357 74 244 q 119 487 104 418 q 149 618 135 556 q 240 813 176 731 q 399 941 303 896 q 617 986 494 986 q 781 958 714 986 q 885 888 847 931 q 935 800 922 846 q 943 719 949 754 q 931 699 942 707 q 907 692 921 692 l 825 692 q 808 697 813 692 q 799 717 803 703 q 774 788 794 753 q 709 845 753 822 q 590 868 665 868 q 401 808 481 868 q 286 611 321 749 q 258 488 272 550 q 233 364 244 426 q 265 165 210 225 q 431 104 319 104 q 567 132 503 104 q 676 216 631 160 q 739 360 721 272 l 751 418 l 543 418 q 522 427 529 418 q 518 451 515 436 l 528 496 q 542 520 531 511 q 567 529 553 529 l 881 529 q 902 520 896 529 q 906 496 908 511 l 878 363 q 789 164 854 249 q 625 33 724 79 q 404 -14 526 -14 m 619 1029 q 522 1053 558 1029 q 474 1117 486 1078 q 469 1200 461 1157 q 481 1219 472 1211 q 501 1226 489 1226 l 544 1226 q 563 1219 557 1226 q 565 1200 568 1211 q 570 1140 560 1168 q 625 1113 581 1113 q 694 1140 671 1113 q 726 1200 717 1168 q 738 1219 729 1211 q 758 1226 746 1226 l 801 1226 q 819 1219 814 1226 q 822 1200 825 1211 q 790 1117 813 1157 q 727 1053 768 1078 q 619 1029 686 1029 z "},"Ĝ":{"ha":946,"x_min":74,"x_max":949,"o":"m 404 -14 q 205 32 281 -14 q 101 161 129 78 q 93 357 74 244 q 119 487 104 418 q 149 618 135 556 q 240 813 176 731 q 399 941 303 896 q 617 986 494 986 q 781 958 714 986 q 885 888 847 931 q 935 800 922 846 q 943 719 949 754 q 931 699 942 707 q 907 692 921 692 l 825 692 q 808 697 813 692 q 799 717 803 703 q 774 788 794 753 q 709 845 753 822 q 590 868 665 868 q 401 808 481 868 q 286 611 321 749 q 258 488 272 550 q 233 364 244 426 q 265 165 210 225 q 431 104 319 104 q 567 132 503 104 q 676 216 631 160 q 739 360 721 272 l 751 418 l 543 418 q 522 427 529 418 q 518 451 515 436 l 528 496 q 542 520 531 511 q 567 529 553 529 l 881 529 q 902 520 896 529 q 906 496 908 511 l 878 363 q 789 164 854 249 q 625 33 724 79 q 404 -14 526 -14 m 415 1042 q 400 1057 399 1042 q 413 1078 400 1068 l 575 1213 q 603 1231 593 1228 q 625 1233 614 1233 l 669 1233 q 691 1231 682 1233 q 711 1213 700 1228 l 817 1079 q 821 1058 824 1069 q 799 1042 818 1042 l 760 1042 q 744 1044 751 1042 q 731 1051 738 1047 l 636 1131 l 507 1051 q 492 1044 499 1047 q 475 1042 485 1042 l 415 1042 z "},"Ģ":{"ha":946,"x_min":74,"x_max":949,"o":"m 404 -14 q 205 32 281 -14 q 101 161 129 78 q 93 357 74 244 q 119 487 104 418 q 149 618 135 556 q 240 813 176 731 q 399 941 303 896 q 617 986 494 986 q 781 958 714 986 q 885 888 847 931 q 935 800 922 846 q 943 719 949 754 q 931 699 942 707 q 907 692 921 692 l 825 692 q 808 697 813 692 q 799 717 803 703 q 774 788 794 753 q 709 845 753 822 q 590 868 665 868 q 401 808 481 868 q 286 611 321 749 q 258 488 272 550 q 233 364 244 426 q 265 165 210 225 q 431 104 319 104 q 567 132 503 104 q 676 216 631 160 q 739 360 721 272 l 751 418 l 543 418 q 522 427 529 418 q 518 451 515 436 l 528 496 q 542 520 531 511 q 567 529 553 529 l 881 529 q 902 520 896 529 q 906 496 908 511 l 878 363 q 789 164 854 249 q 625 33 724 79 q 404 -14 526 -14 m 251 -301 q 236 -293 240 -301 q 236 -272 232 -285 l 296 -110 q 314 -81 303 -93 q 344 -69 325 -69 l 435 -69 q 449 -76 444 -69 q 451 -92 453 -83 q 443 -115 449 -104 l 349 -269 q 330 -292 340 -283 q 303 -301 319 -301 l 251 -301 z "},"Ġ":{"ha":946,"x_min":74,"x_max":949,"o":"m 404 -14 q 205 32 281 -14 q 101 161 129 78 q 93 357 74 244 q 119 487 104 418 q 149 618 135 556 q 240 813 176 731 q 399 941 303 896 q 617 986 494 986 q 781 958 714 986 q 885 888 847 931 q 935 800 922 846 q 943 719 949 754 q 931 699 942 707 q 907 692 921 692 l 825 692 q 808 697 813 692 q 799 717 803 703 q 774 788 794 753 q 709 845 753 822 q 590 868 665 868 q 401 808 481 868 q 286 611 321 749 q 258 488 272 550 q 233 364 244 426 q 265 165 210 225 q 431 104 319 104 q 567 132 503 104 q 676 216 631 160 q 739 360 721 272 l 751 418 l 543 418 q 522 427 529 418 q 518 451 515 436 l 528 496 q 542 520 531 511 q 567 529 553 529 l 881 529 q 902 520 896 529 q 906 496 908 511 l 878 363 q 789 164 854 249 q 625 33 724 79 q 404 -14 526 -14 m 569 1042 q 549 1050 556 1042 q 546 1072 543 1058 l 565 1163 q 578 1185 568 1176 q 603 1194 589 1194 l 692 1194 q 713 1185 706 1194 q 717 1163 719 1176 l 699 1072 q 685 1050 696 1058 q 660 1042 674 1042 l 569 1042 z "},"H":{"ha":992,"x_min":38,"x_max":986,"o":"m 65 0 q 44 9 51 0 q 40 32 38 18 l 233 939 q 247 963 236 954 q 271 972 257 972 l 343 972 q 365 963 358 972 q 369 939 372 954 l 288 556 l 765 556 l 847 939 q 860 963 850 954 q 886 972 871 972 l 957 972 q 979 963 972 972 q 983 939 986 954 l 790 32 q 777 9 788 18 q 751 0 767 0 l 681 0 q 658 9 665 0 q 654 32 651 18 l 739 431 l 261 431 l 176 32 q 163 9 174 18 q 138 0 153 0 l 65 0 z "},"Ħ":{"ha":1001,"x_min":38,"x_max":1044,"o":"m 132 713 q 112 722 118 713 q 108 744 106 731 l 115 779 q 129 803 118 794 q 154 813 140 813 l 1017 813 q 1038 803 1032 813 q 1042 779 1044 794 l 1035 744 q 1021 722 1032 731 q 994 713 1010 713 l 132 713 m 65 0 q 44 9 51 0 q 40 32 38 18 l 233 939 q 247 963 236 954 q 271 972 257 972 l 343 972 q 365 963 358 972 q 369 939 372 954 l 288 556 l 765 556 l 847 939 q 860 963 850 954 q 886 972 871 972 l 957 972 q 979 963 972 972 q 983 939 986 954 l 790 32 q 777 9 788 18 q 751 0 767 0 l 681 0 q 658 9 665 0 q 654 32 651 18 l 739 431 l 261 431 l 176 32 q 163 9 174 18 q 138 0 153 0 l 65 0 z "},"Ĥ":{"ha":992,"x_min":38,"x_max":986,"o":"m 65 0 q 44 9 51 0 q 40 32 38 18 l 233 939 q 247 963 236 954 q 271 972 257 972 l 343 972 q 365 963 358 972 q 369 939 372 954 l 288 556 l 765 556 l 847 939 q 860 963 850 954 q 886 972 871 972 l 957 972 q 979 963 972 972 q 983 939 986 954 l 790 32 q 777 9 788 18 q 751 0 767 0 l 681 0 q 658 9 665 0 q 654 32 651 18 l 739 431 l 261 431 l 176 32 q 163 9 174 18 q 138 0 153 0 l 65 0 m 414 1042 q 399 1057 397 1042 q 411 1078 399 1068 l 574 1213 q 602 1231 592 1228 q 624 1233 613 1233 l 668 1233 q 690 1231 681 1233 q 710 1213 699 1228 l 815 1079 q 819 1058 822 1069 q 797 1042 817 1042 l 758 1042 q 743 1044 750 1042 q 729 1051 736 1047 l 635 1131 l 506 1051 q 490 1044 497 1047 q 474 1042 483 1042 l 414 1042 z "},"I":{"ha":381,"x_min":36,"x_max":375,"o":"m 65 0 q 43 9 50 0 q 39 32 36 18 l 233 940 q 247 963 236 954 q 271 972 257 972 l 346 972 q 367 963 360 972 q 372 940 375 954 l 178 32 q 165 9 175 18 q 140 0 154 0 l 65 0 z "},"Ĳ":{"ha":876,"x_min":38,"x_max":878,"o":"m 311 -14 q 290 -5 297 -14 q 286 18 283 4 l 299 76 q 313 101 301 92 q 338 110 324 110 q 519 180 449 110 q 615 367 590 250 l 738 940 q 751 963 740 954 q 775 972 761 972 l 849 972 q 871 963 864 972 q 875 939 878 954 l 751 356 q 676 156 728 239 q 537 30 625 74 q 311 -14 449 -14 m 65 0 q 44 9 51 0 q 40 32 38 18 l 233 940 q 247 963 236 954 q 271 972 257 972 l 346 972 q 367 963 360 972 q 372 940 375 954 l 178 32 q 165 9 175 18 q 140 0 154 0 l 65 0 z "},"Í":{"ha":381,"x_min":36,"x_max":588,"o":"m 65 0 q 43 9 50 0 q 39 32 36 18 l 233 940 q 247 963 236 954 q 271 972 257 972 l 346 972 q 367 963 360 972 q 372 940 375 954 l 178 32 q 165 9 175 18 q 140 0 154 0 l 65 0 m 281 1042 q 261 1060 261 1042 q 272 1079 263 1071 l 406 1207 q 431 1228 419 1222 q 463 1233 442 1233 l 565 1233 q 582 1226 576 1233 q 586 1211 588 1219 q 575 1189 586 1197 l 385 1057 q 361 1044 371 1047 q 336 1042 351 1042 l 281 1042 z "},"Ĭ":{"ha":381,"x_min":36,"x_max":532,"o":"m 65 0 q 43 9 50 0 q 39 32 36 18 l 233 940 q 247 963 236 954 q 271 972 257 972 l 346 972 q 367 963 360 972 q 372 940 375 954 l 178 32 q 165 9 175 18 q 140 0 154 0 l 65 0 m 326 1029 q 229 1053 265 1029 q 181 1117 193 1078 q 176 1200 168 1157 q 188 1219 179 1211 q 208 1226 196 1226 l 251 1226 q 269 1219 264 1226 q 272 1200 275 1211 q 277 1140 267 1168 q 332 1113 288 1113 q 401 1140 378 1113 q 433 1200 424 1168 q 444 1219 436 1211 q 465 1226 453 1226 l 508 1226 q 526 1219 521 1226 q 529 1200 532 1211 q 497 1117 519 1157 q 434 1053 475 1078 q 326 1029 393 1029 z "},"Î":{"ha":381,"x_min":36,"x_max":531,"o":"m 65 0 q 43 9 50 0 q 39 32 36 18 l 233 940 q 247 963 236 954 q 271 972 257 972 l 346 972 q 367 963 360 972 q 372 940 375 954 l 178 32 q 165 9 175 18 q 140 0 154 0 l 65 0 m 122 1042 q 107 1057 106 1042 q 119 1078 107 1068 l 282 1213 q 310 1231 300 1228 q 332 1233 321 1233 l 376 1233 q 398 1231 389 1233 q 418 1213 407 1228 l 524 1079 q 528 1058 531 1069 q 506 1042 525 1042 l 467 1042 q 451 1044 458 1042 q 438 1051 444 1047 l 343 1131 l 214 1051 q 199 1044 206 1047 q 182 1042 192 1042 l 122 1042 z "},"Ï":{"ha":381,"x_min":36,"x_max":554,"o":"m 65 0 q 43 9 50 0 q 39 32 36 18 l 233 940 q 247 963 236 954 q 271 972 257 972 l 346 972 q 367 963 360 972 q 372 940 375 954 l 178 32 q 165 9 175 18 q 140 0 154 0 l 65 0 m 422 1042 q 402 1050 408 1042 q 399 1072 396 1058 l 415 1147 q 428 1170 418 1161 q 453 1179 439 1179 l 528 1179 q 549 1170 542 1179 q 553 1147 556 1161 l 536 1072 q 522 1050 533 1058 q 497 1042 511 1042 l 422 1042 m 146 1042 q 126 1050 132 1042 q 122 1072 119 1058 l 138 1147 q 151 1170 140 1161 q 176 1179 161 1179 l 251 1179 q 272 1170 265 1179 q 276 1147 279 1161 l 260 1072 q 246 1050 257 1058 q 221 1042 235 1042 l 146 1042 z "},"İ":{"ha":381,"x_min":36,"x_max":426,"o":"m 65 0 q 43 9 50 0 q 39 32 36 18 l 233 940 q 247 963 236 954 q 271 972 257 972 l 346 972 q 367 963 360 972 q 372 940 375 954 l 178 32 q 165 9 175 18 q 140 0 154 0 l 65 0 m 276 1042 q 256 1050 263 1042 q 253 1072 250 1058 l 272 1163 q 285 1185 275 1176 q 310 1194 296 1194 l 399 1194 q 419 1185 413 1194 q 424 1163 426 1176 l 406 1072 q 392 1050 403 1058 q 367 1042 381 1042 l 276 1042 z "},"Ì":{"ha":381,"x_min":36,"x_max":392,"o":"m 65 0 q 43 9 50 0 q 39 32 36 18 l 233 940 q 247 963 236 954 q 271 972 257 972 l 346 972 q 367 963 360 972 q 372 940 375 954 l 178 32 q 165 9 175 18 q 140 0 154 0 l 65 0 m 310 1042 q 285 1044 294 1042 q 267 1057 276 1047 l 136 1186 q 131 1207 128 1194 q 163 1233 136 1233 l 263 1233 q 291 1228 283 1233 q 308 1207 299 1222 l 386 1082 q 389 1064 392 1072 q 363 1042 383 1042 l 310 1042 z "},"Ī":{"ha":381,"x_min":36,"x_max":535,"o":"m 65 0 q 43 9 50 0 q 39 32 36 18 l 233 940 q 247 963 236 954 q 271 972 257 972 l 346 972 q 367 963 360 972 q 372 940 375 954 l 178 32 q 165 9 175 18 q 140 0 154 0 l 65 0 m 160 1042 q 140 1050 146 1042 q 136 1072 135 1058 l 147 1125 q 160 1147 150 1139 q 185 1156 171 1156 l 507 1156 q 527 1147 521 1156 q 531 1125 533 1139 l 521 1072 q 508 1050 519 1058 q 483 1042 497 1042 l 160 1042 z "},"Į":{"ha":400,"x_min":-74,"x_max":414,"o":"m 89 -306 q -10 -281 28 -306 q -61 -210 -49 -256 q -61 -106 -74 -165 q -4 8 -47 -36 q 99 63 39 51 l 96 72 q 92 81 93 75 q 92 90 90 86 l 272 940 q 286 963 275 954 q 311 972 297 972 l 386 972 q 407 963 400 972 q 411 940 414 954 l 218 32 q 204 9 215 18 q 179 0 193 0 l 160 0 q 82 -29 115 0 q 39 -106 49 -58 q 50 -181 29 -153 q 115 -210 71 -210 l 135 -210 q 156 -219 150 -210 q 160 -242 163 -228 l 153 -274 q 139 -297 150 -289 q 114 -306 128 -306 l 89 -306 z "},"Ĩ":{"ha":381,"x_min":36,"x_max":546,"o":"m 65 0 q 43 9 50 0 q 39 32 36 18 l 233 940 q 247 963 236 954 q 271 972 257 972 l 346 972 q 367 963 360 972 q 372 940 375 954 l 178 32 q 165 9 175 18 q 140 0 154 0 l 65 0 m 406 1035 q 350 1047 371 1035 q 311 1070 329 1058 q 272 1082 293 1082 q 240 1072 250 1082 q 221 1052 229 1063 q 197 1042 213 1042 l 153 1042 q 138 1049 143 1042 q 135 1064 133 1056 q 149 1108 138 1085 q 179 1150 161 1131 q 222 1181 197 1169 q 274 1193 246 1193 q 330 1181 308 1193 q 368 1158 351 1169 q 406 1146 385 1146 q 440 1156 429 1146 q 458 1177 450 1167 q 481 1188 465 1188 l 525 1188 q 541 1181 536 1188 q 543 1164 546 1174 q 528 1122 540 1144 q 499 1079 517 1099 q 457 1047 481 1060 q 406 1035 433 1035 z "},"J":{"ha":875,"x_min":8,"x_max":876,"o":"m 331 -14 q 205 4 265 -14 q 99 58 144 22 q 31 150 53 94 q 19 281 8 206 q 31 302 22 293 q 53 311 39 311 l 131 311 q 153 302 146 311 q 160 279 161 293 q 198 145 150 186 q 335 104 246 104 q 521 174 454 104 q 611 358 588 243 l 717 851 l 224 851 q 203 860 210 851 q 199 883 196 869 l 211 940 q 224 963 214 954 q 249 972 235 972 l 849 972 q 870 963 864 972 q 874 939 876 954 l 750 356 q 677 160 728 243 q 542 31 626 76 q 331 -14 457 -14 z "},"Ĵ":{"ha":875,"x_min":8,"x_max":876,"o":"m 331 -14 q 205 4 265 -14 q 99 58 144 22 q 31 150 53 94 q 19 281 8 206 q 31 302 22 293 q 53 311 39 311 l 131 311 q 153 302 146 311 q 160 279 161 293 q 198 145 150 186 q 335 104 246 104 q 521 174 454 104 q 611 358 588 243 l 717 851 l 224 851 q 203 860 210 851 q 199 883 196 869 l 211 940 q 224 963 214 954 q 249 972 235 972 l 849 972 q 870 963 864 972 q 874 939 876 954 l 750 356 q 677 160 728 243 q 542 31 626 76 q 331 -14 457 -14 m 368 1042 q 353 1057 351 1042 q 365 1078 353 1068 l 528 1213 q 556 1231 546 1228 q 578 1233 567 1233 l 622 1233 q 644 1231 635 1233 q 664 1213 653 1228 l 769 1079 q 774 1058 776 1069 q 751 1042 771 1042 l 713 1042 q 697 1044 704 1042 q 683 1051 690 1047 l 589 1131 l 460 1051 q 444 1044 451 1047 q 428 1042 438 1042 l 368 1042 z "},"K":{"ha":819,"x_min":38,"x_max":878,"o":"m 65 0 q 44 9 51 0 q 40 32 38 18 l 233 939 q 246 963 236 954 q 269 972 256 972 l 342 972 q 364 963 357 972 q 368 939 371 954 l 297 606 l 711 950 q 731 964 717 956 q 768 972 744 972 l 847 972 q 872 954 867 972 q 865 925 878 936 l 364 501 l 718 47 q 722 15 732 29 q 696 0 711 0 l 621 0 q 588 8 599 0 q 574 24 578 15 l 258 422 l 175 32 q 163 9 172 18 q 139 0 154 0 l 65 0 z "},"Ķ":{"ha":819,"x_min":38,"x_max":878,"o":"m 65 0 q 44 9 51 0 q 40 32 38 18 l 233 939 q 246 963 236 954 q 269 972 256 972 l 342 972 q 364 963 357 972 q 368 939 371 954 l 297 606 l 711 950 q 731 964 717 956 q 768 972 744 972 l 847 972 q 872 954 867 972 q 865 925 878 936 l 364 501 l 718 47 q 722 15 732 29 q 696 0 711 0 l 621 0 q 588 8 599 0 q 574 24 578 15 l 258 422 l 175 32 q 163 9 172 18 q 139 0 154 0 l 65 0 m 199 -301 q 183 -293 188 -301 q 183 -272 179 -285 l 243 -110 q 261 -81 250 -93 q 292 -69 272 -69 l 382 -69 q 396 -76 392 -69 q 399 -92 400 -83 q 390 -115 396 -104 l 296 -269 q 277 -292 288 -283 q 250 -301 267 -301 l 199 -301 z "},"L":{"ha":772,"x_min":38,"x_max":686,"o":"m 65 0 q 44 9 51 0 q 40 32 38 18 l 233 940 q 247 963 236 954 q 271 972 257 972 l 344 972 q 367 963 360 972 q 371 940 374 954 l 196 121 l 657 121 q 679 112 672 121 q 683 88 686 103 l 672 32 q 659 9 669 18 q 633 0 649 0 l 65 0 z "},"Ĺ":{"ha":772,"x_min":38,"x_max":686,"o":"m 65 0 q 44 9 51 0 q 40 32 38 18 l 233 940 q 247 963 236 954 q 271 972 257 972 l 344 972 q 367 963 360 972 q 371 940 374 954 l 196 121 l 657 121 q 679 112 672 121 q 683 88 686 103 l 672 32 q 659 9 669 18 q 633 0 649 0 l 65 0 m 282 1042 q 263 1060 263 1042 q 274 1079 264 1071 l 407 1207 q 432 1228 421 1222 q 464 1233 443 1233 l 567 1233 q 583 1226 578 1233 q 588 1211 589 1219 q 576 1189 588 1197 l 386 1057 q 363 1044 372 1047 q 338 1042 353 1042 l 282 1042 z "},"Ľ":{"ha":774,"x_min":38,"x_max":686,"o":"m 482 754 q 467 763 471 754 q 467 783 463 771 l 526 946 q 544 974 533 963 q 575 986 556 986 l 665 986 q 679 979 675 986 q 682 964 683 972 q 674 940 679 951 l 579 786 q 560 763 571 772 q 533 754 550 754 l 482 754 m 65 0 q 44 9 51 0 q 40 32 38 18 l 233 940 q 247 963 236 954 q 271 972 257 972 l 344 972 q 367 963 360 972 q 371 940 374 954 l 196 121 l 657 121 q 679 112 672 121 q 683 88 686 103 l 672 32 q 659 9 669 18 q 633 0 649 0 l 65 0 z "},"Ļ":{"ha":772,"x_min":38,"x_max":686,"o":"m 65 0 q 44 9 51 0 q 40 32 38 18 l 233 940 q 247 963 236 954 q 271 972 257 972 l 344 972 q 367 963 360 972 q 371 940 374 954 l 196 121 l 657 121 q 679 112 672 121 q 683 88 686 103 l 672 32 q 659 9 669 18 q 633 0 649 0 l 65 0 m 192 -301 q 176 -293 181 -301 q 176 -272 172 -285 l 236 -110 q 254 -81 243 -93 q 285 -69 265 -69 l 375 -69 q 389 -76 385 -69 q 392 -92 393 -83 q 383 -115 389 -104 l 289 -269 q 270 -292 281 -283 q 243 -301 260 -301 l 192 -301 z "},"Ŀ":{"ha":774,"x_min":38,"x_max":686,"o":"m 65 0 q 44 9 51 0 q 40 32 38 18 l 233 940 q 247 963 236 954 q 271 972 257 972 l 344 972 q 367 963 360 972 q 371 940 374 954 l 196 121 l 657 121 q 679 112 672 121 q 683 88 686 103 l 672 32 q 659 9 669 18 q 633 0 649 0 l 65 0 m 531 433 q 510 442 517 433 q 506 464 503 450 l 526 554 q 539 577 529 568 q 563 586 549 586 l 653 586 q 673 577 665 586 q 678 554 681 568 l 658 464 q 645 442 656 450 q 621 433 635 433 l 531 433 z "},"Ł":{"ha":783,"x_min":10,"x_max":699,"o":"m 76 0 q 56 9 63 0 q 51 32 49 18 l 128 388 l 51 361 q 32 357 39 357 q 15 364 21 357 q 11 383 10 371 l 22 433 q 33 456 25 449 q 60 469 42 464 l 151 501 l 244 940 q 258 963 247 954 q 282 972 268 972 l 356 972 q 378 963 371 972 q 382 940 385 954 l 300 556 l 518 633 q 536 638 531 638 q 554 631 547 638 q 558 613 561 625 l 547 563 q 536 540 544 547 q 510 526 528 533 l 276 443 l 207 121 l 669 121 q 691 112 683 121 q 696 89 699 103 l 683 32 q 670 9 681 18 q 644 0 660 0 l 76 0 z "},"M":{"ha":1107,"x_min":38,"x_max":1100,"o":"m 67 0 q 45 9 53 0 q 40 32 38 18 l 233 939 q 247 963 236 954 q 272 972 258 972 l 343 972 q 366 964 360 972 q 375 950 372 956 l 549 389 l 964 950 q 976 964 967 956 q 1001 972 985 972 l 1071 972 q 1093 963 1086 972 q 1097 939 1100 954 l 904 32 q 891 9 901 18 q 865 0 881 0 l 797 0 q 776 9 783 0 q 771 32 768 18 l 913 697 l 594 263 q 573 242 585 250 q 543 233 561 233 l 501 233 q 475 241 483 233 q 463 263 467 249 l 321 726 l 174 32 q 160 9 171 18 q 136 0 150 0 l 67 0 z "},"N":{"ha":968,"x_min":38,"x_max":961,"o":"m 65 0 q 44 9 51 0 q 40 32 38 18 l 233 939 q 246 963 236 954 q 271 972 256 972 l 335 972 q 357 965 350 972 q 365 953 364 958 l 676 236 l 826 939 q 840 963 829 954 q 865 972 851 972 l 933 972 q 955 963 949 972 q 958 939 961 954 l 765 33 q 753 10 763 19 q 728 0 743 0 l 664 0 q 642 7 649 0 q 633 19 636 14 l 322 728 l 174 32 q 160 9 171 18 q 135 0 150 0 l 65 0 z "},"Ń":{"ha":968,"x_min":38,"x_max":961,"o":"m 65 0 q 44 9 51 0 q 40 32 38 18 l 233 939 q 246 963 236 954 q 271 972 256 972 l 335 972 q 357 965 350 972 q 365 953 364 958 l 676 236 l 826 939 q 840 963 829 954 q 865 972 851 972 l 933 972 q 955 963 949 972 q 958 939 961 954 l 765 33 q 753 10 763 19 q 728 0 743 0 l 664 0 q 642 7 649 0 q 633 19 636 14 l 322 728 l 174 32 q 160 9 171 18 q 135 0 150 0 l 65 0 m 564 1042 q 544 1060 544 1042 q 556 1079 546 1071 l 689 1207 q 714 1228 703 1222 q 746 1233 725 1233 l 849 1233 q 865 1226 860 1233 q 869 1211 871 1219 q 858 1189 869 1197 l 668 1057 q 644 1044 654 1047 q 619 1042 635 1042 l 564 1042 z "},"Ň":{"ha":968,"x_min":38,"x_max":961,"o":"m 65 0 q 44 9 51 0 q 40 32 38 18 l 233 939 q 246 963 236 954 q 271 972 256 972 l 335 972 q 357 965 350 972 q 365 953 364 958 l 676 236 l 826 939 q 840 963 829 954 q 865 972 851 972 l 933 972 q 955 963 949 972 q 958 939 961 954 l 765 33 q 753 10 763 19 q 728 0 743 0 l 664 0 q 642 7 649 0 q 633 19 636 14 l 322 728 l 174 32 q 160 9 171 18 q 135 0 150 0 l 65 0 m 583 1042 q 563 1045 572 1042 q 542 1063 553 1049 l 438 1196 q 432 1217 429 1206 q 454 1233 435 1233 l 493 1233 q 510 1231 503 1233 q 522 1224 517 1228 l 617 1144 l 746 1224 q 762 1231 754 1228 q 778 1233 769 1233 l 838 1233 q 853 1217 854 1233 q 840 1197 853 1207 l 678 1063 q 651 1045 661 1049 q 628 1042 640 1042 l 583 1042 z "},"Ņ":{"ha":968,"x_min":38,"x_max":961,"o":"m 65 0 q 44 9 51 0 q 40 32 38 18 l 233 939 q 246 963 236 954 q 271 972 256 972 l 335 972 q 357 965 350 972 q 365 953 364 958 l 676 236 l 826 939 q 840 963 829 954 q 865 972 851 972 l 933 972 q 955 963 949 972 q 958 939 961 954 l 765 33 q 753 10 763 19 q 728 0 743 0 l 664 0 q 642 7 649 0 q 633 19 636 14 l 322 728 l 174 32 q 160 9 171 18 q 135 0 150 0 l 65 0 m 264 -301 q 249 -293 253 -301 q 249 -272 244 -285 l 308 -110 q 326 -81 315 -93 q 357 -69 338 -69 l 447 -69 q 461 -76 457 -69 q 464 -92 465 -83 q 456 -115 461 -104 l 361 -269 q 342 -292 353 -283 q 315 -301 332 -301 l 264 -301 z "},"Ñ":{"ha":968,"x_min":38,"x_max":961,"o":"m 65 0 q 44 9 51 0 q 40 32 38 18 l 233 939 q 246 963 236 954 q 271 972 256 972 l 335 972 q 357 965 350 972 q 365 953 364 958 l 676 236 l 826 939 q 840 963 829 954 q 865 972 851 972 l 933 972 q 955 963 949 972 q 958 939 961 954 l 765 33 q 753 10 763 19 q 728 0 743 0 l 664 0 q 642 7 649 0 q 633 19 636 14 l 322 728 l 174 32 q 160 9 171 18 q 135 0 150 0 l 65 0 m 689 1035 q 633 1047 654 1035 q 594 1070 613 1058 q 556 1082 576 1082 q 523 1072 533 1082 q 504 1052 513 1063 q 481 1042 496 1042 l 436 1042 q 422 1049 426 1042 q 418 1064 417 1056 q 433 1108 421 1085 q 463 1150 444 1131 q 505 1181 481 1169 q 557 1193 529 1193 q 613 1181 592 1193 q 651 1158 635 1169 q 689 1146 668 1146 q 723 1156 713 1146 q 741 1177 733 1167 q 764 1188 749 1188 l 808 1188 q 824 1181 819 1188 q 826 1164 829 1174 q 812 1122 824 1144 q 782 1079 800 1099 q 740 1047 764 1060 q 689 1035 717 1035 z "},"Ŋ":{"ha":965,"x_min":57,"x_max":979,"o":"m 446 -312 q 425 -303 432 -312 q 421 -281 418 -294 l 432 -224 q 446 -201 435 -210 q 472 -192 457 -192 l 486 -192 q 564 -174 535 -192 q 609 -124 593 -156 q 632 -56 625 -93 l 649 19 l 338 721 l 192 32 q 178 9 189 18 q 151 0 167 0 l 85 0 q 63 9 69 0 q 60 32 57 18 l 253 939 q 266 963 256 954 q 292 972 276 972 l 356 972 q 378 965 372 972 q 386 953 385 957 l 696 244 l 843 939 q 857 963 846 954 q 883 972 868 972 l 950 972 q 972 963 965 972 q 976 939 979 954 l 764 -57 q 711 -190 749 -133 q 611 -280 674 -247 q 454 -312 549 -312 l 446 -312 z "},"O":{"ha":940,"x_min":58,"x_max":913,"o":"m 392 -14 q 243 9 310 -14 q 133 79 176 32 q 74 199 90 126 q 75 368 58 271 q 99 485 86 429 q 126 603 111 542 q 288 891 172 796 q 579 986 404 986 q 728 963 663 986 q 838 890 794 939 q 897 771 882 842 q 896 603 913 700 q 872 485 885 542 q 846 368 860 429 q 683 79 799 172 q 392 -14 567 -14 m 397 104 q 590 168 507 104 q 708 375 674 232 q 734 487 724 438 q 756 597 744 536 q 734 804 782 740 q 574 868 686 868 q 381 804 463 868 q 264 597 299 740 q 238 487 249 536 q 215 375 226 438 q 238 168 190 232 q 397 104 285 104 z "},"Ó":{"ha":940,"x_min":58,"x_max":913,"o":"m 392 -14 q 243 9 310 -14 q 133 79 176 32 q 74 199 90 126 q 75 368 58 271 q 99 485 86 429 q 126 603 111 542 q 288 891 172 796 q 579 986 404 986 q 728 963 663 986 q 838 890 794 939 q 897 771 882 842 q 896 603 913 700 q 872 485 885 542 q 846 368 860 429 q 683 79 799 172 q 392 -14 567 -14 m 397 104 q 590 168 507 104 q 708 375 674 232 q 734 487 724 438 q 756 597 744 536 q 734 804 782 740 q 574 868 686 868 q 381 804 463 868 q 264 597 299 740 q 238 487 249 536 q 215 375 226 438 q 238 168 190 232 q 397 104 285 104 m 557 1042 q 538 1060 538 1042 q 549 1079 539 1071 l 682 1207 q 707 1228 696 1222 q 739 1233 718 1233 l 842 1233 q 858 1226 853 1233 q 863 1211 864 1219 q 851 1189 863 1197 l 661 1057 q 638 1044 647 1047 q 613 1042 628 1042 l 557 1042 z "},"Ŏ":{"ha":940,"x_min":58,"x_max":913,"o":"m 392 -14 q 243 9 310 -14 q 133 79 176 32 q 74 199 90 126 q 75 368 58 271 q 99 485 86 429 q 126 603 111 542 q 288 891 172 796 q 579 986 404 986 q 728 963 663 986 q 838 890 794 939 q 897 771 882 842 q 896 603 913 700 q 872 485 885 542 q 846 368 860 429 q 683 79 799 172 q 392 -14 567 -14 m 397 104 q 590 168 507 104 q 708 375 674 232 q 734 487 724 438 q 756 597 744 536 q 734 804 782 740 q 574 868 686 868 q 381 804 463 868 q 264 597 299 740 q 238 487 249 536 q 215 375 226 438 q 238 168 190 232 q 397 104 285 104 m 603 1029 q 506 1053 542 1029 q 457 1117 469 1078 q 453 1200 444 1157 q 464 1219 456 1211 q 485 1226 472 1226 l 528 1226 q 546 1219 540 1226 q 549 1200 551 1211 q 553 1140 543 1168 q 608 1113 564 1113 q 677 1140 654 1113 q 710 1200 700 1168 q 721 1219 713 1211 q 742 1226 729 1226 l 785 1226 q 803 1219 797 1226 q 806 1200 808 1211 q 774 1117 796 1157 q 710 1053 751 1078 q 603 1029 669 1029 z "},"Ô":{"ha":940,"x_min":58,"x_max":913,"o":"m 392 -14 q 243 9 310 -14 q 133 79 176 32 q 74 199 90 126 q 75 368 58 271 q 99 485 86 429 q 126 603 111 542 q 288 891 172 796 q 579 986 404 986 q 728 963 663 986 q 838 890 794 939 q 897 771 882 842 q 896 603 913 700 q 872 485 885 542 q 846 368 860 429 q 683 79 799 172 q 392 -14 567 -14 m 397 104 q 590 168 507 104 q 708 375 674 232 q 734 487 724 438 q 756 597 744 536 q 734 804 782 740 q 574 868 686 868 q 381 804 463 868 q 264 597 299 740 q 238 487 249 536 q 215 375 226 438 q 238 168 190 232 q 397 104 285 104 m 397 1042 q 382 1057 381 1042 q 394 1078 382 1068 l 557 1213 q 585 1231 575 1228 q 607 1233 596 1233 l 651 1233 q 673 1231 664 1233 q 693 1213 682 1228 l 799 1079 q 803 1058 806 1069 q 781 1042 800 1042 l 742 1042 q 726 1044 733 1042 q 713 1051 719 1047 l 618 1131 l 489 1051 q 474 1044 481 1047 q 457 1042 467 1042 l 397 1042 z "},"Ö":{"ha":940,"x_min":58,"x_max":913,"o":"m 392 -14 q 243 9 310 -14 q 133 79 176 32 q 74 199 90 126 q 75 368 58 271 q 99 485 86 429 q 126 603 111 542 q 288 891 172 796 q 579 986 404 986 q 728 963 663 986 q 838 890 794 939 q 897 771 882 842 q 896 603 913 700 q 872 485 885 542 q 846 368 860 429 q 683 79 799 172 q 392 -14 567 -14 m 397 104 q 590 168 507 104 q 708 375 674 232 q 734 487 724 438 q 756 597 744 536 q 734 804 782 740 q 574 868 686 868 q 381 804 463 868 q 264 597 299 740 q 238 487 249 536 q 215 375 226 438 q 238 168 190 232 q 397 104 285 104 m 697 1042 q 677 1050 683 1042 q 674 1072 671 1058 l 690 1147 q 703 1170 693 1161 q 728 1179 714 1179 l 803 1179 q 824 1170 817 1179 q 828 1147 831 1161 l 811 1072 q 797 1050 808 1058 q 772 1042 786 1042 l 697 1042 m 421 1042 q 401 1050 407 1042 q 397 1072 394 1058 l 413 1147 q 426 1170 415 1161 q 451 1179 436 1179 l 526 1179 q 547 1170 540 1179 q 551 1147 554 1161 l 535 1072 q 521 1050 532 1058 q 496 1042 510 1042 l 421 1042 z "},"Ò":{"ha":940,"x_min":58,"x_max":913,"o":"m 392 -14 q 243 9 310 -14 q 133 79 176 32 q 74 199 90 126 q 75 368 58 271 q 99 485 86 429 q 126 603 111 542 q 288 891 172 796 q 579 986 404 986 q 728 963 663 986 q 838 890 794 939 q 897 771 882 842 q 896 603 913 700 q 872 485 885 542 q 846 368 860 429 q 683 79 799 172 q 392 -14 567 -14 m 397 104 q 590 168 507 104 q 708 375 674 232 q 734 487 724 438 q 756 597 744 536 q 734 804 782 740 q 574 868 686 868 q 381 804 463 868 q 264 597 299 740 q 238 487 249 536 q 215 375 226 438 q 238 168 190 232 q 397 104 285 104 m 585 1042 q 560 1044 569 1042 q 542 1057 551 1047 l 411 1186 q 406 1207 403 1194 q 438 1233 411 1233 l 538 1233 q 566 1228 558 1233 q 583 1207 574 1222 l 661 1082 q 664 1064 667 1072 q 638 1042 658 1042 l 585 1042 z "},"Ő":{"ha":940,"x_min":58,"x_max":918,"o":"m 392 -14 q 243 9 310 -14 q 133 79 176 32 q 74 199 90 126 q 75 368 58 271 q 99 485 86 429 q 126 603 111 542 q 288 891 172 796 q 579 986 404 986 q 728 963 663 986 q 838 890 794 939 q 897 771 882 842 q 896 603 913 700 q 872 485 885 542 q 846 368 860 429 q 683 79 799 172 q 392 -14 567 -14 m 397 104 q 590 168 507 104 q 708 375 674 232 q 734 487 724 438 q 756 597 744 536 q 734 804 782 740 q 574 868 686 868 q 381 804 463 868 q 264 597 299 740 q 238 487 249 536 q 215 375 226 438 q 238 168 190 232 q 397 104 285 104 m 676 1042 q 657 1058 657 1042 q 660 1067 658 1063 q 665 1076 663 1072 l 751 1207 q 773 1227 760 1221 q 808 1233 786 1233 l 894 1233 q 917 1213 918 1233 q 907 1190 917 1200 l 767 1061 q 721 1042 744 1042 l 676 1042 m 446 1042 q 426 1058 426 1042 q 429 1067 426 1063 q 435 1076 432 1072 l 521 1207 q 542 1227 529 1221 q 578 1233 556 1233 l 664 1233 q 686 1213 688 1233 q 675 1190 686 1200 l 536 1061 q 490 1042 514 1042 l 446 1042 z "},"Ō":{"ha":940,"x_min":58,"x_max":913,"o":"m 392 -14 q 243 9 310 -14 q 133 79 176 32 q 74 199 90 126 q 75 368 58 271 q 99 485 86 429 q 126 603 111 542 q 288 891 172 796 q 579 986 404 986 q 728 963 663 986 q 838 890 794 939 q 897 771 882 842 q 896 603 913 700 q 872 485 885 542 q 846 368 860 429 q 683 79 799 172 q 392 -14 567 -14 m 397 104 q 590 168 507 104 q 708 375 674 232 q 734 487 724 438 q 756 597 744 536 q 734 804 782 740 q 574 868 686 868 q 381 804 463 868 q 264 597 299 740 q 238 487 249 536 q 215 375 226 438 q 238 168 190 232 q 397 104 285 104 m 436 1042 q 417 1050 422 1042 q 413 1072 411 1058 l 424 1125 q 437 1147 426 1139 q 461 1156 447 1156 l 783 1156 q 803 1147 797 1156 q 807 1125 810 1139 l 797 1072 q 785 1050 796 1058 q 760 1042 774 1042 l 436 1042 z "},"Ø":{"ha":940,"x_min":33,"x_max":958,"o":"m 392 -14 q 243 9 310 -14 q 133 79 176 32 q 74 199 90 126 q 75 368 58 271 q 99 485 86 429 q 126 603 111 542 q 288 891 172 796 q 579 986 404 986 q 728 963 663 986 q 838 890 794 939 q 897 771 882 842 q 896 603 913 700 q 872 485 885 542 q 846 368 860 429 q 683 79 799 172 q 392 -14 567 -14 m 397 104 q 590 168 507 104 q 708 375 674 232 q 734 487 724 438 q 756 597 744 536 q 734 804 782 740 q 574 868 686 868 q 381 804 463 868 q 264 597 299 740 q 238 487 249 536 q 215 375 226 438 q 238 168 190 232 q 397 104 285 104 m 65 -90 q 42 -78 50 -90 q 47 -47 33 -65 l 863 1042 q 874 1055 865 1047 q 896 1063 882 1063 l 926 1063 q 950 1051 942 1063 q 946 1021 958 1039 l 129 -69 q 118 -83 126 -75 q 94 -90 110 -90 l 65 -90 z "},"Ǿ":{"ha":969,"x_min":33,"x_max":958,"o":"m 568 1042 q 549 1060 549 1042 q 560 1079 550 1071 l 693 1207 q 718 1228 707 1222 q 750 1233 729 1233 l 853 1233 q 869 1226 864 1233 q 874 1211 875 1219 q 863 1189 874 1197 l 672 1057 q 649 1044 658 1047 q 624 1042 639 1042 l 568 1042 m 392 -14 q 243 9 310 -14 q 133 79 176 32 q 74 199 90 126 q 75 368 58 271 q 99 485 86 429 q 126 603 111 542 q 288 891 172 796 q 579 986 404 986 q 728 963 663 986 q 838 890 794 939 q 897 771 882 842 q 896 603 913 700 q 872 485 885 542 q 846 368 860 429 q 683 79 799 172 q 392 -14 567 -14 m 397 104 q 590 168 507 104 q 708 375 674 232 q 734 487 724 438 q 756 597 744 536 q 734 804 782 740 q 574 868 686 868 q 381 804 463 868 q 264 597 299 740 q 238 487 249 536 q 215 375 226 438 q 238 168 190 232 q 397 104 285 104 m 65 -90 q 42 -78 50 -90 q 47 -47 33 -65 l 863 1042 q 874 1055 865 1047 q 896 1063 882 1063 l 926 1063 q 950 1051 942 1063 q 946 1021 958 1039 l 129 -69 q 118 -83 126 -75 q 94 -90 110 -90 l 65 -90 z "},"Õ":{"ha":940,"x_min":58,"x_max":913,"o":"m 392 -14 q 243 9 310 -14 q 133 79 176 32 q 74 199 90 126 q 75 368 58 271 q 99 485 86 429 q 126 603 111 542 q 288 891 172 796 q 579 986 404 986 q 728 963 663 986 q 838 890 794 939 q 897 771 882 842 q 896 603 913 700 q 872 485 885 542 q 846 368 860 429 q 683 79 799 172 q 392 -14 567 -14 m 397 104 q 590 168 507 104 q 708 375 674 232 q 734 487 724 438 q 756 597 744 536 q 734 804 782 740 q 574 868 686 868 q 381 804 463 868 q 264 597 299 740 q 238 487 249 536 q 215 375 226 438 q 238 168 190 232 q 397 104 285 104 m 682 1035 q 626 1047 647 1035 q 588 1070 606 1058 q 549 1082 569 1082 q 516 1072 526 1082 q 497 1052 506 1063 q 474 1042 489 1042 l 429 1042 q 415 1049 419 1042 q 411 1064 410 1056 q 426 1108 414 1085 q 456 1150 438 1131 q 498 1181 474 1169 q 550 1193 522 1193 q 606 1181 585 1193 q 644 1158 628 1169 q 682 1146 661 1146 q 716 1156 706 1146 q 734 1177 726 1167 q 757 1188 742 1188 l 801 1188 q 817 1181 813 1188 q 819 1164 822 1174 q 805 1122 817 1144 q 775 1079 793 1099 q 733 1047 757 1060 q 682 1035 710 1035 z "},"Œ":{"ha":1274,"x_min":61,"x_max":1308,"o":"m 415 0 q 251 24 322 0 q 136 96 181 49 q 76 214 92 143 q 79 376 61 285 q 102 485 92 438 q 126 594 113 533 q 210 806 157 722 q 355 931 264 889 q 583 972 446 972 l 1279 972 q 1301 963 1294 972 q 1306 939 1308 954 l 1293 886 q 1280 863 1290 871 q 1254 854 1269 854 l 833 854 l 767 550 l 1158 550 q 1181 541 1174 550 q 1185 517 1188 532 l 1174 465 q 1160 442 1171 451 q 1135 433 1150 433 l 743 433 l 676 118 l 1108 118 q 1131 110 1124 118 q 1135 86 1138 101 l 1124 32 q 1110 9 1121 18 q 1085 0 1100 0 l 415 0 m 431 118 l 543 118 l 700 854 l 583 854 q 425 828 489 854 q 323 743 361 801 q 263 589 285 685 q 245 517 253 549 q 231 455 238 486 q 218 382 225 424 q 239 183 192 249 q 431 118 286 118 z "},"P":{"ha":893,"x_min":38,"x_max":915,"o":"m 65 0 q 44 9 51 0 q 40 32 38 18 l 233 939 q 247 963 236 954 q 271 972 257 972 l 614 972 q 753 953 693 972 q 851 897 814 935 q 902 804 889 860 q 900 675 915 749 q 768 453 868 528 q 511 379 668 379 l 253 379 l 179 32 q 166 9 176 18 q 140 0 156 0 l 65 0 m 276 496 l 508 496 q 674 542 606 496 q 761 675 742 588 q 765 773 772 733 q 719 834 758 813 q 600 856 681 856 l 353 856 l 276 496 z "},"Þ":{"ha":897,"x_min":38,"x_max":876,"o":"m 65 0 q 44 9 51 0 q 40 32 38 18 l 233 940 q 247 963 236 954 q 271 972 257 972 l 347 972 q 368 963 361 972 q 372 940 375 954 l 339 785 l 575 785 q 713 767 653 785 q 812 710 774 749 q 863 617 850 672 q 860 488 876 561 q 728 267 828 340 q 471 193 629 193 l 214 193 l 179 32 q 166 9 176 18 q 140 0 156 0 l 65 0 m 236 308 l 469 308 q 635 354 567 308 q 721 489 703 400 q 726 586 733 546 q 681 648 719 626 q 560 669 642 669 l 313 669 l 236 308 z "},"Q":{"ha":940,"x_min":72,"x_max":939,"o":"m 660 -90 q 633 -78 642 -90 q 619 -58 625 -67 l 579 19 q 399 -14 497 -14 q 205 27 281 -14 q 101 153 129 68 q 96 368 72 239 q 119 485 107 429 q 144 603 131 542 q 243 816 176 731 q 404 944 310 901 q 611 986 499 986 q 801 944 725 986 q 908 816 878 901 q 915 603 939 731 q 893 485 906 542 q 865 368 881 429 q 704 83 818 178 l 768 -47 q 769 -62 771 -53 q 758 -82 768 -74 q 735 -90 747 -90 l 660 -90 m 425 104 q 613 168 531 104 q 728 375 694 232 q 754 487 743 438 q 775 597 765 536 q 773 753 793 693 q 705 840 753 813 q 586 868 657 868 q 400 804 482 868 q 282 597 318 740 q 258 487 268 536 q 236 375 247 438 q 239 220 219 279 q 306 133 258 161 q 425 104 354 104 z "},"R":{"ha":910,"x_min":57,"x_max":939,"o":"m 85 0 q 63 9 69 0 q 60 32 57 18 l 253 939 q 266 963 256 954 q 292 972 276 972 l 631 972 q 863 899 788 972 q 908 681 939 825 q 819 506 886 574 q 653 413 751 439 l 789 43 q 790 36 790 39 q 789 28 790 33 q 776 8 788 17 q 754 0 765 0 l 688 0 q 656 13 664 0 q 642 38 647 25 l 515 390 l 272 390 l 196 32 q 182 9 193 18 q 156 0 171 0 l 85 0 m 297 508 l 526 508 q 691 552 631 508 q 769 682 751 596 q 747 811 788 767 q 600 856 706 856 l 371 856 l 297 508 z "},"Ŕ":{"ha":910,"x_min":57,"x_max":939,"o":"m 85 0 q 63 9 69 0 q 60 32 57 18 l 253 939 q 266 963 256 954 q 292 972 276 972 l 631 972 q 863 899 788 972 q 908 681 939 825 q 819 506 886 574 q 653 413 751 439 l 789 43 q 790 36 790 39 q 789 28 790 33 q 776 8 788 17 q 754 0 765 0 l 688 0 q 656 13 664 0 q 642 38 647 25 l 515 390 l 272 390 l 196 32 q 182 9 193 18 q 156 0 171 0 l 85 0 m 297 508 l 526 508 q 691 552 631 508 q 769 682 751 596 q 747 811 788 767 q 600 856 706 856 l 371 856 l 297 508 m 500 1042 q 481 1060 481 1042 q 492 1079 482 1071 l 625 1207 q 650 1228 639 1222 q 682 1233 661 1233 l 785 1233 q 801 1226 796 1233 q 806 1211 807 1219 q 794 1189 806 1197 l 604 1057 q 581 1044 590 1047 q 556 1042 571 1042 l 500 1042 z "},"Ř":{"ha":910,"x_min":57,"x_max":939,"o":"m 85 0 q 63 9 69 0 q 60 32 57 18 l 253 939 q 266 963 256 954 q 292 972 276 972 l 631 972 q 863 899 788 972 q 908 681 939 825 q 819 506 886 574 q 653 413 751 439 l 789 43 q 790 36 790 39 q 789 28 790 33 q 776 8 788 17 q 754 0 765 0 l 688 0 q 656 13 664 0 q 642 38 647 25 l 515 390 l 272 390 l 196 32 q 182 9 193 18 q 156 0 171 0 l 85 0 m 297 508 l 526 508 q 691 552 631 508 q 769 682 751 596 q 747 811 788 767 q 600 856 706 856 l 371 856 l 297 508 m 519 1042 q 499 1045 508 1042 q 478 1063 489 1049 l 374 1196 q 368 1217 365 1206 q 390 1233 371 1233 l 429 1233 q 446 1231 439 1233 q 458 1224 453 1228 l 553 1144 l 682 1224 q 698 1231 690 1228 q 714 1233 706 1233 l 774 1233 q 789 1217 790 1233 q 776 1197 789 1207 l 614 1063 q 587 1045 597 1049 q 564 1042 576 1042 l 519 1042 z "},"Ŗ":{"ha":910,"x_min":57,"x_max":939,"o":"m 85 0 q 63 9 69 0 q 60 32 57 18 l 253 939 q 266 963 256 954 q 292 972 276 972 l 631 972 q 863 899 788 972 q 908 681 939 825 q 819 506 886 574 q 653 413 751 439 l 789 43 q 790 36 790 39 q 789 28 790 33 q 776 8 788 17 q 754 0 765 0 l 688 0 q 656 13 664 0 q 642 38 647 25 l 515 390 l 272 390 l 196 32 q 182 9 193 18 q 156 0 171 0 l 85 0 m 297 508 l 526 508 q 691 552 631 508 q 769 682 751 596 q 747 811 788 767 q 600 856 706 856 l 371 856 l 297 508 m 236 -301 q 221 -293 225 -301 q 221 -272 217 -285 l 281 -110 q 299 -81 288 -93 q 329 -69 310 -69 l 419 -69 q 433 -76 429 -69 q 436 -92 438 -83 q 428 -115 433 -104 l 333 -269 q 315 -292 325 -283 q 288 -301 304 -301 l 236 -301 z "},"S":{"ha":861,"x_min":13,"x_max":847,"o":"m 354 -14 q 157 22 233 -14 q 47 118 81 58 q 22 244 13 178 q 32 265 24 256 q 53 274 40 274 l 129 274 q 151 265 144 274 q 160 246 157 257 q 180 180 160 213 q 244 126 200 147 q 360 104 288 104 q 547 147 479 104 q 631 260 615 189 q 618 338 642 308 q 538 392 594 368 q 390 443 482 415 q 238 510 296 472 q 158 602 179 547 q 154 736 138 657 q 276 917 179 849 q 533 986 374 986 q 679 963 618 986 q 779 902 740 940 q 833 820 818 864 q 840 735 847 776 q 832 716 839 725 q 810 707 825 707 l 731 707 q 713 713 722 707 q 701 733 703 718 q 657 829 706 790 q 528 868 608 868 q 372 833 439 868 q 289 725 306 799 q 299 647 279 678 q 369 592 318 615 q 508 542 421 568 q 675 474 613 511 q 761 383 738 436 q 768 250 785 329 q 633 53 740 119 q 354 -14 525 -14 z "},"Ś":{"ha":861,"x_min":13,"x_max":847,"o":"m 354 -14 q 157 22 233 -14 q 47 118 81 58 q 22 244 13 178 q 32 265 24 256 q 53 274 40 274 l 129 274 q 151 265 144 274 q 160 246 157 257 q 180 180 160 213 q 244 126 200 147 q 360 104 288 104 q 547 147 479 104 q 631 260 615 189 q 618 338 642 308 q 538 392 594 368 q 390 443 482 415 q 238 510 296 472 q 158 602 179 547 q 154 736 138 657 q 276 917 179 849 q 533 986 374 986 q 679 963 618 986 q 779 902 740 940 q 833 820 818 864 q 840 735 847 776 q 832 716 839 725 q 810 707 825 707 l 731 707 q 713 713 722 707 q 701 733 703 718 q 657 829 706 790 q 528 868 608 868 q 372 833 439 868 q 289 725 306 799 q 299 647 279 678 q 369 592 318 615 q 508 542 421 568 q 675 474 613 511 q 761 383 738 436 q 768 250 785 329 q 633 53 740 119 q 354 -14 525 -14 m 508 1042 q 489 1060 489 1042 q 500 1079 490 1071 l 633 1207 q 658 1228 647 1222 q 690 1233 669 1233 l 793 1233 q 810 1226 804 1233 q 814 1211 815 1219 q 803 1189 814 1197 l 613 1057 q 589 1044 599 1047 q 564 1042 579 1042 l 508 1042 z "},"Š":{"ha":861,"x_min":13,"x_max":847,"o":"m 354 -14 q 157 22 233 -14 q 47 118 81 58 q 22 244 13 178 q 32 265 24 256 q 53 274 40 274 l 129 274 q 151 265 144 274 q 160 246 157 257 q 180 180 160 213 q 244 126 200 147 q 360 104 288 104 q 547 147 479 104 q 631 260 615 189 q 618 338 642 308 q 538 392 594 368 q 390 443 482 415 q 238 510 296 472 q 158 602 179 547 q 154 736 138 657 q 276 917 179 849 q 533 986 374 986 q 679 963 618 986 q 779 902 740 940 q 833 820 818 864 q 840 735 847 776 q 832 716 839 725 q 810 707 825 707 l 731 707 q 713 713 722 707 q 701 733 703 718 q 657 829 706 790 q 528 868 608 868 q 372 833 439 868 q 289 725 306 799 q 299 647 279 678 q 369 592 318 615 q 508 542 421 568 q 675 474 613 511 q 761 383 738 436 q 768 250 785 329 q 633 53 740 119 q 354 -14 525 -14 m 528 1042 q 507 1045 517 1042 q 486 1063 497 1049 l 382 1196 q 376 1217 374 1206 q 399 1233 379 1233 l 438 1233 q 454 1231 447 1233 q 467 1224 461 1228 l 561 1144 l 690 1224 q 706 1231 699 1228 q 722 1233 714 1233 l 782 1233 q 797 1217 799 1233 q 785 1197 797 1207 l 622 1063 q 595 1045 606 1049 q 572 1042 585 1042 l 528 1042 z "},"Ş":{"ha":863,"x_min":11,"x_max":849,"o":"m 321 -306 q 255 -292 282 -304 q 219 -262 228 -279 q 224 -235 210 -246 l 249 -215 q 271 -210 263 -204 q 293 -226 279 -217 q 336 -236 307 -236 q 378 -222 358 -236 q 403 -185 399 -208 q 394 -149 408 -162 q 358 -136 381 -136 q 322 -142 338 -136 q 294 -149 306 -147 q 275 -140 283 -151 l 257 -115 q 258 -96 251 -107 q 271 -74 264 -85 l 308 -12 q 130 34 197 -4 q 37 128 63 72 q 22 244 11 183 q 35 265 25 256 q 58 274 46 274 l 131 274 q 152 265 146 274 q 160 246 158 257 q 179 180 160 213 q 244 126 199 147 q 368 104 290 104 q 552 147 488 104 q 632 260 617 189 q 619 338 642 308 q 540 392 596 368 q 392 443 483 415 q 238 507 297 472 q 156 593 178 542 q 151 724 135 644 q 221 858 168 799 q 357 951 274 917 q 547 986 440 986 q 693 963 633 986 q 788 902 753 940 q 836 820 824 864 q 842 735 849 776 q 831 716 840 725 q 807 707 821 707 l 732 707 q 714 713 724 707 q 703 733 704 718 q 659 829 707 790 q 522 868 611 868 q 369 833 432 868 q 290 725 306 799 q 300 647 281 678 q 371 592 319 615 q 508 542 422 568 q 676 477 613 511 q 765 392 740 443 q 771 263 789 342 q 701 123 754 182 q 569 30 649 64 q 389 -11 489 -4 l 344 -78 q 369 -69 354 -72 q 397 -67 385 -67 q 467 -99 444 -67 q 479 -183 490 -132 q 428 -270 469 -233 q 321 -306 386 -307 z "},"Ŝ":{"ha":861,"x_min":13,"x_max":847,"o":"m 354 -14 q 157 22 233 -14 q 47 118 81 58 q 22 244 13 178 q 32 265 24 256 q 53 274 40 274 l 129 274 q 151 265 144 274 q 160 246 157 257 q 180 180 160 213 q 244 126 200 147 q 360 104 288 104 q 547 147 479 104 q 631 260 615 189 q 618 338 642 308 q 538 392 594 368 q 390 443 482 415 q 238 510 296 472 q 158 602 179 547 q 154 736 138 657 q 276 917 179 849 q 533 986 374 986 q 679 963 618 986 q 779 902 740 940 q 833 820 818 864 q 840 735 847 776 q 832 716 839 725 q 810 707 825 707 l 731 707 q 713 713 722 707 q 701 733 703 718 q 657 829 706 790 q 528 868 608 868 q 372 833 439 868 q 289 725 306 799 q 299 647 279 678 q 369 592 318 615 q 508 542 421 568 q 675 474 613 511 q 761 383 738 436 q 768 250 785 329 q 633 53 740 119 q 354 -14 525 -14 m 350 1042 q 335 1057 333 1042 q 347 1078 335 1068 l 510 1213 q 538 1231 528 1228 q 560 1233 549 1233 l 604 1233 q 626 1231 617 1233 q 646 1213 635 1228 l 751 1079 q 756 1058 758 1069 q 733 1042 753 1042 l 694 1042 q 679 1044 686 1042 q 665 1051 672 1047 l 571 1131 l 442 1051 q 426 1044 433 1047 q 410 1042 419 1042 l 350 1042 z "},"Ș":{"ha":861,"x_min":13,"x_max":847,"o":"m 354 -14 q 157 22 233 -14 q 47 118 81 58 q 22 244 13 178 q 32 265 24 256 q 53 274 40 274 l 129 274 q 151 265 144 274 q 160 246 157 257 q 180 180 160 213 q 244 126 200 147 q 360 104 288 104 q 547 147 479 104 q 631 260 615 189 q 618 338 642 308 q 538 392 594 368 q 390 443 482 415 q 238 510 296 472 q 158 602 179 547 q 154 736 138 657 q 276 917 179 849 q 533 986 374 986 q 679 963 618 986 q 779 902 740 940 q 833 820 818 864 q 840 735 847 776 q 832 716 839 725 q 810 707 825 707 l 731 707 q 713 713 722 707 q 701 733 703 718 q 657 829 706 790 q 528 868 608 868 q 372 833 439 868 q 289 725 306 799 q 299 647 279 678 q 369 592 318 615 q 508 542 421 568 q 675 474 613 511 q 761 383 738 436 q 768 250 785 329 q 633 53 740 119 q 354 -14 525 -14 m 210 -301 q 194 -293 199 -301 q 194 -272 190 -285 l 254 -110 q 272 -81 261 -93 q 303 -69 283 -69 l 393 -69 q 407 -76 403 -69 q 410 -92 411 -83 q 401 -115 407 -104 l 307 -269 q 288 -292 299 -283 q 261 -301 278 -301 l 210 -301 z "},"ẞ":{"ha":897,"x_min":21,"x_max":876,"o":"m 49 0 q 28 9 35 0 q 24 32 21 18 l 151 639 q 302 901 189 817 q 579 986 415 986 q 729 963 661 986 q 837 901 797 939 q 876 819 876 864 q 856 755 876 781 q 813 710 835 729 l 519 464 l 542 532 q 748 478 675 532 q 821 326 821 425 q 768 160 821 233 q 626 43 715 86 q 425 0 538 0 l 260 0 q 238 8 246 0 q 233 32 231 17 l 244 81 q 258 104 247 96 q 285 113 269 113 l 422 113 q 610 167 540 113 q 679 310 679 221 q 633 406 679 374 q 494 439 588 439 l 433 439 q 410 447 418 439 q 407 471 403 456 l 415 510 q 424 531 419 522 q 446 554 429 539 l 685 751 q 709 776 699 764 q 719 800 719 788 q 672 850 719 826 q 554 874 625 874 q 383 819 451 874 q 288 635 315 764 l 158 32 q 144 9 156 18 q 119 0 132 0 l 49 0 z "},"T":{"ha":797,"x_min":128,"x_max":879,"o":"m 275 0 q 253 9 260 0 q 249 32 246 18 l 422 849 l 156 849 q 135 858 142 849 q 131 881 128 867 l 143 939 q 156 963 146 954 q 182 972 167 972 l 851 972 q 873 963 867 972 q 876 939 879 954 l 864 881 q 851 858 861 867 q 825 849 840 849 l 560 849 l 386 32 q 373 9 383 18 q 347 0 363 0 l 275 0 z "},"Ŧ":{"ha":814,"x_min":135,"x_max":888,"o":"m 282 0 q 260 9 268 0 q 256 32 253 18 l 347 463 l 192 463 q 170 472 176 463 q 167 494 164 481 l 174 529 q 188 553 176 544 q 213 563 199 563 l 369 563 l 431 849 l 164 849 q 142 858 150 849 q 138 881 135 867 l 150 939 q 164 963 153 954 q 189 972 175 972 l 858 972 q 881 963 874 972 q 885 939 888 954 l 872 881 q 859 858 869 867 q 833 849 849 849 l 568 849 l 507 563 l 663 563 q 684 553 678 563 q 688 529 690 544 l 681 494 q 667 472 678 481 q 640 463 656 463 l 485 463 l 393 32 q 380 9 390 18 q 354 0 369 0 l 282 0 z "},"Ť":{"ha":797,"x_min":128,"x_max":879,"o":"m 275 0 q 253 9 260 0 q 249 32 246 18 l 422 849 l 156 849 q 135 858 142 849 q 131 881 128 867 l 143 939 q 156 963 146 954 q 182 972 167 972 l 851 972 q 873 963 867 972 q 876 939 879 954 l 864 881 q 851 858 861 867 q 825 849 840 849 l 560 849 l 386 32 q 373 9 383 18 q 347 0 363 0 l 275 0 m 513 1042 q 492 1045 501 1042 q 471 1063 482 1049 l 367 1196 q 361 1217 358 1206 q 383 1233 364 1233 l 422 1233 q 439 1231 432 1233 q 451 1224 446 1228 l 546 1144 l 675 1224 q 691 1231 683 1228 q 707 1233 699 1233 l 767 1233 q 782 1217 783 1233 q 769 1197 782 1207 l 607 1063 q 580 1045 590 1049 q 557 1042 569 1042 l 513 1042 z "},"Ț":{"ha":797,"x_min":128,"x_max":879,"o":"m 275 0 q 253 9 260 0 q 249 32 246 18 l 422 849 l 156 849 q 135 858 142 849 q 131 881 128 867 l 143 939 q 156 963 146 954 q 182 972 167 972 l 851 972 q 873 963 867 972 q 876 939 879 954 l 864 881 q 851 858 861 867 q 825 849 840 849 l 560 849 l 386 32 q 373 9 383 18 q 347 0 363 0 l 275 0 m 165 -301 q 150 -293 154 -301 q 150 -272 146 -285 l 210 -110 q 228 -81 217 -93 q 258 -69 239 -69 l 349 -69 q 363 -76 358 -69 q 365 -92 367 -83 q 357 -115 363 -104 l 263 -269 q 244 -292 254 -283 q 217 -301 233 -301 l 165 -301 z "},"U":{"ha":974,"x_min":83,"x_max":976,"o":"m 408 -14 q 252 9 319 -14 q 145 80 185 32 q 94 201 106 128 q 104 375 83 274 l 224 939 q 238 963 226 954 q 263 972 249 972 l 335 972 q 356 963 350 972 q 360 939 363 954 l 239 372 q 250 171 210 236 q 414 106 290 106 q 610 171 533 106 q 717 372 688 236 l 838 939 q 852 963 840 954 q 878 972 864 972 l 949 972 q 970 963 964 972 q 974 939 976 954 l 854 375 q 703 80 811 174 q 408 -14 596 -14 z "},"Ú":{"ha":974,"x_min":83,"x_max":976,"o":"m 408 -14 q 252 9 319 -14 q 145 80 185 32 q 94 201 106 128 q 104 375 83 274 l 224 939 q 238 963 226 954 q 263 972 249 972 l 335 972 q 356 963 350 972 q 360 939 363 954 l 239 372 q 250 171 210 236 q 414 106 290 106 q 610 171 533 106 q 717 372 688 236 l 838 939 q 852 963 840 954 q 878 972 864 972 l 949 972 q 970 963 964 972 q 974 939 976 954 l 854 375 q 703 80 811 174 q 408 -14 596 -14 m 564 1042 q 544 1060 544 1042 q 556 1079 546 1071 l 689 1207 q 714 1228 703 1222 q 746 1233 725 1233 l 849 1233 q 865 1226 860 1233 q 869 1211 871 1219 q 858 1189 869 1197 l 668 1057 q 644 1044 654 1047 q 619 1042 635 1042 l 564 1042 z "},"Ŭ":{"ha":974,"x_min":83,"x_max":976,"o":"m 408 -14 q 252 9 319 -14 q 145 80 185 32 q 94 201 106 128 q 104 375 83 274 l 224 939 q 238 963 226 954 q 263 972 249 972 l 335 972 q 356 963 350 972 q 360 939 363 954 l 239 372 q 250 171 210 236 q 414 106 290 106 q 610 171 533 106 q 717 372 688 236 l 838 939 q 852 963 840 954 q 878 972 864 972 l 949 972 q 970 963 964 972 q 974 939 976 954 l 854 375 q 703 80 811 174 q 408 -14 596 -14 m 611 1029 q 514 1053 550 1029 q 465 1117 478 1078 q 461 1200 453 1157 q 472 1219 464 1211 q 493 1226 481 1226 l 536 1226 q 554 1219 549 1226 q 557 1200 560 1211 q 562 1140 551 1168 q 617 1113 572 1113 q 685 1140 663 1113 q 718 1200 708 1168 q 729 1219 721 1211 q 750 1226 738 1226 l 793 1226 q 811 1219 806 1226 q 814 1200 817 1211 q 782 1117 804 1157 q 719 1053 760 1078 q 611 1029 678 1029 z "},"Û":{"ha":974,"x_min":83,"x_max":976,"o":"m 408 -14 q 252 9 319 -14 q 145 80 185 32 q 94 201 106 128 q 104 375 83 274 l 224 939 q 238 963 226 954 q 263 972 249 972 l 335 972 q 356 963 350 972 q 360 939 363 954 l 239 372 q 250 171 210 236 q 414 106 290 106 q 610 171 533 106 q 717 372 688 236 l 838 939 q 852 963 840 954 q 878 972 864 972 l 949 972 q 970 963 964 972 q 974 939 976 954 l 854 375 q 703 80 811 174 q 408 -14 596 -14 m 406 1042 q 390 1057 389 1042 q 403 1078 390 1068 l 565 1213 q 594 1231 583 1228 q 615 1233 604 1233 l 660 1233 q 681 1231 672 1233 q 701 1213 690 1228 l 807 1079 q 811 1058 814 1069 q 789 1042 808 1042 l 750 1042 q 735 1044 742 1042 q 721 1051 728 1047 l 626 1131 l 497 1051 q 482 1044 489 1047 q 465 1042 475 1042 l 406 1042 z "},"Ü":{"ha":974,"x_min":83,"x_max":976,"o":"m 408 -14 q 252 9 319 -14 q 145 80 185 32 q 94 201 106 128 q 104 375 83 274 l 224 939 q 238 963 226 954 q 263 972 249 972 l 335 972 q 356 963 350 972 q 360 939 363 954 l 239 372 q 250 171 210 236 q 414 106 290 106 q 610 171 533 106 q 717 372 688 236 l 838 939 q 852 963 840 954 q 878 972 864 972 l 949 972 q 970 963 964 972 q 974 939 976 954 l 854 375 q 703 80 811 174 q 408 -14 596 -14 m 706 1042 q 685 1050 692 1042 q 682 1072 679 1058 l 699 1147 q 712 1170 701 1161 q 736 1179 722 1179 l 811 1179 q 832 1170 825 1179 q 836 1147 839 1161 l 819 1072 q 806 1050 817 1058 q 781 1042 794 1042 l 706 1042 m 429 1042 q 409 1050 415 1042 q 406 1072 403 1058 l 421 1147 q 434 1170 424 1161 q 460 1179 444 1179 l 535 1179 q 556 1170 549 1179 q 560 1147 563 1161 l 543 1072 q 529 1050 540 1058 q 504 1042 518 1042 l 429 1042 z "},"Ù":{"ha":974,"x_min":83,"x_max":976,"o":"m 408 -14 q 252 9 319 -14 q 145 80 185 32 q 94 201 106 128 q 104 375 83 274 l 224 939 q 238 963 226 954 q 263 972 249 972 l 335 972 q 356 963 350 972 q 360 939 363 954 l 239 372 q 250 171 210 236 q 414 106 290 106 q 610 171 533 106 q 717 372 688 236 l 838 939 q 852 963 840 954 q 878 972 864 972 l 949 972 q 970 963 964 972 q 974 939 976 954 l 854 375 q 703 80 811 174 q 408 -14 596 -14 m 593 1042 q 569 1044 578 1042 q 550 1057 560 1047 l 419 1186 q 414 1207 411 1194 q 446 1233 419 1233 l 546 1233 q 574 1228 567 1233 q 592 1207 582 1222 l 669 1082 q 672 1064 675 1072 q 646 1042 667 1042 l 593 1042 z "},"Ű":{"ha":974,"x_min":83,"x_max":976,"o":"m 408 -14 q 252 9 319 -14 q 145 80 185 32 q 94 201 106 128 q 104 375 83 274 l 224 939 q 238 963 226 954 q 263 972 249 972 l 335 972 q 356 963 350 972 q 360 939 363 954 l 239 372 q 250 171 210 236 q 414 106 290 106 q 610 171 533 106 q 717 372 688 236 l 838 939 q 852 963 840 954 q 878 972 864 972 l 949 972 q 970 963 964 972 q 974 939 976 954 l 854 375 q 703 80 811 174 q 408 -14 596 -14 m 685 1042 q 665 1058 665 1042 q 669 1067 667 1063 q 674 1076 671 1072 l 760 1207 q 781 1227 768 1221 q 817 1233 794 1233 l 903 1233 q 925 1213 926 1233 q 915 1190 925 1200 l 775 1061 q 729 1042 753 1042 l 685 1042 m 454 1042 q 435 1058 435 1042 q 438 1067 435 1063 q 443 1076 440 1072 l 529 1207 q 551 1227 538 1221 q 586 1233 564 1233 l 672 1233 q 694 1213 696 1233 q 683 1190 694 1200 l 544 1061 q 499 1042 522 1042 l 454 1042 z "},"Ū":{"ha":974,"x_min":83,"x_max":976,"o":"m 408 -14 q 252 9 319 -14 q 145 80 185 32 q 94 201 106 128 q 104 375 83 274 l 224 939 q 238 963 226 954 q 263 972 249 972 l 335 972 q 356 963 350 972 q 360 939 363 954 l 239 372 q 250 171 210 236 q 414 106 290 106 q 610 171 533 106 q 717 372 688 236 l 838 939 q 852 963 840 954 q 878 972 864 972 l 949 972 q 970 963 964 972 q 974 939 976 954 l 854 375 q 703 80 811 174 q 408 -14 596 -14 m 444 1042 q 425 1050 431 1042 q 421 1072 419 1058 l 432 1125 q 445 1147 435 1139 q 469 1156 456 1156 l 792 1156 q 812 1147 806 1156 q 815 1125 818 1139 l 806 1072 q 793 1050 804 1058 q 768 1042 782 1042 l 444 1042 z "},"Ų":{"ha":975,"x_min":81,"x_max":976,"o":"m 444 -306 q 347 -280 390 -306 q 285 -208 304 -254 q 276 -103 265 -162 q 291 -49 281 -72 q 317 -7 301 -26 q 170 53 226 7 q 97 179 114 99 q 104 375 81 260 l 224 939 q 238 963 226 954 q 263 972 249 972 l 335 972 q 356 963 350 972 q 360 939 363 954 l 239 372 q 251 171 211 236 q 414 106 290 106 q 610 171 533 106 q 717 372 688 236 l 838 939 q 852 963 840 954 q 878 972 864 972 l 949 972 q 970 963 964 972 q 974 939 976 954 l 854 375 q 778 160 832 243 q 648 38 724 78 q 481 -10 572 -3 q 416 -36 446 -11 q 376 -106 386 -61 q 390 -181 367 -153 q 450 -210 414 -210 l 474 -210 q 494 -219 488 -210 q 497 -242 500 -228 l 489 -279 q 476 -299 485 -293 q 453 -306 468 -306 l 444 -306 z "},"Ů":{"ha":974,"x_min":83,"x_max":976,"o":"m 408 -14 q 252 9 319 -14 q 145 80 185 32 q 94 201 106 128 q 104 375 83 274 l 224 939 q 238 963 226 954 q 263 972 249 972 l 335 972 q 356 963 350 972 q 360 939 363 954 l 239 372 q 250 171 210 236 q 414 106 290 106 q 610 171 533 106 q 717 372 688 236 l 838 939 q 852 963 840 954 q 878 972 864 972 l 949 972 q 970 963 964 972 q 974 939 976 954 l 854 375 q 703 80 811 174 q 408 -14 596 -14 m 606 1028 q 528 1059 557 1028 q 508 1138 499 1090 q 559 1216 521 1185 q 644 1247 597 1247 q 723 1216 693 1247 q 742 1138 753 1185 q 692 1058 732 1088 q 606 1028 653 1028 m 613 1096 q 648 1108 633 1096 q 667 1138 663 1119 q 663 1167 671 1156 q 638 1179 656 1179 q 602 1167 617 1179 q 583 1138 588 1156 q 588 1108 579 1119 q 613 1096 596 1096 z "},"Ũ":{"ha":974,"x_min":83,"x_max":976,"o":"m 408 -14 q 252 9 319 -14 q 145 80 185 32 q 94 201 106 128 q 104 375 83 274 l 224 939 q 238 963 226 954 q 263 972 249 972 l 335 972 q 356 963 350 972 q 360 939 363 954 l 239 372 q 250 171 210 236 q 414 106 290 106 q 610 171 533 106 q 717 372 688 236 l 838 939 q 852 963 840 954 q 878 972 864 972 l 949 972 q 970 963 964 972 q 974 939 976 954 l 854 375 q 703 80 811 174 q 408 -14 596 -14 m 690 1035 q 635 1047 656 1035 q 596 1070 614 1058 q 557 1082 578 1082 q 524 1072 535 1082 q 506 1052 514 1063 q 482 1042 497 1042 l 438 1042 q 423 1049 428 1042 q 419 1064 418 1056 q 434 1108 422 1085 q 464 1150 446 1131 q 506 1181 482 1169 q 558 1193 531 1193 q 615 1181 593 1193 q 653 1158 636 1169 q 690 1146 669 1146 q 724 1156 714 1146 q 742 1177 735 1167 q 765 1188 750 1188 l 810 1188 q 826 1181 821 1188 q 828 1164 831 1174 q 813 1122 825 1144 q 783 1079 801 1099 q 742 1047 765 1060 q 690 1035 718 1035 z "},"V":{"ha":910,"x_min":156,"x_max":981,"o":"m 321 0 q 290 10 300 0 q 278 36 279 19 l 157 938 q 164 963 156 954 q 186 972 172 972 l 257 972 q 281 965 274 972 q 289 947 288 957 l 393 160 l 833 947 q 844 964 836 956 q 869 972 853 972 l 954 972 q 976 958 971 972 q 972 929 981 944 l 472 36 q 450 10 464 19 q 415 0 436 0 l 321 0 z "},"W":{"ha":1099,"x_min":156,"x_max":1161,"o":"m 192 0 q 165 10 174 0 q 156 38 156 19 l 165 943 q 174 963 165 954 q 196 972 182 972 l 264 972 q 288 964 281 972 q 294 943 294 956 l 288 244 l 539 724 q 558 747 546 736 q 590 757 571 757 l 640 757 q 668 747 661 757 q 676 724 675 736 l 728 233 l 1021 949 q 1060 972 1031 972 l 1135 972 q 1157 962 1153 972 q 1154 936 1161 951 l 792 38 q 771 10 783 19 q 740 0 758 0 l 679 0 q 651 10 660 0 q 640 35 642 19 l 578 561 l 301 35 q 281 10 294 19 q 250 0 268 0 l 192 0 z "},"Ẃ":{"ha":1099,"x_min":156,"x_max":1161,"o":"m 192 0 q 165 10 174 0 q 156 38 156 19 l 165 943 q 174 963 165 954 q 196 972 182 972 l 264 972 q 288 964 281 972 q 294 943 294 956 l 288 244 l 539 724 q 558 747 546 736 q 590 757 571 757 l 640 757 q 668 747 661 757 q 676 724 675 736 l 728 233 l 1021 949 q 1060 972 1031 972 l 1135 972 q 1157 962 1153 972 q 1154 936 1161 951 l 792 38 q 771 10 783 19 q 740 0 758 0 l 679 0 q 651 10 660 0 q 640 35 642 19 l 578 561 l 301 35 q 281 10 294 19 q 250 0 268 0 l 192 0 m 625 1042 q 606 1060 606 1042 q 617 1079 607 1071 l 750 1207 q 775 1228 764 1222 q 807 1233 786 1233 l 910 1233 q 926 1226 921 1233 q 931 1211 932 1219 q 919 1189 931 1197 l 729 1057 q 706 1044 715 1047 q 681 1042 696 1042 l 625 1042 z "},"Ŵ":{"ha":1099,"x_min":156,"x_max":1161,"o":"m 192 0 q 165 10 174 0 q 156 38 156 19 l 165 943 q 174 963 165 954 q 196 972 182 972 l 264 972 q 288 964 281 972 q 294 943 294 956 l 288 244 l 539 724 q 558 747 546 736 q 590 757 571 757 l 640 757 q 668 747 661 757 q 676 724 675 736 l 728 233 l 1021 949 q 1060 972 1031 972 l 1135 972 q 1157 962 1153 972 q 1154 936 1161 951 l 792 38 q 771 10 783 19 q 740 0 758 0 l 679 0 q 651 10 660 0 q 640 35 642 19 l 578 561 l 301 35 q 281 10 294 19 q 250 0 268 0 l 192 0 m 465 1042 q 450 1057 449 1042 q 463 1078 450 1068 l 625 1213 q 653 1231 643 1228 q 675 1233 664 1233 l 719 1233 q 741 1231 732 1233 q 761 1213 750 1228 l 867 1079 q 871 1058 874 1069 q 849 1042 868 1042 l 810 1042 q 794 1044 801 1042 q 781 1051 788 1047 l 686 1131 l 557 1051 q 542 1044 549 1047 q 525 1042 535 1042 l 465 1042 z "},"Ẅ":{"ha":1099,"x_min":156,"x_max":1161,"o":"m 192 0 q 165 10 174 0 q 156 38 156 19 l 165 943 q 174 963 165 954 q 196 972 182 972 l 264 972 q 288 964 281 972 q 294 943 294 956 l 288 244 l 539 724 q 558 747 546 736 q 590 757 571 757 l 640 757 q 668 747 661 757 q 676 724 675 736 l 728 233 l 1021 949 q 1060 972 1031 972 l 1135 972 q 1157 962 1153 972 q 1154 936 1161 951 l 792 38 q 771 10 783 19 q 740 0 758 0 l 679 0 q 651 10 660 0 q 640 35 642 19 l 578 561 l 301 35 q 281 10 294 19 q 250 0 268 0 l 192 0 m 765 1042 q 745 1050 751 1042 q 742 1072 739 1058 l 758 1147 q 772 1170 761 1161 q 796 1179 782 1179 l 871 1179 q 892 1170 885 1179 q 896 1147 899 1161 l 879 1072 q 865 1050 876 1058 q 840 1042 854 1042 l 765 1042 m 489 1042 q 469 1050 475 1042 q 465 1072 463 1058 l 481 1147 q 494 1170 483 1161 q 519 1179 504 1179 l 594 1179 q 615 1170 608 1179 q 619 1147 622 1161 l 603 1072 q 589 1050 600 1058 q 564 1042 578 1042 l 489 1042 z "},"Ẁ":{"ha":1099,"x_min":156,"x_max":1161,"o":"m 192 0 q 165 10 174 0 q 156 38 156 19 l 165 943 q 174 963 165 954 q 196 972 182 972 l 264 972 q 288 964 281 972 q 294 943 294 956 l 288 244 l 539 724 q 558 747 546 736 q 590 757 571 757 l 640 757 q 668 747 661 757 q 676 724 675 736 l 728 233 l 1021 949 q 1060 972 1031 972 l 1135 972 q 1157 962 1153 972 q 1154 936 1161 951 l 792 38 q 771 10 783 19 q 740 0 758 0 l 679 0 q 651 10 660 0 q 640 35 642 19 l 578 561 l 301 35 q 281 10 294 19 q 250 0 268 0 l 192 0 m 654 1042 q 630 1044 639 1042 q 611 1057 621 1047 l 481 1186 q 475 1207 472 1194 q 507 1233 481 1233 l 607 1233 q 635 1228 628 1233 q 653 1207 643 1222 l 731 1082 q 733 1064 736 1072 q 707 1042 728 1042 l 654 1042 z "},"X":{"ha":881,"x_min":-54,"x_max":954,"o":"m -21 0 q -47 16 -39 0 q -42 46 -54 32 l 381 500 l 164 929 q 165 958 157 944 q 190 972 174 972 l 260 972 q 291 964 283 972 q 301 949 299 956 l 478 599 l 796 949 q 813 964 803 956 q 847 972 822 972 l 922 972 q 947 957 939 972 q 942 926 954 942 l 539 478 l 761 42 q 760 14 768 28 q 733 0 751 0 l 665 0 q 635 9 643 0 q 624 24 626 18 l 442 378 l 110 24 q 94 9 104 18 q 61 0 85 0 l -21 0 z "},"Y":{"ha":894,"x_min":147,"x_max":969,"o":"m 324 0 q 302 9 310 0 q 297 32 294 18 l 367 360 l 153 926 q 158 958 147 943 q 186 972 168 972 l 251 972 q 272 966 264 972 q 283 949 279 960 l 456 501 l 817 949 q 834 966 824 960 q 858 972 844 972 l 944 972 q 968 957 967 972 q 958 926 969 942 l 503 360 l 433 32 q 420 9 431 18 q 394 0 410 0 l 324 0 z "},"Ý":{"ha":894,"x_min":147,"x_max":969,"o":"m 324 0 q 302 9 310 0 q 297 32 294 18 l 367 360 l 153 926 q 158 958 147 943 q 186 972 168 972 l 251 972 q 272 966 264 972 q 283 949 279 960 l 456 501 l 817 949 q 834 966 824 960 q 858 972 844 972 l 944 972 q 968 957 967 972 q 958 926 969 942 l 503 360 l 433 32 q 420 9 431 18 q 394 0 410 0 l 324 0 m 503 1042 q 483 1060 483 1042 q 494 1079 485 1071 l 628 1207 q 653 1228 642 1222 q 685 1233 664 1233 l 788 1233 q 804 1226 799 1233 q 808 1211 810 1219 q 797 1189 808 1197 l 607 1057 q 583 1044 593 1047 q 558 1042 574 1042 l 503 1042 z "},"Ŷ":{"ha":894,"x_min":147,"x_max":969,"o":"m 324 0 q 302 9 310 0 q 297 32 294 18 l 367 360 l 153 926 q 158 958 147 943 q 186 972 168 972 l 251 972 q 272 966 264 972 q 283 949 279 960 l 456 501 l 817 949 q 834 966 824 960 q 858 972 844 972 l 944 972 q 968 957 967 972 q 958 926 969 942 l 503 360 l 433 32 q 420 9 431 18 q 394 0 410 0 l 324 0 m 344 1042 q 329 1057 328 1042 q 342 1078 329 1068 l 504 1213 q 533 1231 522 1228 q 554 1233 543 1233 l 599 1233 q 620 1231 611 1233 q 640 1213 629 1228 l 746 1079 q 750 1058 753 1069 q 728 1042 747 1042 l 689 1042 q 674 1044 681 1042 q 660 1051 667 1047 l 565 1131 l 436 1051 q 421 1044 428 1047 q 404 1042 414 1042 l 344 1042 z "},"Ÿ":{"ha":894,"x_min":147,"x_max":969,"o":"m 324 0 q 302 9 310 0 q 297 32 294 18 l 367 360 l 153 926 q 158 958 147 943 q 186 972 168 972 l 251 972 q 272 966 264 972 q 283 949 279 960 l 456 501 l 817 949 q 834 966 824 960 q 858 972 844 972 l 944 972 q 968 957 967 972 q 958 926 969 942 l 503 360 l 433 32 q 420 9 431 18 q 394 0 410 0 l 324 0 m 643 1042 q 623 1050 629 1042 q 619 1072 617 1058 l 636 1147 q 649 1170 639 1161 q 674 1179 660 1179 l 749 1179 q 769 1170 763 1179 q 774 1147 776 1161 l 757 1072 q 743 1050 754 1058 q 718 1042 732 1042 l 643 1042 m 367 1042 q 347 1050 353 1042 q 343 1072 340 1058 l 358 1147 q 372 1170 361 1161 q 397 1179 382 1179 l 472 1179 q 493 1170 486 1179 q 497 1147 500 1161 l 481 1072 q 467 1050 478 1058 q 442 1042 456 1042 l 367 1042 z "},"Ỳ":{"ha":894,"x_min":147,"x_max":969,"o":"m 324 0 q 302 9 310 0 q 297 32 294 18 l 367 360 l 153 926 q 158 958 147 943 q 186 972 168 972 l 251 972 q 272 966 264 972 q 283 949 279 960 l 456 501 l 817 949 q 834 966 824 960 q 858 972 844 972 l 944 972 q 968 957 967 972 q 958 926 969 942 l 503 360 l 433 32 q 420 9 431 18 q 394 0 410 0 l 324 0 m 532 1042 q 508 1044 517 1042 q 489 1057 499 1047 l 358 1186 q 353 1207 350 1194 q 385 1233 358 1233 l 485 1233 q 513 1228 506 1233 q 531 1207 521 1222 l 608 1082 q 611 1064 614 1072 q 585 1042 606 1042 l 532 1042 z "},"Z":{"ha":828,"x_min":-29,"x_max":876,"o":"m 0 0 q -22 10 -14 0 q -26 33 -29 19 l -12 93 q 3 126 -7 114 q 18 144 13 139 l 675 851 l 193 851 q 172 860 179 851 q 168 883 165 869 l 179 939 q 193 963 182 954 q 218 972 204 972 l 847 972 q 869 963 863 972 q 874 939 876 954 l 861 879 q 849 851 858 863 q 832 831 840 840 l 176 121 l 681 121 q 703 112 696 121 q 707 88 710 103 l 694 32 q 682 9 692 18 q 657 0 672 0 l 0 0 z "},"Ź":{"ha":828,"x_min":-29,"x_max":876,"o":"m 0 0 q -22 10 -14 0 q -26 33 -29 19 l -12 93 q 3 126 -7 114 q 18 144 13 139 l 675 851 l 193 851 q 172 860 179 851 q 168 883 165 869 l 179 939 q 193 963 182 954 q 218 972 204 972 l 847 972 q 869 963 863 972 q 874 939 876 954 l 861 879 q 849 851 858 863 q 832 831 840 840 l 176 121 l 681 121 q 703 112 696 121 q 707 88 710 103 l 694 32 q 682 9 692 18 q 657 0 672 0 l 0 0 m 506 1042 q 486 1060 486 1042 q 497 1079 488 1071 l 631 1207 q 656 1228 644 1222 q 688 1233 667 1233 l 790 1233 q 807 1226 801 1233 q 811 1211 813 1219 q 800 1189 811 1197 l 610 1057 q 586 1044 596 1047 q 561 1042 576 1042 l 506 1042 z "},"Ž":{"ha":828,"x_min":-29,"x_max":876,"o":"m 0 0 q -22 10 -14 0 q -26 33 -29 19 l -12 93 q 3 126 -7 114 q 18 144 13 139 l 675 851 l 193 851 q 172 860 179 851 q 168 883 165 869 l 179 939 q 193 963 182 954 q 218 972 204 972 l 847 972 q 869 963 863 972 q 874 939 876 954 l 861 879 q 849 851 858 863 q 832 831 840 840 l 176 121 l 681 121 q 703 112 696 121 q 707 88 710 103 l 694 32 q 682 9 692 18 q 657 0 672 0 l 0 0 m 525 1042 q 504 1045 514 1042 q 483 1063 494 1049 l 379 1196 q 374 1217 371 1206 q 396 1233 376 1233 l 435 1233 q 451 1231 444 1233 q 464 1224 458 1228 l 558 1144 l 688 1224 q 703 1231 696 1228 q 719 1233 711 1233 l 779 1233 q 794 1217 796 1233 q 782 1197 794 1207 l 619 1063 q 592 1045 603 1049 q 569 1042 582 1042 l 525 1042 z "},"Ż":{"ha":828,"x_min":-29,"x_max":876,"o":"m 0 0 q -22 10 -14 0 q -26 33 -29 19 l -12 93 q 3 126 -7 114 q 18 144 13 139 l 675 851 l 193 851 q 172 860 179 851 q 168 883 165 869 l 179 939 q 193 963 182 954 q 218 972 204 972 l 847 972 q 869 963 863 972 q 874 939 876 954 l 861 879 q 849 851 858 863 q 832 831 840 840 l 176 121 l 681 121 q 703 112 696 121 q 707 88 710 103 l 694 32 q 682 9 692 18 q 657 0 672 0 l 0 0 m 501 1042 q 481 1050 488 1042 q 478 1072 475 1058 l 497 1163 q 510 1185 500 1176 q 535 1194 521 1194 l 624 1194 q 644 1185 638 1194 q 649 1163 651 1176 l 631 1072 q 617 1050 628 1058 q 592 1042 606 1042 l 501 1042 z "},"a":{"ha":814,"x_min":40,"x_max":772,"o":"m 282 -14 q 156 13 206 -14 q 79 87 106 40 q 47 193 53 133 q 50 319 40 253 q 58 361 54 342 q 68 403 63 381 q 113 527 85 468 q 183 634 140 586 q 285 709 225 682 q 426 736 346 736 q 560 706 515 736 q 631 633 606 676 l 642 690 q 655 713 644 704 q 681 722 665 722 l 743 722 q 765 713 757 722 q 769 690 772 704 l 629 32 q 616 9 626 18 q 592 0 606 0 l 528 0 q 507 9 514 0 q 503 32 500 18 l 515 90 q 422 16 472 46 q 282 -14 371 -14 m 311 99 q 431 131 381 99 q 514 212 482 163 q 558 313 546 261 q 570 366 564 335 q 581 419 576 397 q 583 515 592 468 q 540 593 574 563 q 438 624 506 624 q 326 592 372 624 q 249 510 279 561 q 201 401 219 460 q 192 361 196 381 q 185 321 188 342 q 181 212 176 263 q 215 130 185 161 q 311 99 246 99 z "},"á":{"ha":814,"x_min":40,"x_max":772,"o":"m 282 -14 q 156 13 206 -14 q 79 87 106 40 q 47 193 53 133 q 50 319 40 253 q 58 361 54 342 q 68 403 63 381 q 113 527 85 468 q 183 634 140 586 q 285 709 225 682 q 426 736 346 736 q 560 706 515 736 q 631 633 606 676 l 642 690 q 655 713 644 704 q 681 722 665 722 l 743 722 q 765 713 757 722 q 769 690 772 704 l 629 32 q 616 9 626 18 q 592 0 606 0 l 528 0 q 507 9 514 0 q 503 32 500 18 l 515 90 q 422 16 472 46 q 282 -14 371 -14 m 311 99 q 431 131 381 99 q 514 212 482 163 q 558 313 546 261 q 570 366 564 335 q 581 419 576 397 q 583 515 592 468 q 540 593 574 563 q 438 624 506 624 q 326 592 372 624 q 249 510 279 561 q 201 401 219 460 q 192 361 196 381 q 185 321 188 342 q 181 212 176 263 q 215 130 185 161 q 311 99 246 99 m 428 826 q 411 849 406 826 q 422 867 414 858 l 553 992 q 580 1013 569 1007 q 610 1018 590 1018 l 706 1018 q 726 996 726 1018 q 715 974 725 981 l 525 842 q 501 829 511 832 q 476 826 492 826 l 428 826 z "},"ă":{"ha":814,"x_min":40,"x_max":772,"o":"m 282 -14 q 156 13 206 -14 q 79 87 106 40 q 47 193 53 133 q 50 319 40 253 q 58 361 54 342 q 68 403 63 381 q 113 527 85 468 q 183 634 140 586 q 285 709 225 682 q 426 736 346 736 q 560 706 515 736 q 631 633 606 676 l 642 690 q 655 713 644 704 q 681 722 665 722 l 743 722 q 765 713 757 722 q 769 690 772 704 l 629 32 q 616 9 626 18 q 592 0 606 0 l 528 0 q 507 9 514 0 q 503 32 500 18 l 515 90 q 422 16 472 46 q 282 -14 371 -14 m 311 99 q 431 131 381 99 q 514 212 482 163 q 558 313 546 261 q 570 366 564 335 q 581 419 576 397 q 583 515 592 468 q 540 593 574 563 q 438 624 506 624 q 326 592 372 624 q 249 510 279 561 q 201 401 219 460 q 192 361 196 381 q 185 321 188 342 q 181 212 176 263 q 215 130 185 161 q 311 99 246 99 m 489 819 q 394 844 429 819 q 348 908 360 868 q 346 992 336 947 q 357 1010 349 1003 q 378 1018 365 1018 l 419 1018 q 438 1010 432 1018 q 440 992 443 1003 q 442 931 433 958 q 493 903 450 903 q 560 931 539 903 q 589 992 581 958 q 600 1010 592 1003 q 621 1018 608 1018 l 663 1018 q 681 1010 675 1018 q 683 992 686 1003 q 654 908 675 947 q 594 844 633 868 q 489 819 554 819 z "},"â":{"ha":814,"x_min":40,"x_max":772,"o":"m 282 -14 q 156 13 206 -14 q 79 87 106 40 q 47 193 53 133 q 50 319 40 253 q 58 361 54 342 q 68 403 63 381 q 113 527 85 468 q 183 634 140 586 q 285 709 225 682 q 426 736 346 736 q 560 706 515 736 q 631 633 606 676 l 642 690 q 655 713 644 704 q 681 722 665 722 l 743 722 q 765 713 757 722 q 769 690 772 704 l 629 32 q 616 9 626 18 q 592 0 606 0 l 528 0 q 507 9 514 0 q 503 32 500 18 l 515 90 q 422 16 472 46 q 282 -14 371 -14 m 311 99 q 431 131 381 99 q 514 212 482 163 q 558 313 546 261 q 570 366 564 335 q 581 419 576 397 q 583 515 592 468 q 540 593 574 563 q 438 624 506 624 q 326 592 372 624 q 249 510 279 561 q 201 401 219 460 q 192 361 196 381 q 185 321 188 342 q 181 212 176 263 q 215 130 185 161 q 311 99 246 99 m 281 826 q 265 842 264 826 q 278 863 265 853 l 440 997 q 469 1015 458 1013 q 490 1018 479 1018 l 532 1018 q 553 1015 544 1018 q 574 997 563 1013 l 679 864 q 683 843 686 854 q 663 826 681 826 l 624 826 q 608 829 615 826 q 594 836 601 832 l 500 915 l 371 836 q 356 829 363 832 q 339 826 349 826 l 281 826 z "},"ä":{"ha":814,"x_min":40,"x_max":772,"o":"m 282 -14 q 156 13 206 -14 q 79 87 106 40 q 47 193 53 133 q 50 319 40 253 q 58 361 54 342 q 68 403 63 381 q 113 527 85 468 q 183 634 140 586 q 285 709 225 682 q 426 736 346 736 q 560 706 515 736 q 631 633 606 676 l 642 690 q 655 713 644 704 q 681 722 665 722 l 743 722 q 765 713 757 722 q 769 690 772 704 l 629 32 q 616 9 626 18 q 592 0 606 0 l 528 0 q 507 9 514 0 q 503 32 500 18 l 515 90 q 422 16 472 46 q 282 -14 371 -14 m 311 99 q 431 131 381 99 q 514 212 482 163 q 558 313 546 261 q 570 366 564 335 q 581 419 576 397 q 583 515 592 468 q 540 593 574 563 q 438 624 506 624 q 326 592 372 624 q 249 510 279 561 q 201 401 219 460 q 192 361 196 381 q 185 321 188 342 q 181 212 176 263 q 215 130 185 161 q 311 99 246 99 m 565 863 q 545 871 551 863 q 540 893 539 879 l 557 968 q 570 991 560 982 q 594 1000 581 1000 l 669 1000 q 691 991 683 1000 q 696 968 699 982 l 678 893 q 665 871 675 879 q 640 863 654 863 l 565 863 m 331 863 q 310 871 317 863 q 306 893 304 879 l 322 968 q 335 991 325 982 q 360 1000 346 1000 l 435 1000 q 456 991 449 1000 q 461 968 464 982 l 443 893 q 430 871 440 879 q 406 863 419 863 l 331 863 z "},"à":{"ha":814,"x_min":40,"x_max":772,"o":"m 282 -14 q 156 13 206 -14 q 79 87 106 40 q 47 193 53 133 q 50 319 40 253 q 58 361 54 342 q 68 403 63 381 q 113 527 85 468 q 183 634 140 586 q 285 709 225 682 q 426 736 346 736 q 560 706 515 736 q 631 633 606 676 l 642 690 q 655 713 644 704 q 681 722 665 722 l 743 722 q 765 713 757 722 q 769 690 772 704 l 629 32 q 616 9 626 18 q 592 0 606 0 l 528 0 q 507 9 514 0 q 503 32 500 18 l 515 90 q 422 16 472 46 q 282 -14 371 -14 m 311 99 q 431 131 381 99 q 514 212 482 163 q 558 313 546 261 q 570 366 564 335 q 581 419 576 397 q 583 515 592 468 q 540 593 574 563 q 438 624 506 624 q 326 592 372 624 q 249 510 279 561 q 201 401 219 460 q 192 361 196 381 q 185 321 188 342 q 181 212 176 263 q 215 130 185 161 q 311 99 246 99 m 472 826 q 448 829 457 826 q 429 842 439 832 l 299 971 q 293 992 290 981 q 322 1018 299 1018 l 422 1018 q 451 1013 442 1018 q 468 992 460 1007 l 544 869 q 547 847 550 858 q 521 826 543 826 l 472 826 z "},"ā":{"ha":814,"x_min":40,"x_max":772,"o":"m 282 -14 q 156 13 206 -14 q 79 87 106 40 q 47 193 53 133 q 50 319 40 253 q 58 361 54 342 q 68 403 63 381 q 113 527 85 468 q 183 634 140 586 q 285 709 225 682 q 426 736 346 736 q 560 706 515 736 q 631 633 606 676 l 642 690 q 655 713 644 704 q 681 722 665 722 l 743 722 q 765 713 757 722 q 769 690 772 704 l 629 32 q 616 9 626 18 q 592 0 606 0 l 528 0 q 507 9 514 0 q 503 32 500 18 l 515 90 q 422 16 472 46 q 282 -14 371 -14 m 311 99 q 431 131 381 99 q 514 212 482 163 q 558 313 546 261 q 570 366 564 335 q 581 419 576 397 q 583 515 592 468 q 540 593 574 563 q 438 624 506 624 q 326 592 372 624 q 249 510 279 561 q 201 401 219 460 q 192 361 196 381 q 185 321 188 342 q 181 212 176 263 q 215 130 185 161 q 311 99 246 99 m 329 857 q 309 865 315 857 q 304 888 303 874 l 314 931 q 327 953 317 944 q 351 961 338 961 l 661 961 q 681 953 675 961 q 685 931 688 944 l 675 888 q 663 865 674 874 q 639 857 653 857 l 329 857 z "},"ą":{"ha":813,"x_min":40,"x_max":772,"o":"m 525 -306 q 426 -266 463 -306 q 389 -164 389 -226 q 406 -80 389 -122 q 461 1 424 -37 q 558 69 499 39 l 551 0 l 528 0 q 508 7 517 0 q 503 31 499 14 l 515 90 q 422 16 472 46 q 282 -14 371 -14 q 153 14 204 -14 q 77 89 103 42 q 46 196 51 136 q 50 319 40 256 q 58 361 54 342 q 68 403 63 381 q 113 527 85 468 q 183 634 140 586 q 285 709 225 682 q 426 736 346 736 q 560 706 515 736 q 631 633 606 676 l 642 690 q 655 713 644 704 q 681 722 665 722 l 743 722 q 765 713 757 722 q 769 690 772 704 l 629 28 q 622 7 628 17 q 604 -7 615 -3 l 597 -8 q 524 -59 556 -24 q 492 -149 492 -94 q 507 -194 492 -179 q 551 -210 522 -210 l 560 -210 q 581 -219 574 -210 q 585 -242 588 -228 l 578 -274 q 564 -297 575 -287 q 538 -306 553 -306 l 525 -306 m 311 99 q 431 131 381 99 q 514 212 482 163 q 558 313 546 261 q 570 366 564 335 q 581 419 576 397 q 586 488 589 451 q 568 554 583 524 q 522 604 553 585 q 438 624 490 624 q 326 592 372 624 q 249 510 279 561 q 201 401 219 460 q 192 361 196 381 q 185 321 188 342 q 179 241 179 281 q 191 169 179 201 q 231 117 203 136 q 311 99 260 99 z "},"å":{"ha":814,"x_min":40,"x_max":772,"o":"m 282 -14 q 156 13 206 -14 q 79 87 106 40 q 47 193 53 133 q 50 319 40 253 q 58 361 54 342 q 68 403 63 381 q 113 527 85 468 q 183 634 140 586 q 285 709 225 682 q 426 736 346 736 q 560 706 515 736 q 631 633 606 676 l 642 690 q 655 713 644 704 q 681 722 665 722 l 743 722 q 765 713 757 722 q 769 690 772 704 l 629 32 q 616 9 626 18 q 592 0 606 0 l 528 0 q 507 9 514 0 q 503 32 500 18 l 515 90 q 422 16 472 46 q 282 -14 371 -14 m 311 99 q 431 131 381 99 q 514 212 482 163 q 558 313 546 261 q 570 366 564 335 q 581 419 576 397 q 583 515 592 468 q 540 593 574 563 q 438 624 506 624 q 326 592 372 624 q 249 510 279 561 q 201 401 219 460 q 192 361 196 381 q 185 321 188 342 q 181 212 176 263 q 215 130 185 161 q 311 99 246 99 m 479 819 q 401 851 431 819 q 382 929 372 882 q 433 1008 394 976 q 518 1039 471 1039 q 597 1008 567 1039 q 615 929 626 976 q 566 849 606 879 q 479 819 526 819 m 486 888 q 522 899 507 888 q 540 929 536 911 q 537 959 544 947 q 511 971 529 971 q 476 959 490 971 q 457 929 461 947 q 461 899 453 911 q 486 888 469 888 z "},"ã":{"ha":814,"x_min":40,"x_max":772,"o":"m 282 -14 q 156 13 206 -14 q 79 87 106 40 q 47 193 53 133 q 50 319 40 253 q 58 361 54 342 q 68 403 63 381 q 113 527 85 468 q 183 634 140 586 q 285 709 225 682 q 426 736 346 736 q 560 706 515 736 q 631 633 606 676 l 642 690 q 655 713 644 704 q 681 722 665 722 l 743 722 q 765 713 757 722 q 769 690 772 704 l 629 32 q 616 9 626 18 q 592 0 606 0 l 528 0 q 507 9 514 0 q 503 32 500 18 l 515 90 q 422 16 472 46 q 282 -14 371 -14 m 311 99 q 431 131 381 99 q 514 212 482 163 q 558 313 546 261 q 570 366 564 335 q 581 419 576 397 q 583 515 592 468 q 540 593 574 563 q 438 624 506 624 q 326 592 372 624 q 249 510 279 561 q 201 401 219 460 q 192 361 196 381 q 185 321 188 342 q 181 212 176 263 q 215 130 185 161 q 311 99 246 99 m 558 819 q 506 831 525 819 q 470 855 486 843 q 433 867 454 867 q 406 857 417 867 q 385 837 394 847 q 360 826 375 826 l 315 826 q 301 833 306 826 q 297 849 296 840 q 311 891 300 869 q 340 931 322 913 q 382 961 358 950 q 433 972 406 972 q 488 960 468 972 q 524 937 508 949 q 560 925 539 925 q 588 935 578 925 q 606 956 597 946 q 631 967 615 967 l 675 967 q 691 960 686 967 q 694 943 696 953 q 679 901 690 924 q 651 860 668 879 q 610 831 633 842 q 558 819 586 819 z "},"æ":{"ha":1238,"x_min":15,"x_max":1200,"o":"m 240 -14 q 110 14 163 -14 q 37 89 58 42 q 28 196 15 136 q 138 350 47 292 q 357 426 228 408 l 569 456 l 576 493 q 560 597 590 560 q 446 635 531 635 q 365 621 400 635 q 305 588 329 607 q 267 549 281 568 q 252 531 260 536 q 235 525 244 525 l 175 525 q 156 534 163 525 q 150 556 149 543 q 176 607 154 576 q 238 667 199 638 q 335 716 278 696 q 468 736 393 736 q 619 705 568 736 q 686 628 669 674 q 798 706 733 675 q 946 736 863 736 q 1074 713 1024 736 q 1151 652 1124 690 q 1190 567 1179 614 q 1197 469 1200 519 q 1185 374 1194 419 l 1181 350 q 1166 326 1178 335 q 1140 318 1154 318 l 672 318 l 669 306 q 672 179 654 226 q 727 110 690 132 q 806 89 764 89 q 901 108 853 89 q 988 168 950 126 q 1011 188 1003 183 q 1035 192 1019 192 l 1097 192 q 1117 184 1111 192 q 1121 163 1124 176 q 1092 116 1117 146 q 1024 57 1068 86 q 920 7 981 28 q 785 -14 860 -14 q 631 25 686 -14 q 551 126 575 64 q 414 20 493 54 q 240 -14 335 -14 m 286 90 q 395 115 343 90 q 486 190 447 139 q 540 319 525 242 l 549 358 l 382 335 q 224 288 281 321 q 157 206 167 256 q 165 141 149 167 q 215 103 182 115 q 286 90 247 90 m 693 414 l 1061 414 l 1063 419 q 1065 531 1075 482 q 1022 607 1056 579 q 924 635 988 635 q 831 612 878 635 q 748 541 785 589 q 693 419 711 493 l 693 414 z "},"ǽ":{"ha":1238,"x_min":15,"x_max":1200,"o":"m 240 -14 q 110 14 163 -14 q 37 89 58 42 q 28 196 15 136 q 138 350 47 292 q 357 426 228 408 l 569 456 l 576 493 q 560 597 590 560 q 446 635 531 635 q 365 621 400 635 q 305 588 329 607 q 267 549 281 568 q 252 531 260 536 q 235 525 244 525 l 175 525 q 156 534 163 525 q 150 556 149 543 q 176 607 154 576 q 238 667 199 638 q 335 716 278 696 q 468 736 393 736 q 619 705 568 736 q 686 628 669 674 q 798 706 733 675 q 946 736 863 736 q 1074 713 1024 736 q 1151 652 1124 690 q 1190 567 1179 614 q 1197 469 1200 519 q 1185 374 1194 419 l 1181 350 q 1166 326 1178 335 q 1140 318 1154 318 l 672 318 l 669 306 q 672 179 654 226 q 727 110 690 132 q 806 89 764 89 q 901 108 853 89 q 988 168 950 126 q 1011 188 1003 183 q 1035 192 1019 192 l 1097 192 q 1117 184 1111 192 q 1121 163 1124 176 q 1092 116 1117 146 q 1024 57 1068 86 q 920 7 981 28 q 785 -14 860 -14 q 631 25 686 -14 q 551 126 575 64 q 414 20 493 54 q 240 -14 335 -14 m 286 90 q 395 115 343 90 q 486 190 447 139 q 540 319 525 242 l 549 358 l 382 335 q 224 288 281 321 q 157 206 167 256 q 165 141 149 167 q 215 103 182 115 q 286 90 247 90 m 693 414 l 1061 414 l 1063 419 q 1065 531 1075 482 q 1022 607 1056 579 q 924 635 988 635 q 831 612 878 635 q 748 541 785 589 q 693 419 711 493 l 693 414 m 678 826 q 661 849 656 826 q 672 867 664 858 l 803 992 q 830 1013 819 1007 q 860 1018 840 1018 l 956 1018 q 976 996 976 1018 q 965 974 975 981 l 775 842 q 751 829 761 832 q 726 826 742 826 l 678 826 z "},"b":{"ha":826,"x_min":21,"x_max":767,"o":"m 375 -14 q 240 16 292 -14 q 164 90 188 46 l 151 32 q 138 9 149 18 q 113 0 126 0 l 49 0 q 28 9 35 0 q 24 32 21 18 l 219 954 q 233 977 222 968 q 258 986 244 986 l 326 986 q 347 977 340 986 q 350 954 353 968 l 283 635 q 381 707 326 678 q 515 736 435 736 q 644 709 593 736 q 724 637 696 682 q 759 533 751 592 q 756 408 767 474 q 747 361 753 386 q 735 314 742 336 q 668 152 714 226 q 550 32 622 78 q 375 -14 478 -14 m 361 99 q 478 130 431 99 q 556 213 525 161 q 604 321 588 264 q 615 361 611 342 q 621 401 619 381 q 625 510 631 460 q 589 592 619 561 q 486 624 558 624 q 367 593 419 624 q 283 515 315 563 q 236 419 250 468 q 224 366 231 397 q 215 313 218 335 q 215 212 206 261 q 258 131 224 163 q 361 99 292 99 z "},"c":{"ha":765,"x_min":31,"x_max":728,"o":"m 313 -14 q 154 24 219 -14 q 60 134 89 63 q 49 306 31 206 q 60 361 53 326 q 72 417 67 396 q 205 651 108 567 q 453 736 301 736 q 589 713 535 736 q 674 653 643 690 q 717 576 706 617 q 724 500 728 536 q 713 477 722 486 q 690 468 704 468 l 618 468 q 597 475 604 468 q 589 497 589 482 q 552 596 590 565 q 447 626 514 626 q 298 575 365 626 q 203 410 231 524 q 192 360 197 388 q 182 313 186 333 q 200 147 163 197 q 321 96 238 96 q 440 124 385 96 q 529 219 494 151 q 547 242 539 236 q 568 249 554 249 l 639 249 q 659 240 653 249 q 661 217 665 231 q 626 142 651 182 q 559 66 601 101 q 456 8 517 31 q 313 -14 394 -14 z "},"ć":{"ha":765,"x_min":31,"x_max":728,"o":"m 313 -14 q 154 24 219 -14 q 60 134 89 63 q 49 306 31 206 q 60 361 53 326 q 72 417 67 396 q 205 651 108 567 q 453 736 301 736 q 589 713 535 736 q 674 653 643 690 q 717 576 706 617 q 724 500 728 536 q 713 477 722 486 q 690 468 704 468 l 618 468 q 597 475 604 468 q 589 497 589 482 q 552 596 590 565 q 447 626 514 626 q 298 575 365 626 q 203 410 231 524 q 192 360 197 388 q 182 313 186 333 q 200 147 163 197 q 321 96 238 96 q 440 124 385 96 q 529 219 494 151 q 547 242 539 236 q 568 249 554 249 l 639 249 q 659 240 653 249 q 661 217 665 231 q 626 142 651 182 q 559 66 601 101 q 456 8 517 31 q 313 -14 394 -14 m 426 826 q 410 849 404 826 q 421 867 413 858 l 551 992 q 578 1013 568 1007 q 608 1018 589 1018 l 704 1018 q 725 996 725 1018 q 714 974 724 981 l 524 842 q 500 829 510 832 q 475 826 490 826 l 426 826 z "},"č":{"ha":765,"x_min":31,"x_max":728,"o":"m 313 -14 q 154 24 219 -14 q 60 134 89 63 q 49 306 31 206 q 60 361 53 326 q 72 417 67 396 q 205 651 108 567 q 453 736 301 736 q 589 713 535 736 q 674 653 643 690 q 717 576 706 617 q 724 500 728 536 q 713 477 722 486 q 690 468 704 468 l 618 468 q 597 475 604 468 q 589 497 589 482 q 552 596 590 565 q 447 626 514 626 q 298 575 365 626 q 203 410 231 524 q 192 360 197 388 q 182 313 186 333 q 200 147 163 197 q 321 96 238 96 q 440 124 385 96 q 529 219 494 151 q 547 242 539 236 q 568 249 554 249 l 639 249 q 659 240 653 249 q 661 217 665 231 q 626 142 651 182 q 559 66 601 101 q 456 8 517 31 q 313 -14 394 -14 m 457 826 q 436 830 446 826 q 415 847 426 833 l 311 981 q 304 997 304 990 q 313 1013 306 1007 q 328 1018 319 1018 l 365 1018 q 382 1015 375 1018 q 394 1008 389 1013 l 489 929 l 618 1008 q 634 1015 626 1013 q 650 1018 642 1018 l 708 1018 q 724 1001 725 1018 q 711 982 724 992 l 550 847 q 522 830 532 833 q 499 826 511 826 l 457 826 z "},"ç":{"ha":765,"x_min":33,"x_max":728,"o":"m 261 -306 q 191 -292 222 -306 q 147 -262 160 -279 q 150 -235 135 -246 l 174 -215 q 194 -212 186 -206 q 217 -227 203 -218 q 261 -236 231 -236 q 303 -222 285 -236 q 328 -185 322 -208 q 319 -149 333 -162 q 282 -136 306 -136 q 247 -142 263 -136 q 219 -149 231 -147 q 200 -140 207 -151 l 181 -114 q 181 -94 175 -106 q 194 -71 188 -82 l 236 -7 q 119 49 167 8 q 52 156 71 90 q 49 306 33 221 q 60 361 53 326 q 72 417 67 396 q 205 651 108 567 q 453 736 301 736 q 589 713 535 736 q 674 653 643 690 q 717 576 706 617 q 724 500 728 536 q 713 477 722 486 q 690 468 704 468 l 618 468 q 597 475 604 468 q 589 497 589 482 q 552 596 590 565 q 447 626 514 626 q 298 575 365 626 q 203 410 231 524 q 192 360 197 388 q 182 313 186 333 q 200 147 163 197 q 321 96 238 96 q 440 124 385 96 q 529 219 494 151 q 547 242 539 236 q 568 249 554 249 l 639 249 q 659 240 653 249 q 661 217 665 231 q 626 142 651 182 q 559 67 601 101 q 456 9 517 32 q 314 -14 396 -14 l 269 -76 q 294 -69 279 -71 q 322 -67 308 -67 q 390 -101 365 -67 q 403 -187 414 -136 q 358 -272 393 -239 q 261 -306 322 -306 z "},"ĉ":{"ha":765,"x_min":31,"x_max":728,"o":"m 313 -14 q 154 24 219 -14 q 60 134 89 63 q 49 306 31 206 q 60 361 53 326 q 72 417 67 396 q 205 651 108 567 q 453 736 301 736 q 589 713 535 736 q 674 653 643 690 q 717 576 706 617 q 724 500 728 536 q 713 477 722 486 q 690 468 704 468 l 618 468 q 597 475 604 468 q 589 497 589 482 q 552 596 590 565 q 447 626 514 626 q 298 575 365 626 q 203 410 231 524 q 192 360 197 388 q 182 313 186 333 q 200 147 163 197 q 321 96 238 96 q 440 124 385 96 q 529 219 494 151 q 547 242 539 236 q 568 249 554 249 l 639 249 q 659 240 653 249 q 661 217 665 231 q 626 142 651 182 q 559 66 601 101 q 456 8 517 31 q 313 -14 394 -14 m 279 826 q 264 842 263 826 q 276 863 264 853 l 439 997 q 467 1015 457 1013 q 489 1018 478 1018 l 531 1018 q 552 1015 543 1018 q 572 997 561 1013 l 678 864 q 682 843 685 854 q 661 826 679 826 l 622 826 q 607 829 614 826 q 593 836 600 832 l 499 915 l 369 836 q 354 829 361 832 q 338 826 347 826 l 279 826 z "},"ċ":{"ha":765,"x_min":31,"x_max":728,"o":"m 313 -14 q 154 24 219 -14 q 60 134 89 63 q 49 306 31 206 q 60 361 53 326 q 72 417 67 396 q 205 651 108 567 q 453 736 301 736 q 589 713 535 736 q 674 653 643 690 q 717 576 706 617 q 724 500 728 536 q 713 477 722 486 q 690 468 704 468 l 618 468 q 597 475 604 468 q 589 497 589 482 q 552 596 590 565 q 447 626 514 626 q 298 575 365 626 q 203 410 231 524 q 192 360 197 388 q 182 313 186 333 q 200 147 163 197 q 321 96 238 96 q 440 124 385 96 q 529 219 494 151 q 547 242 539 236 q 568 249 554 249 l 639 249 q 659 240 653 249 q 661 217 665 231 q 626 142 651 182 q 559 66 601 101 q 456 8 517 31 q 313 -14 394 -14 m 433 851 q 413 860 419 851 q 408 882 406 868 l 428 971 q 441 994 431 985 q 465 1003 451 1003 l 553 1003 q 574 994 567 1003 q 579 971 582 985 l 560 882 q 547 860 557 868 q 522 851 536 851 l 433 851 z "},"d":{"ha":825,"x_min":39,"x_max":839,"o":"m 288 -14 q 160 13 211 -14 q 81 87 108 40 q 46 193 53 133 q 49 319 39 253 q 57 361 53 342 q 67 403 61 381 q 113 527 83 468 q 185 634 142 586 q 288 709 228 682 q 428 736 349 736 q 563 707 514 736 q 636 635 613 678 l 706 954 q 719 977 708 968 q 743 986 729 986 l 810 986 q 832 977 825 986 q 836 954 839 968 l 640 32 q 627 9 638 18 q 601 0 617 0 l 539 0 q 517 9 525 0 q 513 32 510 18 l 525 90 q 428 16 482 46 q 288 -14 375 -14 m 317 99 q 438 131 385 99 q 523 212 490 163 q 568 313 556 261 q 581 366 575 335 q 592 419 588 397 q 591 515 601 468 q 545 593 581 563 q 443 624 510 624 q 328 592 376 624 q 249 510 281 561 q 200 401 218 460 q 190 361 194 381 q 183 321 186 342 q 181 212 175 263 q 219 130 188 161 q 317 99 250 99 z "},"ð":{"ha":788,"x_min":46,"x_max":817,"o":"m 319 -14 q 153 28 215 -14 q 68 147 90 71 q 68 321 46 222 q 142 494 89 419 q 277 611 196 569 q 461 653 358 653 q 543 642 507 653 q 604 608 579 631 q 588 690 600 653 q 556 761 575 728 l 406 707 q 386 703 393 703 q 369 709 375 703 q 365 728 364 715 l 371 757 q 383 781 374 774 q 410 794 392 789 l 507 829 q 468 872 489 850 q 425 914 447 893 q 411 932 414 925 q 410 944 408 939 q 422 965 413 957 q 443 972 431 972 l 515 972 q 545 967 533 972 q 565 954 557 963 q 602 915 585 935 q 635 874 619 894 l 774 924 q 793 928 786 928 q 810 922 804 928 q 814 903 817 915 l 808 874 q 797 851 806 858 q 769 836 789 843 l 682 806 q 739 618 726 728 q 717 338 751 508 q 715 327 715 332 q 713 317 714 322 q 638 144 692 219 q 504 28 585 69 q 319 -14 424 -14 m 342 93 q 453 122 406 93 q 533 201 501 151 q 579 310 565 250 q 581 319 581 315 q 583 329 581 324 q 585 438 596 389 q 540 517 575 488 q 439 546 504 546 q 326 517 375 546 q 247 438 278 488 q 203 329 217 389 q 200 318 201 322 q 199 308 199 314 q 198 200 188 249 q 244 122 208 151 q 342 93 279 93 z "},"ď":{"ha":869,"x_min":39,"x_max":1085,"o":"m 288 -14 q 160 13 211 -14 q 81 87 108 40 q 46 193 53 133 q 49 319 39 253 q 57 361 53 342 q 67 403 61 381 q 113 527 83 468 q 185 634 142 586 q 288 709 228 682 q 428 736 349 736 q 563 707 514 736 q 636 635 613 678 l 706 954 q 719 977 708 968 q 743 986 729 986 l 810 986 q 832 977 825 986 q 836 954 839 968 l 640 32 q 627 9 638 18 q 601 0 617 0 l 539 0 q 517 9 525 0 q 513 32 510 18 l 525 90 q 428 16 482 46 q 288 -14 375 -14 m 317 99 q 438 131 385 99 q 523 212 490 163 q 568 313 556 261 q 581 366 575 335 q 592 419 588 397 q 591 515 601 468 q 545 593 581 563 q 443 624 510 624 q 328 592 376 624 q 249 510 281 561 q 200 401 218 460 q 190 361 194 381 q 183 321 186 342 q 181 212 175 263 q 219 130 188 161 q 317 99 250 99 m 886 754 q 870 763 874 754 q 869 783 867 771 l 929 946 q 947 974 936 963 q 978 986 958 986 l 1065 986 q 1080 978 1075 986 q 1082 963 1085 971 q 1078 951 1081 957 q 1072 940 1076 946 l 981 786 q 961 763 971 772 q 933 754 951 754 l 886 754 z "},"đ":{"ha":826,"x_min":40,"x_max":924,"o":"m 276 -14 q 140 16 190 -14 q 67 95 90 46 q 42 203 44 144 q 51 319 40 263 q 59 361 54 342 q 69 403 64 381 q 110 518 83 460 q 181 626 136 576 q 288 706 225 676 q 436 736 350 736 q 565 707 517 736 q 639 635 614 678 l 671 788 l 599 788 q 578 796 585 788 q 574 819 571 804 l 579 849 q 592 872 582 863 q 618 881 603 881 l 690 881 l 707 954 q 720 977 710 968 q 744 986 731 986 l 813 986 q 834 977 826 986 q 839 954 842 968 l 822 881 l 894 881 q 917 872 910 881 q 921 849 924 863 l 915 819 q 901 796 913 804 q 876 788 890 788 l 803 788 l 642 32 q 628 9 639 18 q 604 0 618 0 l 540 0 q 519 9 526 0 q 514 32 511 18 l 528 93 q 422 17 485 47 q 276 -14 360 -14 m 329 99 q 448 131 399 99 q 528 212 497 163 q 571 313 558 261 q 583 366 576 335 q 593 419 589 397 q 592 515 603 468 q 544 593 581 563 q 442 624 508 624 q 323 592 371 624 q 246 510 275 561 q 201 401 217 460 q 192 361 196 381 q 185 321 188 342 q 181 212 174 263 q 224 130 189 161 q 329 99 260 99 z "},"e":{"ha":775,"x_min":54,"x_max":749,"o":"m 321 -14 q 163 26 225 -14 q 78 141 101 67 q 68 315 54 215 q 77 362 71 333 q 89 408 83 390 q 172 581 117 507 q 306 696 226 656 q 479 736 385 736 q 646 692 585 736 q 728 565 707 647 q 726 374 749 483 l 721 350 q 706 326 718 335 q 681 318 694 318 l 201 318 q 201 313 201 317 q 199 306 200 308 q 201 199 190 249 q 248 119 213 150 q 342 89 283 89 q 428 104 392 89 q 489 138 465 119 q 522 168 513 157 q 547 188 539 185 q 571 192 554 192 l 638 192 q 657 184 650 192 q 661 163 664 176 q 629 112 656 142 q 557 53 603 82 q 451 5 511 24 q 321 -14 392 -14 m 222 414 l 601 414 l 603 418 q 606 529 619 481 q 556 606 593 578 q 458 635 518 635 q 351 606 399 635 q 272 529 304 578 q 224 418 239 481 l 222 414 z "},"é":{"ha":775,"x_min":54,"x_max":749,"o":"m 321 -14 q 163 26 225 -14 q 78 141 101 67 q 68 315 54 215 q 77 362 71 333 q 89 408 83 390 q 172 581 117 507 q 306 696 226 656 q 479 736 385 736 q 646 692 585 736 q 728 565 707 647 q 726 374 749 483 l 721 350 q 706 326 718 335 q 681 318 694 318 l 201 318 q 201 313 201 317 q 199 306 200 308 q 201 199 190 249 q 248 119 213 150 q 342 89 283 89 q 428 104 392 89 q 489 138 465 119 q 522 168 513 157 q 547 188 539 185 q 571 192 554 192 l 638 192 q 657 184 650 192 q 661 163 664 176 q 629 112 656 142 q 557 53 603 82 q 451 5 511 24 q 321 -14 392 -14 m 222 414 l 601 414 l 603 418 q 606 529 619 481 q 556 606 593 578 q 458 635 518 635 q 351 606 399 635 q 272 529 304 578 q 224 418 239 481 l 222 414 m 446 826 q 429 849 424 826 q 440 867 432 858 l 571 992 q 598 1013 588 1007 q 628 1018 608 1018 l 724 1018 q 744 996 744 1018 q 733 974 743 981 l 543 842 q 519 829 529 832 q 494 826 510 826 l 446 826 z "},"ĕ":{"ha":775,"x_min":54,"x_max":749,"o":"m 321 -14 q 163 26 225 -14 q 78 141 101 67 q 68 315 54 215 q 77 362 71 333 q 89 408 83 390 q 172 581 117 507 q 306 696 226 656 q 479 736 385 736 q 646 692 585 736 q 728 565 707 647 q 726 374 749 483 l 721 350 q 706 326 718 335 q 681 318 694 318 l 201 318 q 201 313 201 317 q 199 306 200 308 q 201 199 190 249 q 248 119 213 150 q 342 89 283 89 q 428 104 392 89 q 489 138 465 119 q 522 168 513 157 q 547 188 539 185 q 571 192 554 192 l 638 192 q 657 184 650 192 q 661 163 664 176 q 629 112 656 142 q 557 53 603 82 q 451 5 511 24 q 321 -14 392 -14 m 222 414 l 601 414 l 603 418 q 606 529 619 481 q 556 606 593 578 q 458 635 518 635 q 351 606 399 635 q 272 529 304 578 q 224 418 239 481 l 222 414 m 507 819 q 413 844 447 819 q 366 908 378 868 q 364 992 354 947 q 375 1010 367 1003 q 396 1018 383 1018 l 438 1018 q 456 1010 450 1018 q 458 992 461 1003 q 460 931 451 958 q 511 903 468 903 q 578 931 557 903 q 607 992 599 958 q 618 1010 610 1003 q 639 1018 626 1018 l 681 1018 q 699 1010 693 1018 q 701 992 704 1003 q 672 908 693 947 q 612 844 651 868 q 507 819 572 819 z "},"ě":{"ha":775,"x_min":54,"x_max":749,"o":"m 321 -14 q 163 26 225 -14 q 78 141 101 67 q 68 315 54 215 q 77 362 71 333 q 89 408 83 390 q 172 581 117 507 q 306 696 226 656 q 479 736 385 736 q 646 692 585 736 q 728 565 707 647 q 726 374 749 483 l 721 350 q 706 326 718 335 q 681 318 694 318 l 201 318 q 201 313 201 317 q 199 306 200 308 q 201 199 190 249 q 248 119 213 150 q 342 89 283 89 q 428 104 392 89 q 489 138 465 119 q 522 168 513 157 q 547 188 539 185 q 571 192 554 192 l 638 192 q 657 184 650 192 q 661 163 664 176 q 629 112 656 142 q 557 53 603 82 q 451 5 511 24 q 321 -14 392 -14 m 222 414 l 601 414 l 603 418 q 606 529 619 481 q 556 606 593 578 q 458 635 518 635 q 351 606 399 635 q 272 529 304 578 q 224 418 239 481 l 222 414 m 476 826 q 456 830 465 826 q 435 847 446 833 l 331 981 q 324 997 324 990 q 332 1013 325 1007 q 347 1018 339 1018 l 385 1018 q 401 1015 394 1018 q 414 1008 408 1013 l 508 929 l 638 1008 q 653 1015 646 1013 q 669 1018 661 1018 l 728 1018 q 743 1001 744 1018 q 731 982 743 992 l 569 847 q 541 830 551 833 q 518 826 531 826 l 476 826 z "},"ê":{"ha":775,"x_min":54,"x_max":749,"o":"m 321 -14 q 163 26 225 -14 q 78 141 101 67 q 68 315 54 215 q 77 362 71 333 q 89 408 83 390 q 172 581 117 507 q 306 696 226 656 q 479 736 385 736 q 646 692 585 736 q 728 565 707 647 q 726 374 749 483 l 721 350 q 706 326 718 335 q 681 318 694 318 l 201 318 q 201 313 201 317 q 199 306 200 308 q 201 199 190 249 q 248 119 213 150 q 342 89 283 89 q 428 104 392 89 q 489 138 465 119 q 522 168 513 157 q 547 188 539 185 q 571 192 554 192 l 638 192 q 657 184 650 192 q 661 163 664 176 q 629 112 656 142 q 557 53 603 82 q 451 5 511 24 q 321 -14 392 -14 m 222 414 l 601 414 l 603 418 q 606 529 619 481 q 556 606 593 578 q 458 635 518 635 q 351 606 399 635 q 272 529 304 578 q 224 418 239 481 l 222 414 m 299 826 q 283 842 282 826 q 296 863 283 853 l 458 997 q 487 1015 476 1013 q 508 1018 497 1018 l 550 1018 q 572 1015 563 1018 q 592 997 581 1013 l 697 864 q 701 843 704 854 q 681 826 699 826 l 642 826 q 626 829 633 826 q 613 836 619 832 l 518 915 l 389 836 q 374 829 381 832 q 357 826 367 826 l 299 826 z "},"ë":{"ha":775,"x_min":54,"x_max":749,"o":"m 321 -14 q 163 26 225 -14 q 78 141 101 67 q 68 315 54 215 q 77 362 71 333 q 89 408 83 390 q 172 581 117 507 q 306 696 226 656 q 479 736 385 736 q 646 692 585 736 q 728 565 707 647 q 726 374 749 483 l 721 350 q 706 326 718 335 q 681 318 694 318 l 201 318 q 201 313 201 317 q 199 306 200 308 q 201 199 190 249 q 248 119 213 150 q 342 89 283 89 q 428 104 392 89 q 489 138 465 119 q 522 168 513 157 q 547 188 539 185 q 571 192 554 192 l 638 192 q 657 184 650 192 q 661 163 664 176 q 629 112 656 142 q 557 53 603 82 q 451 5 511 24 q 321 -14 392 -14 m 222 414 l 601 414 l 603 418 q 606 529 619 481 q 556 606 593 578 q 458 635 518 635 q 351 606 399 635 q 272 529 304 578 q 224 418 239 481 l 222 414 m 583 863 q 563 871 569 863 q 558 893 557 879 l 575 968 q 588 991 578 982 q 613 1000 599 1000 l 688 1000 q 709 991 701 1000 q 714 968 717 982 l 696 893 q 683 871 693 879 q 658 863 672 863 l 583 863 m 349 863 q 328 871 335 863 q 324 893 322 879 l 340 968 q 353 991 343 982 q 378 1000 364 1000 l 453 1000 q 474 991 467 1000 q 479 968 482 982 l 461 893 q 448 871 458 879 q 424 863 438 863 l 349 863 z "},"ė":{"ha":775,"x_min":54,"x_max":749,"o":"m 321 -14 q 163 26 225 -14 q 78 141 101 67 q 68 315 54 215 q 77 362 71 333 q 89 408 83 390 q 172 581 117 507 q 306 696 226 656 q 479 736 385 736 q 646 692 585 736 q 728 565 707 647 q 726 374 749 483 l 721 350 q 706 326 718 335 q 681 318 694 318 l 201 318 q 201 313 201 317 q 199 306 200 308 q 201 199 190 249 q 248 119 213 150 q 342 89 283 89 q 428 104 392 89 q 489 138 465 119 q 522 168 513 157 q 547 188 539 185 q 571 192 554 192 l 638 192 q 657 184 650 192 q 661 163 664 176 q 629 112 656 142 q 557 53 603 82 q 451 5 511 24 q 321 -14 392 -14 m 222 414 l 601 414 l 603 418 q 606 529 619 481 q 556 606 593 578 q 458 635 518 635 q 351 606 399 635 q 272 529 304 578 q 224 418 239 481 l 222 414 m 453 851 q 432 860 439 851 q 428 882 425 868 l 447 971 q 460 994 450 985 q 485 1003 471 1003 l 572 1003 q 594 994 586 1003 q 599 971 601 985 l 579 882 q 566 860 576 868 q 542 851 556 851 l 453 851 z "},"è":{"ha":775,"x_min":54,"x_max":749,"o":"m 321 -14 q 163 26 225 -14 q 78 141 101 67 q 68 315 54 215 q 77 362 71 333 q 89 408 83 390 q 172 581 117 507 q 306 696 226 656 q 479 736 385 736 q 646 692 585 736 q 728 565 707 647 q 726 374 749 483 l 721 350 q 706 326 718 335 q 681 318 694 318 l 201 318 q 201 313 201 317 q 199 306 200 308 q 201 199 190 249 q 248 119 213 150 q 342 89 283 89 q 428 104 392 89 q 489 138 465 119 q 522 168 513 157 q 547 188 539 185 q 571 192 554 192 l 638 192 q 657 184 650 192 q 661 163 664 176 q 629 112 656 142 q 557 53 603 82 q 451 5 511 24 q 321 -14 392 -14 m 222 414 l 601 414 l 603 418 q 606 529 619 481 q 556 606 593 578 q 458 635 518 635 q 351 606 399 635 q 272 529 304 578 q 224 418 239 481 l 222 414 m 490 826 q 466 829 475 826 q 447 842 457 832 l 317 971 q 311 992 308 981 q 340 1018 317 1018 l 440 1018 q 469 1013 460 1018 q 486 992 478 1007 l 563 869 q 565 847 568 858 q 539 826 561 826 l 490 826 z "},"ē":{"ha":775,"x_min":54,"x_max":749,"o":"m 321 -14 q 163 26 225 -14 q 78 141 101 67 q 68 315 54 215 q 77 362 71 333 q 89 408 83 390 q 172 581 117 507 q 306 696 226 656 q 479 736 385 736 q 646 692 585 736 q 728 565 707 647 q 726 374 749 483 l 721 350 q 706 326 718 335 q 681 318 694 318 l 201 318 q 201 313 201 317 q 199 306 200 308 q 201 199 190 249 q 248 119 213 150 q 342 89 283 89 q 428 104 392 89 q 489 138 465 119 q 522 168 513 157 q 547 188 539 185 q 571 192 554 192 l 638 192 q 657 184 650 192 q 661 163 664 176 q 629 112 656 142 q 557 53 603 82 q 451 5 511 24 q 321 -14 392 -14 m 222 414 l 601 414 l 603 418 q 606 529 619 481 q 556 606 593 578 q 458 635 518 635 q 351 606 399 635 q 272 529 304 578 q 224 418 239 481 l 222 414 m 347 857 q 327 865 333 857 q 322 888 321 874 l 332 931 q 345 953 335 944 q 369 961 356 961 l 679 961 q 699 953 693 961 q 703 931 706 944 l 693 888 q 681 865 692 874 q 657 857 671 857 l 347 857 z "},"ę":{"ha":779,"x_min":50,"x_max":750,"o":"m 331 -306 q 232 -281 269 -306 q 181 -210 194 -256 q 181 -106 168 -165 q 197 -49 186 -75 q 225 -1 208 -22 q 90 109 131 26 q 69 315 50 192 q 78 362 72 333 q 89 407 85 390 q 172 581 117 507 q 306 695 228 654 q 481 736 385 736 q 647 692 585 736 q 730 565 710 647 q 728 374 750 483 l 722 350 q 708 326 719 335 q 682 318 696 318 l 203 318 l 200 306 q 203 199 192 249 q 249 119 214 150 q 343 89 285 89 q 430 104 393 89 q 490 138 467 119 q 524 168 514 157 q 548 188 540 185 q 571 192 556 192 l 639 192 q 658 184 651 192 q 663 163 665 176 q 620 103 656 138 q 526 37 585 68 q 390 -8 467 6 q 319 -39 347 -17 q 281 -106 290 -61 q 292 -181 271 -153 q 357 -210 313 -210 l 376 -210 q 398 -219 392 -210 q 401 -242 404 -228 l 394 -274 q 381 -297 392 -287 q 356 -306 369 -306 l 331 -306 m 222 414 l 601 414 l 603 418 q 603 529 617 481 q 554 606 590 578 q 458 635 518 635 q 350 606 399 635 q 269 529 301 578 q 224 418 238 481 l 222 414 z "},"f":{"ha":529,"x_min":69,"x_max":653,"o":"m 118 0 q 97 9 104 0 q 92 32 89 18 l 215 611 l 97 611 q 76 620 83 611 q 72 643 69 629 l 82 690 q 96 713 85 704 q 121 722 107 722 l 239 722 l 254 792 q 305 916 269 863 q 397 999 340 969 q 531 1028 453 1028 l 625 1028 q 646 1019 639 1028 q 650 996 653 1010 l 640 949 q 626 926 638 935 q 601 917 615 917 l 529 917 q 430 883 465 917 q 381 785 394 849 l 368 722 l 546 722 q 567 713 560 722 q 571 690 574 704 l 561 643 q 548 620 558 629 q 522 611 538 611 l 344 611 l 221 32 q 208 9 218 18 q 183 0 197 0 l 118 0 z "},"g":{"ha":826,"x_min":-29,"x_max":783,"o":"m 250 -306 q 103 -281 158 -306 q 18 -220 47 -256 q -20 -149 -11 -185 q -25 -93 -29 -114 q -13 -69 -22 -79 q 8 -60 -4 -60 l 81 -60 q 100 -65 93 -60 q 108 -89 107 -71 q 121 -135 110 -110 q 163 -180 132 -161 q 254 -199 193 -199 q 362 -181 311 -199 q 449 -119 413 -162 q 503 0 486 -76 l 522 94 q 425 23 479 51 q 290 -6 371 -6 q 158 22 210 -6 q 79 95 106 49 q 47 201 53 142 q 50 326 40 261 q 57 365 53 347 q 67 403 61 382 q 113 527 85 468 q 185 634 142 586 q 288 709 228 682 q 428 736 347 736 q 563 706 511 736 q 639 629 615 675 l 651 689 q 665 713 654 703 q 692 722 676 722 l 754 722 q 776 713 769 722 q 781 689 783 703 l 638 15 q 597 -113 624 -54 q 527 -215 571 -172 q 415 -282 483 -258 q 250 -306 347 -306 m 318 106 q 438 138 386 106 q 523 218 489 169 q 569 317 557 267 q 580 365 574 336 q 589 413 586 393 q 589 511 597 463 q 546 592 581 560 q 442 624 511 624 q 328 592 376 624 q 247 510 279 561 q 199 401 215 460 q 190 365 194 382 q 183 328 186 347 q 179 219 174 269 q 217 137 185 168 q 318 106 250 106 z "},"ğ":{"ha":826,"x_min":-29,"x_max":783,"o":"m 250 -306 q 103 -281 158 -306 q 18 -220 47 -256 q -20 -149 -11 -185 q -25 -93 -29 -114 q -13 -69 -22 -79 q 8 -60 -4 -60 l 81 -60 q 100 -65 93 -60 q 108 -89 107 -71 q 121 -135 110 -110 q 163 -180 132 -161 q 254 -199 193 -199 q 362 -181 311 -199 q 449 -119 413 -162 q 503 0 486 -76 l 522 94 q 425 23 479 51 q 290 -6 371 -6 q 158 22 210 -6 q 79 95 106 49 q 47 201 53 142 q 50 326 40 261 q 57 365 53 347 q 67 403 61 382 q 113 527 85 468 q 185 634 142 586 q 288 709 228 682 q 428 736 347 736 q 563 706 511 736 q 639 629 615 675 l 651 689 q 665 713 654 703 q 692 722 676 722 l 754 722 q 776 713 769 722 q 781 689 783 703 l 638 15 q 597 -113 624 -54 q 527 -215 571 -172 q 415 -282 483 -258 q 250 -306 347 -306 m 318 106 q 438 138 386 106 q 523 218 489 169 q 569 317 557 267 q 580 365 574 336 q 589 413 586 393 q 589 511 597 463 q 546 592 581 560 q 442 624 511 624 q 328 592 376 624 q 247 510 279 561 q 199 401 215 460 q 190 365 194 382 q 183 328 186 347 q 179 219 174 269 q 217 137 185 168 q 318 106 250 106 m 497 819 q 403 844 438 819 q 356 908 368 868 q 354 992 344 947 q 365 1010 357 1003 q 386 1018 374 1018 l 428 1018 q 446 1010 440 1018 q 449 992 451 1003 q 450 931 442 958 q 501 903 458 903 q 568 931 547 903 q 597 992 589 958 q 608 1010 600 1003 q 629 1018 617 1018 l 671 1018 q 689 1010 683 1018 q 692 992 694 1003 q 663 908 683 947 q 602 844 642 868 q 497 819 563 819 z "},"ĝ":{"ha":826,"x_min":-29,"x_max":783,"o":"m 250 -306 q 103 -281 158 -306 q 18 -220 47 -256 q -20 -149 -11 -185 q -25 -93 -29 -114 q -13 -69 -22 -79 q 8 -60 -4 -60 l 81 -60 q 100 -65 93 -60 q 108 -89 107 -71 q 121 -135 110 -110 q 163 -180 132 -161 q 254 -199 193 -199 q 362 -181 311 -199 q 449 -119 413 -162 q 503 0 486 -76 l 522 94 q 425 23 479 51 q 290 -6 371 -6 q 158 22 210 -6 q 79 95 106 49 q 47 201 53 142 q 50 326 40 261 q 57 365 53 347 q 67 403 61 382 q 113 527 85 468 q 185 634 142 586 q 288 709 228 682 q 428 736 347 736 q 563 706 511 736 q 639 629 615 675 l 651 689 q 665 713 654 703 q 692 722 676 722 l 754 722 q 776 713 769 722 q 781 689 783 703 l 638 15 q 597 -113 624 -54 q 527 -215 571 -172 q 415 -282 483 -258 q 250 -306 347 -306 m 318 106 q 438 138 386 106 q 523 218 489 169 q 569 317 557 267 q 580 365 574 336 q 589 413 586 393 q 589 511 597 463 q 546 592 581 560 q 442 624 511 624 q 328 592 376 624 q 247 510 279 561 q 199 401 215 460 q 190 365 194 382 q 183 328 186 347 q 179 219 174 269 q 217 137 185 168 q 318 106 250 106 m 290 826 q 275 842 274 826 q 288 863 275 853 l 450 997 q 478 1015 468 1013 q 500 1018 489 1018 l 542 1018 q 563 1015 554 1018 q 583 997 572 1013 l 689 864 q 693 843 696 854 q 672 826 690 826 l 633 826 q 618 829 625 826 q 604 836 611 832 l 510 915 l 381 836 q 365 829 372 832 q 349 826 358 826 l 290 826 z "},"ģ":{"ha":826,"x_min":-29,"x_max":783,"o":"m 250 -306 q 103 -281 158 -306 q 18 -220 47 -256 q -20 -149 -11 -185 q -25 -93 -29 -114 q -13 -69 -22 -79 q 8 -60 -4 -60 l 81 -60 q 100 -65 93 -60 q 108 -89 107 -71 q 121 -135 110 -110 q 163 -180 132 -161 q 254 -199 193 -199 q 362 -181 311 -199 q 449 -119 413 -162 q 503 0 486 -76 l 522 94 q 425 23 479 51 q 290 -6 371 -6 q 158 22 210 -6 q 79 95 106 49 q 47 201 53 142 q 50 326 40 261 q 57 365 53 347 q 67 403 61 382 q 113 527 85 468 q 185 634 142 586 q 288 709 228 682 q 428 736 347 736 q 563 706 511 736 q 639 629 615 675 l 651 689 q 665 713 654 703 q 692 722 676 722 l 754 722 q 776 713 769 722 q 781 689 783 703 l 638 15 q 597 -113 624 -54 q 527 -215 571 -172 q 415 -282 483 -258 q 250 -306 347 -306 m 318 106 q 438 138 386 106 q 523 218 489 169 q 569 317 557 267 q 580 365 574 336 q 589 413 586 393 q 589 511 597 463 q 546 592 581 560 q 442 624 511 624 q 328 592 376 624 q 247 510 279 561 q 199 401 215 460 q 190 365 194 382 q 183 328 186 347 q 179 219 174 269 q 217 137 185 168 q 318 106 250 106 m 428 826 q 413 834 417 826 q 411 850 410 842 q 415 861 413 856 q 421 872 417 867 l 513 1026 q 532 1050 522 1040 q 560 1060 542 1060 l 607 1060 q 622 1051 618 1060 q 622 1029 626 1042 l 563 867 q 545 838 557 850 q 515 826 533 826 l 428 826 z "},"ġ":{"ha":826,"x_min":-29,"x_max":783,"o":"m 250 -306 q 103 -281 158 -306 q 18 -220 47 -256 q -20 -149 -11 -185 q -25 -93 -29 -114 q -13 -69 -22 -79 q 8 -60 -4 -60 l 81 -60 q 100 -65 93 -60 q 108 -89 107 -71 q 121 -135 110 -110 q 163 -180 132 -161 q 254 -199 193 -199 q 362 -181 311 -199 q 449 -119 413 -162 q 503 0 486 -76 l 522 94 q 425 23 479 51 q 290 -6 371 -6 q 158 22 210 -6 q 79 95 106 49 q 47 201 53 142 q 50 326 40 261 q 57 365 53 347 q 67 403 61 382 q 113 527 85 468 q 185 634 142 586 q 288 709 228 682 q 428 736 347 736 q 563 706 511 736 q 639 629 615 675 l 651 689 q 665 713 654 703 q 692 722 676 722 l 754 722 q 776 713 769 722 q 781 689 783 703 l 638 15 q 597 -113 624 -54 q 527 -215 571 -172 q 415 -282 483 -258 q 250 -306 347 -306 m 318 106 q 438 138 386 106 q 523 218 489 169 q 569 317 557 267 q 580 365 574 336 q 589 413 586 393 q 589 511 597 463 q 546 592 581 560 q 442 624 511 624 q 328 592 376 624 q 247 510 279 561 q 199 401 215 460 q 190 365 194 382 q 183 328 186 347 q 179 219 174 269 q 217 137 185 168 q 318 106 250 106 m 444 851 q 424 860 431 851 q 419 882 417 868 l 439 971 q 452 994 442 985 q 476 1003 463 1003 l 564 1003 q 585 994 578 1003 q 590 971 593 985 l 571 882 q 558 860 568 868 q 533 851 547 851 l 444 851 z "},"h":{"ha":846,"x_min":19,"x_max":772,"o":"m 49 0 q 27 9 35 0 q 22 32 19 18 l 219 954 q 233 977 222 968 q 257 986 243 986 l 328 986 q 349 977 342 986 q 353 954 356 968 l 283 631 q 383 707 326 678 q 521 736 439 736 q 673 697 615 736 q 751 587 731 657 q 751 424 772 517 l 668 32 q 655 9 665 18 q 631 0 644 0 l 560 0 q 538 9 546 0 q 533 32 531 18 l 615 417 q 607 569 636 514 q 488 624 578 624 q 378 599 429 624 q 290 528 326 575 q 238 417 253 482 l 157 32 q 144 9 154 18 q 119 0 133 0 l 49 0 z "},"ħ":{"ha":846,"x_min":19,"x_max":772,"o":"m 111 785 q 90 794 97 785 q 86 817 83 803 l 93 846 q 106 869 96 860 q 131 878 117 878 l 408 878 q 429 869 422 878 q 433 846 436 860 l 428 817 q 414 794 425 803 q 389 785 403 785 l 111 785 m 49 0 q 27 9 35 0 q 22 32 19 18 l 219 954 q 233 977 222 968 q 257 986 243 986 l 328 986 q 349 977 342 986 q 353 954 356 968 l 283 631 q 383 707 326 678 q 521 736 439 736 q 673 697 615 736 q 751 587 731 657 q 751 424 772 517 l 668 32 q 655 9 665 18 q 631 0 644 0 l 560 0 q 538 9 546 0 q 533 32 531 18 l 615 417 q 607 569 636 514 q 488 624 578 624 q 378 599 429 624 q 290 528 326 575 q 238 417 253 482 l 157 32 q 144 9 154 18 q 119 0 133 0 l 49 0 z "},"ĥ":{"ha":846,"x_min":19,"x_max":772,"o":"m 49 0 q 27 9 35 0 q 22 32 19 18 l 219 954 q 233 977 222 968 q 257 986 243 986 l 328 986 q 349 977 342 986 q 353 954 356 968 l 283 631 q 383 707 326 678 q 521 736 439 736 q 673 697 615 736 q 751 587 731 657 q 751 424 772 517 l 668 32 q 655 9 665 18 q 631 0 644 0 l 560 0 q 538 9 546 0 q 533 32 531 18 l 615 417 q 607 569 636 514 q 488 624 578 624 q 378 599 429 624 q 290 528 326 575 q 238 417 253 482 l 157 32 q 144 9 154 18 q 119 0 133 0 l 49 0 m 322 1042 q 307 1057 306 1042 q 319 1078 307 1068 l 482 1213 q 510 1231 500 1228 q 532 1233 521 1233 l 574 1233 q 595 1231 586 1233 q 615 1213 604 1228 l 721 1079 q 725 1058 728 1069 q 704 1042 722 1042 l 665 1042 q 650 1044 657 1042 q 636 1051 643 1047 l 542 1131 l 413 1051 q 397 1044 404 1047 q 381 1042 390 1042 l 322 1042 z "},"i":{"ha":338,"x_min":19,"x_max":365,"o":"m 49 0 q 27 9 35 0 q 22 32 19 18 l 163 690 q 176 713 165 704 q 201 722 188 722 l 268 722 q 288 713 282 722 q 292 690 294 704 l 153 32 q 140 9 150 18 q 115 0 129 0 l 49 0 m 219 857 q 199 866 206 857 q 193 889 192 875 l 211 964 q 224 988 214 978 q 249 997 235 997 l 335 997 q 358 988 350 997 q 363 964 365 978 l 346 889 q 332 866 343 875 q 307 857 321 857 l 219 857 z "},"ı":{"ha":338,"x_min":19,"x_max":294,"o":"m 49 0 q 27 9 35 0 q 22 32 19 18 l 163 690 q 176 713 165 704 q 201 722 188 722 l 268 722 q 288 713 282 722 q 292 690 294 704 l 153 32 q 140 9 150 18 q 115 0 129 0 l 49 0 z "},"í":{"ha":338,"x_min":19,"x_max":506,"o":"m 49 0 q 27 9 35 0 q 22 32 19 18 l 163 690 q 176 713 165 704 q 201 722 188 722 l 268 722 q 288 713 282 722 q 292 690 294 704 l 153 32 q 140 9 150 18 q 115 0 129 0 l 49 0 m 207 826 q 190 849 185 826 q 201 867 193 858 l 332 992 q 359 1013 349 1007 q 389 1018 369 1018 l 485 1018 q 506 996 506 1018 q 494 974 504 981 l 304 842 q 281 829 290 832 q 256 826 271 826 l 207 826 z "},"ĭ":{"ha":338,"x_min":19,"x_max":465,"o":"m 49 0 q 27 9 35 0 q 22 32 19 18 l 163 690 q 176 713 165 704 q 201 722 188 722 l 268 722 q 288 713 282 722 q 292 690 294 704 l 153 32 q 140 9 150 18 q 115 0 129 0 l 49 0 m 267 819 q 172 844 207 819 q 126 908 138 868 q 124 992 114 947 q 135 1010 126 1003 q 156 1018 143 1018 l 197 1018 q 215 1010 210 1018 q 218 992 221 1003 q 219 931 211 958 q 271 903 228 903 q 338 931 317 903 q 367 992 358 958 q 378 1010 369 1003 q 399 1018 386 1018 l 440 1018 q 458 1010 453 1018 q 461 992 464 1003 q 432 908 453 947 q 372 844 411 868 q 267 819 332 819 z "},"î":{"ha":338,"x_min":19,"x_max":465,"o":"m 49 0 q 27 9 35 0 q 22 32 19 18 l 163 690 q 176 713 165 704 q 201 722 188 722 l 268 722 q 288 713 282 722 q 292 690 294 704 l 153 32 q 140 9 150 18 q 115 0 129 0 l 49 0 m 60 826 q 44 842 43 826 q 57 863 44 853 l 219 997 q 248 1015 238 1013 q 269 1018 258 1018 l 311 1018 q 333 1015 324 1018 q 353 997 342 1013 l 458 864 q 463 843 465 854 q 442 826 460 826 l 403 826 q 388 829 394 826 q 374 836 381 832 l 279 915 l 150 836 q 135 829 142 832 q 118 826 128 826 l 60 826 z "},"ï":{"ha":338,"x_min":19,"x_max":476,"o":"m 49 0 q 27 9 35 0 q 22 32 19 18 l 163 690 q 176 713 165 704 q 201 722 188 722 l 268 722 q 288 713 282 722 q 292 690 294 704 l 153 32 q 140 9 150 18 q 115 0 129 0 l 49 0 m 343 863 q 323 871 329 863 q 318 893 317 879 l 335 968 q 348 991 338 982 q 372 1000 358 1000 l 447 1000 q 469 991 461 1000 q 474 968 476 982 l 456 893 q 442 871 453 879 q 418 863 432 863 l 343 863 m 108 863 q 88 871 94 863 q 83 893 82 879 l 100 968 q 113 991 103 982 q 138 1000 124 1000 l 213 1000 q 234 991 226 1000 q 239 968 242 982 l 221 893 q 208 871 218 879 q 183 863 197 863 l 108 863 z "},"ì":{"ha":338,"x_min":19,"x_max":329,"o":"m 49 0 q 27 9 35 0 q 22 32 19 18 l 163 690 q 176 713 165 704 q 201 722 188 722 l 268 722 q 288 713 282 722 q 292 690 294 704 l 153 32 q 140 9 150 18 q 115 0 129 0 l 49 0 m 250 826 q 226 829 235 826 q 207 842 217 832 l 76 971 q 71 992 68 981 q 100 1018 76 1018 l 200 1018 q 228 1013 219 1018 q 246 992 238 1007 l 322 869 q 325 847 328 858 q 299 826 321 826 l 250 826 z "},"ĳ":{"ha":690,"x_min":19,"x_max":718,"o":"m 49 0 q 27 9 35 0 q 22 32 19 18 l 163 690 q 176 713 165 704 q 201 722 188 722 l 268 722 q 288 713 282 722 q 292 690 294 704 l 153 32 q 140 9 150 18 q 115 0 129 0 l 49 0 m 219 857 q 199 866 206 857 q 193 889 192 875 l 211 964 q 224 988 214 978 q 249 997 235 997 l 335 997 q 358 988 350 997 q 363 964 365 978 l 346 889 q 332 866 343 875 q 307 857 321 857 l 219 857 m 181 -264 q 159 -255 165 -264 q 156 -232 153 -246 l 165 -185 q 178 -162 168 -171 q 203 -153 189 -153 l 228 -153 q 320 -113 289 -153 q 364 -15 351 -74 l 514 690 q 528 713 517 704 q 553 722 539 722 l 621 722 q 642 713 635 722 q 646 690 649 704 l 496 -17 q 449 -146 481 -90 q 360 -233 417 -201 q 215 -264 304 -264 l 181 -264 m 571 857 q 550 866 557 857 q 544 889 543 875 l 561 964 q 574 988 564 978 q 599 997 585 997 l 689 997 q 710 988 703 997 q 715 964 718 978 l 699 889 q 685 866 697 875 q 660 857 674 857 l 571 857 z "},"ī":{"ha":338,"x_min":19,"x_max":467,"o":"m 49 0 q 27 9 35 0 q 22 32 19 18 l 163 690 q 176 713 165 704 q 201 722 188 722 l 268 722 q 288 713 282 722 q 292 690 294 704 l 153 32 q 140 9 150 18 q 115 0 129 0 l 49 0 m 108 857 q 88 865 94 857 q 83 888 82 874 l 93 931 q 106 953 96 944 q 131 961 117 961 l 440 961 q 460 953 454 961 q 464 931 467 944 l 454 888 q 442 865 453 874 q 418 857 432 857 l 108 857 z "},"į":{"ha":360,"x_min":-87,"x_max":407,"o":"m 79 -299 q -49 -245 -11 -299 q -69 -103 -87 -192 q -15 6 -56 -37 q 81 61 25 49 l 81 65 q 76 72 78 68 q 76 79 75 75 l 206 690 q 219 713 208 704 q 244 722 231 722 l 311 722 q 331 713 325 722 q 335 690 338 704 l 196 32 q 182 9 193 18 q 157 0 171 0 l 149 0 q 70 -28 103 0 q 28 -103 38 -56 q 40 -177 18 -150 q 106 -204 61 -204 l 125 -204 q 146 -213 139 -204 q 150 -236 153 -222 l 143 -267 q 129 -290 140 -281 q 104 -299 118 -299 l 79 -299 m 261 857 q 240 866 247 857 q 236 889 233 875 l 253 964 q 267 988 256 978 q 292 997 278 997 l 379 997 q 400 988 393 997 q 404 964 407 978 l 389 889 q 374 866 386 875 q 349 857 363 857 l 261 857 z "},"ĩ":{"ha":338,"x_min":19,"x_max":474,"o":"m 49 0 q 27 9 35 0 q 22 32 19 18 l 163 690 q 176 713 165 704 q 201 722 188 722 l 268 722 q 288 713 282 722 q 292 690 294 704 l 153 32 q 140 9 150 18 q 115 0 129 0 l 49 0 m 338 819 q 285 831 304 819 q 249 855 265 843 q 213 867 233 867 q 185 857 196 867 q 164 837 174 847 q 139 826 154 826 l 94 826 q 80 833 85 826 q 76 849 75 840 q 90 891 79 869 q 119 931 101 913 q 161 961 138 950 q 213 972 185 972 q 267 960 247 972 q 303 937 288 949 q 339 925 318 925 q 367 935 357 925 q 385 956 376 946 q 410 967 394 967 l 454 967 q 470 960 465 967 q 474 943 475 953 q 458 901 469 924 q 430 860 447 879 q 389 831 413 842 q 338 819 365 819 z "},"j":{"ha":354,"x_min":-185,"x_max":381,"o":"m -157 -264 q -178 -255 -172 -264 q -182 -232 -185 -246 l -172 -185 q -159 -162 -169 -171 q -135 -153 -149 -153 l -110 -153 q -17 -113 -49 -153 q 26 -15 14 -74 l 176 690 q 190 713 179 704 q 215 722 201 722 l 283 722 q 304 713 297 722 q 308 690 311 704 l 158 -17 q 111 -146 143 -90 q 23 -233 79 -201 q -122 -264 -33 -264 l -157 -264 m 233 857 q 213 866 219 857 q 207 889 206 875 l 224 964 q 237 988 226 978 q 261 997 247 997 l 351 997 q 373 988 365 997 q 378 964 381 978 l 361 889 q 348 866 360 875 q 322 857 336 857 l 233 857 z "},"ȷ":{"ha":425,"x_min":-126,"x_max":381,"o":"m -100 -264 q -119 -255 -112 -264 q -124 -232 -126 -246 l -111 -175 q -99 -152 -108 -161 q -75 -143 -89 -143 l -44 -143 q 33 -125 6 -143 q 76 -76 61 -107 q 99 -7 90 -44 l 229 610 l 99 610 q 76 618 83 610 q 72 642 69 626 l 83 690 q 97 713 86 704 q 122 722 107 722 l 354 722 q 374 713 368 722 q 378 690 381 704 l 231 -7 q 180 -139 215 -81 q 85 -231 144 -197 q -61 -264 26 -264 l -100 -264 z "},"ĵ":{"ha":425,"x_min":-126,"x_max":471,"o":"m -100 -264 q -119 -255 -112 -264 q -124 -232 -126 -246 l -111 -175 q -99 -152 -108 -161 q -75 -143 -89 -143 l -44 -143 q 33 -125 6 -143 q 76 -76 61 -107 q 99 -7 90 -44 l 229 610 l 99 610 q 76 618 83 610 q 72 642 69 626 l 83 690 q 97 713 86 704 q 122 722 107 722 l 354 722 q 374 713 368 722 q 378 690 381 704 l 231 -7 q 180 -139 215 -81 q 85 -231 144 -197 q -61 -264 26 -264 l -100 -264 m 64 826 q 49 842 47 826 q 61 863 49 853 l 224 997 q 252 1015 242 1013 q 274 1018 263 1018 l 315 1018 q 337 1015 328 1018 q 357 997 346 1013 l 463 864 q 467 843 469 854 q 446 826 464 826 l 407 826 q 392 829 399 826 q 378 836 385 832 l 283 915 l 154 836 q 139 829 146 832 q 122 826 132 826 l 64 826 z "},"k":{"ha":717,"x_min":19,"x_max":731,"o":"m 49 0 q 27 9 35 0 q 22 32 19 18 l 219 954 q 233 977 222 968 q 257 986 243 986 l 322 986 q 344 977 336 986 q 349 954 351 968 l 247 478 l 558 699 q 588 717 578 713 q 619 722 599 722 l 704 722 q 728 703 725 722 q 706 667 731 683 l 328 394 l 613 49 q 618 17 626 33 q 590 0 610 0 l 521 0 q 490 8 499 0 q 475 21 482 15 l 217 333 l 151 32 q 138 9 149 18 q 114 0 128 0 l 49 0 z "},"ķ":{"ha":717,"x_min":19,"x_max":731,"o":"m 49 0 q 27 9 35 0 q 22 32 19 18 l 219 954 q 233 977 222 968 q 257 986 243 986 l 322 986 q 344 977 336 986 q 349 954 351 968 l 247 478 l 558 699 q 588 717 578 713 q 619 722 599 722 l 704 722 q 728 703 725 722 q 706 667 731 683 l 328 394 l 613 49 q 618 17 626 33 q 590 0 610 0 l 521 0 q 490 8 499 0 q 475 21 482 15 l 217 333 l 151 32 q 138 9 149 18 q 114 0 128 0 l 49 0 m 136 -301 q 121 -293 125 -301 q 121 -272 117 -285 l 181 -110 q 199 -81 188 -93 q 229 -69 210 -69 l 315 -69 q 331 -77 326 -69 q 333 -93 336 -85 q 329 -104 332 -99 q 324 -115 326 -110 l 231 -269 q 212 -292 222 -283 q 185 -301 201 -301 l 136 -301 z "},"ĸ":{"ha":718,"x_min":39,"x_max":751,"o":"m 67 0 q 46 9 53 0 q 42 32 39 18 l 182 690 q 196 713 185 704 q 221 722 207 722 l 286 722 q 307 713 300 722 q 311 690 314 704 l 257 433 l 599 699 q 628 717 618 713 q 658 722 639 722 l 726 722 q 746 714 740 722 q 749 693 751 706 q 742 681 747 688 q 728 667 738 674 l 336 363 l 626 54 q 636 42 633 49 q 636 29 639 35 q 624 8 635 17 q 601 0 614 0 l 526 0 q 497 6 506 0 q 476 24 489 13 l 225 288 l 171 32 q 157 9 168 18 q 132 0 146 0 l 67 0 z "},"l":{"ha":339,"x_min":19,"x_max":351,"o":"m 49 0 q 27 9 35 0 q 22 32 19 18 l 219 954 q 233 977 222 968 q 257 986 243 986 l 324 986 q 344 977 338 986 q 349 954 351 968 l 153 32 q 140 9 150 18 q 115 0 129 0 l 49 0 z "},"ĺ":{"ha":339,"x_min":19,"x_max":567,"o":"m 49 0 q 27 9 35 0 q 22 32 19 18 l 219 954 q 233 977 222 968 q 257 986 243 986 l 324 986 q 344 977 338 986 q 349 954 351 968 l 153 32 q 140 9 150 18 q 115 0 129 0 l 49 0 m 268 1042 q 251 1064 246 1042 q 263 1082 254 1074 l 393 1207 q 420 1228 410 1222 q 450 1233 431 1233 l 546 1233 q 567 1211 567 1233 q 556 1189 565 1196 l 365 1057 q 342 1044 351 1047 q 317 1042 332 1042 l 268 1042 z "},"ľ":{"ha":394,"x_min":19,"x_max":597,"o":"m 49 0 q 27 9 35 0 q 22 32 19 18 l 219 954 q 233 977 222 968 q 257 986 243 986 l 324 986 q 344 977 338 986 q 349 954 351 968 l 153 32 q 140 9 150 18 q 115 0 129 0 l 49 0 m 400 754 q 384 763 388 754 q 383 783 381 771 l 443 946 q 461 974 450 963 q 492 986 472 986 l 579 986 q 594 978 589 986 q 596 963 599 971 q 592 951 594 957 q 586 940 590 946 l 494 786 q 475 763 485 772 q 447 754 465 754 l 400 754 z "},"ļ":{"ha":339,"x_min":-82,"x_max":351,"o":"m 49 0 q 27 9 35 0 q 22 32 19 18 l 219 954 q 233 977 222 968 q 257 986 243 986 l 324 986 q 344 977 338 986 q 349 954 351 968 l 153 32 q 140 9 150 18 q 115 0 129 0 l 49 0 m -62 -301 q -78 -293 -74 -301 q -78 -272 -82 -285 l -18 -110 q 0 -81 -11 -93 q 31 -69 11 -69 l 117 -69 q 133 -77 128 -69 q 135 -93 138 -85 q 131 -104 133 -99 q 125 -115 128 -110 l 32 -269 q 13 -292 24 -283 q -14 -301 3 -301 l -62 -301 z "},"ŀ":{"ha":479,"x_min":19,"x_max":514,"o":"m 49 0 q 27 9 35 0 q 22 32 19 18 l 219 954 q 233 977 222 968 q 257 986 243 986 l 324 986 q 344 977 338 986 q 349 954 351 968 l 153 32 q 140 9 150 18 q 115 0 129 0 l 49 0 m 367 424 q 346 432 353 424 q 342 456 339 440 l 361 543 q 374 566 364 557 q 397 575 383 575 l 486 575 q 507 566 500 575 q 511 543 514 557 l 492 456 q 478 432 489 440 q 454 424 468 424 l 367 424 z "},"ł":{"ha":383,"x_min":53,"x_max":410,"o":"m 92 0 q 71 9 78 0 q 67 32 64 18 l 150 418 l 96 400 q 76 396 83 396 q 59 402 65 396 q 56 421 53 408 l 65 471 q 77 495 68 488 q 104 508 86 503 l 174 532 l 263 954 q 276 977 265 968 q 301 986 288 986 l 367 986 q 388 977 382 986 q 392 954 394 968 l 314 582 l 368 601 q 386 606 379 606 q 403 599 397 606 q 407 579 410 592 l 397 531 q 385 507 394 514 q 358 493 376 500 l 289 468 l 197 32 q 183 9 194 18 q 157 0 172 0 l 92 0 z "},"m":{"ha":1236,"x_min":19,"x_max":1165,"o":"m 49 0 q 27 9 35 0 q 22 32 19 18 l 163 690 q 176 713 165 704 q 201 722 188 722 l 264 722 q 285 713 278 722 q 289 690 292 704 l 279 642 q 335 692 307 671 q 401 724 364 713 q 485 736 438 736 q 618 703 564 736 q 690 608 672 671 q 796 701 735 667 q 936 736 857 736 q 1065 703 1010 736 q 1142 602 1119 669 q 1144 433 1165 535 l 1058 32 q 1045 9 1056 18 q 1021 0 1035 0 l 956 0 q 935 9 942 0 q 931 32 928 18 l 1013 421 q 1019 543 1029 499 q 978 606 1010 588 q 904 624 947 624 q 823 606 867 624 q 742 543 779 588 q 689 421 706 499 l 606 32 q 592 9 603 18 q 568 0 582 0 l 503 0 q 481 9 489 0 q 476 32 474 18 l 560 421 q 565 543 576 499 q 524 606 554 588 q 451 624 493 624 q 370 606 414 624 q 290 543 326 588 q 236 422 253 499 l 153 32 q 140 9 150 18 q 115 0 129 0 l 49 0 z "},"n":{"ha":842,"x_min":19,"x_max":768,"o":"m 49 0 q 27 9 35 0 q 22 32 19 18 l 163 690 q 176 713 165 704 q 201 722 188 722 l 267 722 q 288 713 281 722 q 292 690 294 704 l 278 629 q 382 706 321 676 q 521 736 443 736 q 678 697 621 736 q 751 587 735 657 q 749 424 768 517 l 664 32 q 651 9 661 18 q 626 0 640 0 l 557 0 q 535 9 543 0 q 531 32 528 18 l 613 417 q 610 572 635 519 q 488 624 586 624 q 324 569 392 624 q 236 417 257 514 l 156 32 q 142 9 153 18 q 118 0 132 0 l 49 0 z "},"ń":{"ha":842,"x_min":19,"x_max":768,"o":"m 49 0 q 27 9 35 0 q 22 32 19 18 l 163 690 q 176 713 165 704 q 201 722 188 722 l 267 722 q 288 713 281 722 q 292 690 294 704 l 278 629 q 382 706 321 676 q 521 736 443 736 q 678 697 621 736 q 751 587 735 657 q 749 424 768 517 l 664 32 q 651 9 661 18 q 626 0 640 0 l 557 0 q 535 9 543 0 q 531 32 528 18 l 613 417 q 610 572 635 519 q 488 624 586 624 q 324 569 392 624 q 236 417 257 514 l 156 32 q 142 9 153 18 q 118 0 132 0 l 49 0 m 458 826 q 442 849 436 826 q 453 867 444 858 l 583 992 q 610 1013 600 1007 q 640 1018 621 1018 l 736 1018 q 757 996 757 1018 q 746 974 756 981 l 556 842 q 532 829 542 832 q 507 826 522 826 l 458 826 z "},"ŉ":{"ha":842,"x_min":19,"x_max":768,"o":"m 42 786 q 26 794 31 786 q 26 815 22 803 l 86 979 q 104 1008 93 996 q 133 1019 115 1019 l 221 1019 q 236 1012 232 1019 q 238 996 240 1004 q 234 985 236 990 q 228 974 232 979 l 136 818 q 117 795 126 804 q 89 786 107 786 l 42 786 m 49 0 q 27 9 35 0 q 22 32 19 18 l 163 690 q 176 713 165 704 q 201 722 188 722 l 267 722 q 288 713 281 722 q 292 690 294 704 l 278 629 q 382 706 321 676 q 521 736 443 736 q 678 697 621 736 q 751 587 735 657 q 749 424 768 517 l 664 32 q 651 9 661 18 q 626 0 640 0 l 557 0 q 535 9 543 0 q 531 32 528 18 l 613 417 q 610 572 635 519 q 488 624 586 624 q 324 569 392 624 q 236 417 257 514 l 156 32 q 142 9 153 18 q 118 0 132 0 l 49 0 z "},"ň":{"ha":842,"x_min":19,"x_max":768,"o":"m 49 0 q 27 9 35 0 q 22 32 19 18 l 163 690 q 176 713 165 704 q 201 722 188 722 l 267 722 q 288 713 281 722 q 292 690 294 704 l 278 629 q 382 706 321 676 q 521 736 443 736 q 678 697 621 736 q 751 587 735 657 q 749 424 768 517 l 664 32 q 651 9 661 18 q 626 0 640 0 l 557 0 q 535 9 543 0 q 531 32 528 18 l 613 417 q 610 572 635 519 q 488 624 586 624 q 324 569 392 624 q 236 417 257 514 l 156 32 q 142 9 153 18 q 118 0 132 0 l 49 0 m 489 826 q 468 830 478 826 q 447 847 458 833 l 343 981 q 336 997 336 990 q 344 1013 338 1007 q 360 1018 351 1018 l 397 1018 q 414 1015 407 1018 q 426 1008 421 1013 l 521 929 l 650 1008 q 666 1015 658 1013 q 682 1018 674 1018 l 740 1018 q 756 1001 757 1018 q 743 982 756 992 l 582 847 q 553 830 564 833 q 531 826 543 826 l 489 826 z "},"ņ":{"ha":842,"x_min":19,"x_max":768,"o":"m 49 0 q 27 9 35 0 q 22 32 19 18 l 163 690 q 176 713 165 704 q 201 722 188 722 l 267 722 q 288 713 281 722 q 292 690 294 704 l 278 629 q 382 706 321 676 q 521 736 443 736 q 678 697 621 736 q 751 587 735 657 q 749 424 768 517 l 664 32 q 651 9 661 18 q 626 0 640 0 l 557 0 q 535 9 543 0 q 531 32 528 18 l 613 417 q 610 572 635 519 q 488 624 586 624 q 324 569 392 624 q 236 417 257 514 l 156 32 q 142 9 153 18 q 118 0 132 0 l 49 0 m 194 -301 q 179 -293 183 -301 q 179 -272 175 -285 l 239 -110 q 257 -81 246 -93 q 288 -69 268 -69 l 374 -69 q 390 -77 385 -69 q 392 -93 394 -85 q 388 -104 390 -99 q 382 -115 385 -110 l 289 -269 q 270 -292 281 -283 q 243 -301 260 -301 l 194 -301 z "},"ñ":{"ha":842,"x_min":19,"x_max":768,"o":"m 49 0 q 27 9 35 0 q 22 32 19 18 l 163 690 q 176 713 165 704 q 201 722 188 722 l 267 722 q 288 713 281 722 q 292 690 294 704 l 278 629 q 382 706 321 676 q 521 736 443 736 q 678 697 621 736 q 751 587 735 657 q 749 424 768 517 l 664 32 q 651 9 661 18 q 626 0 640 0 l 557 0 q 535 9 543 0 q 531 32 528 18 l 613 417 q 610 572 635 519 q 488 624 586 624 q 324 569 392 624 q 236 417 257 514 l 156 32 q 142 9 153 18 q 118 0 132 0 l 49 0 m 589 819 q 536 831 556 819 q 501 855 517 843 q 464 867 485 867 q 436 857 447 867 q 415 837 425 847 q 390 826 406 826 l 346 826 q 331 833 336 826 q 328 849 326 840 q 342 891 331 869 q 371 931 353 913 q 413 961 389 950 q 464 972 436 972 q 519 960 499 972 q 554 937 539 949 q 590 925 569 925 q 618 935 608 925 q 637 956 628 946 q 661 967 646 967 l 706 967 q 722 960 717 967 q 725 943 726 953 q 710 901 721 924 q 681 860 699 879 q 640 831 664 842 q 589 819 617 819 z "},"ŋ":{"ha":842,"x_min":19,"x_max":768,"o":"m 325 -312 q 303 -303 311 -312 q 299 -281 296 -294 l 311 -226 q 325 -203 314 -212 q 350 -194 336 -194 l 364 -194 q 444 -176 414 -194 q 490 -124 474 -157 q 514 -49 506 -90 l 613 417 q 610 572 635 519 q 488 624 586 624 q 324 569 392 624 q 236 417 257 514 l 156 32 q 142 9 153 18 q 118 0 132 0 l 49 0 q 27 9 35 0 q 22 32 19 18 l 163 690 q 176 713 165 704 q 201 722 188 722 l 267 722 q 288 713 281 722 q 292 690 294 704 l 278 629 q 382 706 321 676 q 521 736 443 736 q 678 697 621 736 q 751 587 735 657 q 749 424 768 517 l 646 -51 q 597 -188 629 -129 q 503 -280 564 -247 q 340 -312 443 -312 l 325 -312 z "},"o":{"ha":794,"x_min":32,"x_max":742,"o":"m 315 -14 q 149 26 214 -14 q 58 138 83 67 q 47 301 32 210 q 58 362 50 325 q 74 421 67 399 q 146 585 96 514 q 274 696 196 656 q 456 736 351 736 q 624 696 558 736 q 715 585 689 656 q 725 421 742 514 q 713 362 721 399 q 700 301 706 325 q 627 138 676 210 q 500 26 578 67 q 315 -14 422 -14 m 321 93 q 475 148 408 93 q 568 308 542 203 q 581 361 574 329 q 592 414 588 393 q 574 574 610 519 q 450 629 538 629 q 297 574 364 629 q 204 414 231 519 q 192 361 199 393 q 182 308 185 329 q 199 148 164 203 q 321 93 233 93 z "},"ó":{"ha":794,"x_min":32,"x_max":742,"o":"m 315 -14 q 149 26 214 -14 q 58 138 83 67 q 47 301 32 210 q 58 362 50 325 q 74 421 67 399 q 146 585 96 514 q 274 696 196 656 q 456 736 351 736 q 624 696 558 736 q 715 585 689 656 q 725 421 742 514 q 713 362 721 399 q 700 301 706 325 q 627 138 676 210 q 500 26 578 67 q 315 -14 422 -14 m 321 93 q 475 148 408 93 q 568 308 542 203 q 581 361 574 329 q 592 414 588 393 q 574 574 610 519 q 450 629 538 629 q 297 574 364 629 q 204 414 231 519 q 192 361 199 393 q 182 308 185 329 q 199 148 164 203 q 321 93 233 93 m 435 826 q 418 849 413 826 q 429 867 421 858 l 560 992 q 587 1013 576 1007 q 617 1018 597 1018 l 713 1018 q 733 996 733 1018 q 722 974 732 981 l 532 842 q 508 829 518 832 q 483 826 499 826 l 435 826 z "},"ŏ":{"ha":794,"x_min":32,"x_max":742,"o":"m 315 -14 q 149 26 214 -14 q 58 138 83 67 q 47 301 32 210 q 58 362 50 325 q 74 421 67 399 q 146 585 96 514 q 274 696 196 656 q 456 736 351 736 q 624 696 558 736 q 715 585 689 656 q 725 421 742 514 q 713 362 721 399 q 700 301 706 325 q 627 138 676 210 q 500 26 578 67 q 315 -14 422 -14 m 321 93 q 475 148 408 93 q 568 308 542 203 q 581 361 574 329 q 592 414 588 393 q 574 574 610 519 q 450 629 538 629 q 297 574 364 629 q 204 414 231 519 q 192 361 199 393 q 182 308 185 329 q 199 148 164 203 q 321 93 233 93 m 494 819 q 400 844 435 819 q 353 908 365 868 q 351 992 342 947 q 363 1010 354 1003 q 383 1018 371 1018 l 425 1018 q 443 1010 438 1018 q 446 992 449 1003 q 447 931 439 958 q 499 903 456 903 q 565 931 544 903 q 594 992 586 958 q 606 1010 597 1003 q 626 1018 614 1018 l 668 1018 q 686 1010 681 1018 q 689 992 692 1003 q 660 908 681 947 q 599 844 639 868 q 494 819 560 819 z "},"ô":{"ha":794,"x_min":32,"x_max":742,"o":"m 315 -14 q 149 26 214 -14 q 58 138 83 67 q 47 301 32 210 q 58 362 50 325 q 74 421 67 399 q 146 585 96 514 q 274 696 196 656 q 456 736 351 736 q 624 696 558 736 q 715 585 689 656 q 725 421 742 514 q 713 362 721 399 q 700 301 706 325 q 627 138 676 210 q 500 26 578 67 q 315 -14 422 -14 m 321 93 q 475 148 408 93 q 568 308 542 203 q 581 361 574 329 q 592 414 588 393 q 574 574 610 519 q 450 629 538 629 q 297 574 364 629 q 204 414 231 519 q 192 361 199 393 q 182 308 185 329 q 199 148 164 203 q 321 93 233 93 m 288 826 q 272 842 271 826 q 285 863 272 853 l 447 997 q 476 1015 465 1013 q 497 1018 486 1018 l 539 1018 q 560 1015 551 1018 q 581 997 569 1013 l 686 864 q 690 843 693 854 q 669 826 688 826 l 631 826 q 615 829 622 826 q 601 836 608 832 l 507 915 l 378 836 q 363 829 369 832 q 346 826 356 826 l 288 826 z "},"ö":{"ha":794,"x_min":32,"x_max":742,"o":"m 315 -14 q 149 26 214 -14 q 58 138 83 67 q 47 301 32 210 q 58 362 50 325 q 74 421 67 399 q 146 585 96 514 q 274 696 196 656 q 456 736 351 736 q 624 696 558 736 q 715 585 689 656 q 725 421 742 514 q 713 362 721 399 q 700 301 706 325 q 627 138 676 210 q 500 26 578 67 q 315 -14 422 -14 m 321 93 q 475 148 408 93 q 568 308 542 203 q 581 361 574 329 q 592 414 588 393 q 574 574 610 519 q 450 629 538 629 q 297 574 364 629 q 204 414 231 519 q 192 361 199 393 q 182 308 185 329 q 199 148 164 203 q 321 93 233 93 m 572 863 q 552 871 558 863 q 547 893 546 879 l 564 968 q 577 991 567 982 q 601 1000 588 1000 l 676 1000 q 698 991 690 1000 q 703 968 706 982 l 685 893 q 672 871 682 879 q 647 863 661 863 l 572 863 m 338 863 q 317 871 324 863 q 313 893 311 879 l 329 968 q 342 991 332 982 q 367 1000 353 1000 l 442 1000 q 463 991 456 1000 q 468 968 471 982 l 450 893 q 437 871 447 879 q 413 863 426 863 l 338 863 z "},"ò":{"ha":794,"x_min":32,"x_max":742,"o":"m 315 -14 q 149 26 214 -14 q 58 138 83 67 q 47 301 32 210 q 58 362 50 325 q 74 421 67 399 q 146 585 96 514 q 274 696 196 656 q 456 736 351 736 q 624 696 558 736 q 715 585 689 656 q 725 421 742 514 q 713 362 721 399 q 700 301 706 325 q 627 138 676 210 q 500 26 578 67 q 315 -14 422 -14 m 321 93 q 475 148 408 93 q 568 308 542 203 q 581 361 574 329 q 592 414 588 393 q 574 574 610 519 q 450 629 538 629 q 297 574 364 629 q 204 414 231 519 q 192 361 199 393 q 182 308 185 329 q 199 148 164 203 q 321 93 233 93 m 479 826 q 455 829 464 826 q 436 842 446 832 l 306 971 q 300 992 297 981 q 329 1018 306 1018 l 429 1018 q 458 1013 449 1018 q 475 992 467 1007 l 551 869 q 554 847 557 858 q 528 826 550 826 l 479 826 z "},"ő":{"ha":794,"x_min":32,"x_max":794,"o":"m 315 -14 q 149 26 214 -14 q 58 138 83 67 q 47 301 32 210 q 58 362 50 325 q 74 421 67 399 q 146 585 96 514 q 274 696 196 656 q 456 736 351 736 q 624 696 558 736 q 715 585 689 656 q 725 421 742 514 q 713 362 721 399 q 700 301 706 325 q 627 138 676 210 q 500 26 578 67 q 315 -14 422 -14 m 321 93 q 475 148 408 93 q 568 308 542 203 q 581 361 574 329 q 592 414 588 393 q 574 574 610 519 q 450 629 538 629 q 297 574 364 629 q 204 414 231 519 q 192 361 199 393 q 182 308 185 329 q 199 148 164 203 q 321 93 233 93 m 561 826 q 542 843 542 826 q 545 852 543 847 q 550 861 547 857 l 636 992 q 658 1012 644 1006 q 693 1018 671 1018 l 771 1018 q 793 997 794 1018 q 783 975 793 985 l 644 846 q 597 826 622 826 l 561 826 m 333 826 q 314 843 314 826 q 317 852 314 847 q 322 861 319 857 l 408 992 q 430 1012 417 1006 q 465 1018 443 1018 l 543 1018 q 565 997 567 1018 q 556 975 565 985 l 415 846 q 369 826 393 826 l 333 826 z "},"ō":{"ha":794,"x_min":32,"x_max":742,"o":"m 315 -14 q 149 26 214 -14 q 58 138 83 67 q 47 301 32 210 q 58 362 50 325 q 74 421 67 399 q 146 585 96 514 q 274 696 196 656 q 456 736 351 736 q 624 696 558 736 q 715 585 689 656 q 725 421 742 514 q 713 362 721 399 q 700 301 706 325 q 627 138 676 210 q 500 26 578 67 q 315 -14 422 -14 m 321 93 q 475 148 408 93 q 568 308 542 203 q 581 361 574 329 q 592 414 588 393 q 574 574 610 519 q 450 629 538 629 q 297 574 364 629 q 204 414 231 519 q 192 361 199 393 q 182 308 185 329 q 199 148 164 203 q 321 93 233 93 m 336 857 q 316 865 322 857 q 311 888 310 874 l 321 931 q 334 953 324 944 q 358 961 344 961 l 668 961 q 688 953 682 961 q 692 931 694 944 l 682 888 q 670 865 681 874 q 646 857 660 857 l 336 857 z "},"ø":{"ha":794,"x_min":1,"x_max":792,"o":"m 315 -14 q 149 26 214 -14 q 58 138 83 67 q 47 301 32 210 q 58 362 50 325 q 74 421 67 399 q 146 585 96 514 q 274 696 196 656 q 456 736 351 736 q 624 696 558 736 q 715 585 689 656 q 725 421 742 514 q 713 362 721 399 q 700 301 706 325 q 627 138 676 210 q 500 26 578 67 q 315 -14 422 -14 m 321 93 q 475 148 408 93 q 568 308 542 203 q 581 361 574 329 q 592 414 588 393 q 574 574 610 519 q 450 629 538 629 q 297 574 364 629 q 204 414 231 519 q 192 361 199 393 q 182 308 185 329 q 199 148 164 203 q 321 93 233 93 m 25 -39 q 10 -33 18 -39 q 1 -17 1 -26 q 13 4 1 -6 l 699 739 q 716 753 707 747 q 740 760 725 760 l 769 760 q 785 753 778 760 q 792 739 792 747 q 782 718 792 728 l 96 -18 q 78 -33 88 -26 q 54 -39 69 -39 l 25 -39 z "},"ǿ":{"ha":794,"x_min":1,"x_max":792,"o":"m 315 -14 q 149 26 214 -14 q 58 138 83 67 q 47 301 32 210 q 58 362 50 325 q 74 421 67 399 q 146 585 96 514 q 274 696 196 656 q 456 736 351 736 q 624 696 558 736 q 715 585 689 656 q 725 421 742 514 q 713 362 721 399 q 700 301 706 325 q 627 138 676 210 q 500 26 578 67 q 315 -14 422 -14 m 321 93 q 475 148 408 93 q 568 308 542 203 q 581 361 574 329 q 592 414 588 393 q 574 574 610 519 q 450 629 538 629 q 297 574 364 629 q 204 414 231 519 q 192 361 199 393 q 182 308 185 329 q 199 148 164 203 q 321 93 233 93 m 25 -39 q 10 -33 18 -39 q 1 -17 1 -26 q 13 4 1 -6 l 699 739 q 716 753 707 747 q 740 760 725 760 l 769 760 q 785 753 778 760 q 792 739 792 747 q 782 718 792 728 l 96 -18 q 78 -33 88 -26 q 54 -39 69 -39 l 25 -39 m 446 826 q 429 849 424 826 q 440 867 432 858 l 571 992 q 598 1013 588 1007 q 628 1018 608 1018 l 724 1018 q 744 996 744 1018 q 733 974 743 981 l 543 842 q 519 829 529 832 q 494 826 510 826 l 446 826 z "},"õ":{"ha":794,"x_min":32,"x_max":742,"o":"m 315 -14 q 149 26 214 -14 q 58 138 83 67 q 47 301 32 210 q 58 362 50 325 q 74 421 67 399 q 146 585 96 514 q 274 696 196 656 q 456 736 351 736 q 624 696 558 736 q 715 585 689 656 q 725 421 742 514 q 713 362 721 399 q 700 301 706 325 q 627 138 676 210 q 500 26 578 67 q 315 -14 422 -14 m 321 93 q 475 148 408 93 q 568 308 542 203 q 581 361 574 329 q 592 414 588 393 q 574 574 610 519 q 450 629 538 629 q 297 574 364 629 q 204 414 231 519 q 192 361 199 393 q 182 308 185 329 q 199 148 164 203 q 321 93 233 93 m 565 819 q 513 831 532 819 q 477 855 493 843 q 440 867 461 867 q 413 857 424 867 q 392 837 401 847 q 367 826 382 826 l 322 826 q 308 833 313 826 q 304 849 303 840 q 318 891 307 869 q 347 931 329 913 q 389 961 365 950 q 440 972 413 972 q 495 960 475 972 q 531 937 515 949 q 567 925 546 925 q 594 935 585 925 q 613 956 604 946 q 638 967 622 967 l 682 967 q 698 960 693 967 q 701 943 703 953 q 686 901 697 924 q 658 860 675 879 q 617 831 640 842 q 565 819 593 819 z "},"œ":{"ha":1301,"x_min":54,"x_max":1276,"o":"m 329 -14 q 161 26 224 -14 q 76 138 99 67 q 71 301 54 210 q 81 362 74 325 q 94 421 89 399 q 172 585 118 514 q 305 696 225 656 q 489 736 385 736 q 642 699 583 736 q 724 600 700 663 q 848 700 776 664 q 1006 736 919 736 q 1173 692 1111 736 q 1256 565 1235 647 q 1253 374 1276 483 l 1247 350 q 1233 326 1244 335 q 1207 318 1221 318 l 728 318 l 725 306 q 728 199 717 249 q 774 119 739 150 q 868 89 810 89 q 950 104 914 89 q 1010 138 986 119 q 1043 168 1033 157 q 1067 188 1060 185 q 1092 192 1075 192 l 1158 192 q 1178 184 1171 192 q 1182 163 1185 176 q 1149 112 1176 142 q 1078 53 1122 82 q 974 5 1033 24 q 847 -14 915 -14 q 704 22 761 -14 q 621 119 647 57 q 497 22 569 58 q 329 -14 424 -14 m 351 93 q 501 148 438 93 q 592 308 564 203 q 603 361 597 329 q 613 414 610 393 q 592 574 632 519 q 467 629 553 629 q 316 574 379 629 q 226 414 253 519 q 214 361 221 393 q 204 308 207 329 q 225 148 185 203 q 351 93 265 93 m 749 414 l 1128 414 l 1129 418 q 1130 529 1143 481 q 1081 606 1117 578 q 985 635 1044 635 q 876 606 925 635 q 796 529 828 578 q 750 418 764 481 l 749 414 z "},"p":{"ha":825,"x_min":-36,"x_max":765,"o":"m -7 -264 q -28 -255 -21 -264 q -33 -232 -36 -246 l 164 690 q 177 713 167 704 q 201 722 188 722 l 265 722 q 286 713 279 722 q 290 690 293 704 l 278 629 q 375 706 322 675 q 517 736 428 736 q 644 709 593 736 q 723 635 696 682 q 758 529 750 589 q 754 403 765 469 q 747 361 751 381 q 736 319 743 342 q 691 196 719 256 q 619 88 663 136 q 515 13 575 40 q 375 -14 454 -14 q 241 16 290 -14 q 168 90 192 46 l 99 -232 q 85 -255 96 -246 q 61 -264 75 -264 l -7 -264 m 361 99 q 476 130 428 99 q 555 213 524 161 q 603 321 586 264 q 614 361 610 342 q 621 401 618 381 q 623 510 629 460 q 585 592 617 561 q 488 624 554 624 q 366 592 418 624 q 281 510 314 560 q 235 410 249 461 q 223 357 229 388 q 213 303 217 326 q 214 207 204 254 q 259 129 224 160 q 361 99 294 99 z "},"þ":{"ha":825,"x_min":-36,"x_max":765,"o":"m -7 -264 q -28 -255 -21 -264 q -33 -232 -36 -246 l 221 954 q 234 977 224 968 q 258 986 244 986 l 326 986 q 347 978 340 986 q 351 954 354 969 l 282 632 q 374 705 321 674 q 517 736 428 736 q 644 709 593 736 q 723 635 696 682 q 758 529 750 589 q 754 403 765 469 q 747 361 751 381 q 736 319 743 342 q 691 196 719 256 q 619 88 663 136 q 515 13 575 40 q 375 -14 454 -14 q 241 16 290 -14 q 168 90 192 46 l 99 -232 q 85 -255 96 -246 q 61 -264 75 -264 l -7 -264 m 361 99 q 476 130 428 99 q 555 213 524 161 q 603 321 586 264 q 614 361 610 342 q 621 401 618 381 q 623 510 629 460 q 585 592 617 561 q 488 624 554 624 q 366 592 418 624 q 281 510 314 560 q 235 410 249 461 q 223 357 229 388 q 213 303 217 326 q 214 207 204 254 q 259 129 224 160 q 361 99 294 99 z "},"q":{"ha":826,"x_min":39,"x_max":783,"o":"m 479 -264 q 458 -255 465 -264 q 454 -232 451 -246 l 522 90 q 426 16 481 46 q 290 -14 371 -14 q 161 13 213 -14 q 82 85 110 40 q 47 190 54 131 q 50 314 39 249 q 58 361 53 336 q 69 408 64 386 q 137 572 92 497 q 254 691 182 646 q 429 736 326 736 q 565 706 513 736 q 640 629 618 675 l 654 690 q 668 713 657 704 q 693 722 679 722 l 756 722 q 777 713 771 722 q 781 690 783 704 l 586 -232 q 572 -255 583 -246 q 546 -264 561 -264 l 479 -264 m 318 99 q 438 129 386 99 q 523 207 489 160 q 568 303 557 254 q 581 357 574 326 q 590 410 588 388 q 591 510 600 461 q 547 592 582 560 q 444 624 513 624 q 328 592 376 624 q 249 510 281 561 q 201 401 218 460 q 191 361 196 381 q 183 321 186 342 q 180 212 175 263 q 217 130 185 161 q 318 99 249 99 z "},"r":{"ha":531,"x_min":19,"x_max":574,"o":"m 49 0 q 27 9 35 0 q 22 32 19 18 l 163 689 q 176 713 165 703 q 201 722 188 722 l 265 722 q 287 713 279 722 q 292 689 294 703 l 278 628 q 364 699 311 675 q 488 722 417 722 l 547 722 q 567 713 561 722 q 571 690 574 704 l 560 633 q 547 611 557 619 q 521 603 536 603 l 439 603 q 311 559 364 603 q 242 440 258 515 l 156 32 q 142 9 153 18 q 117 0 131 0 l 49 0 z "},"ŕ":{"ha":531,"x_min":19,"x_max":629,"o":"m 49 0 q 27 9 35 0 q 22 32 19 18 l 163 689 q 176 713 165 703 q 201 722 188 722 l 265 722 q 287 713 279 722 q 292 689 294 703 l 278 628 q 364 699 311 675 q 488 722 417 722 l 547 722 q 567 713 561 722 q 571 690 574 704 l 560 633 q 547 611 557 619 q 521 603 536 603 l 439 603 q 311 559 364 603 q 242 440 258 515 l 156 32 q 142 9 153 18 q 117 0 131 0 l 49 0 m 331 826 q 314 849 308 826 q 325 867 317 858 l 456 992 q 483 1013 472 1007 q 513 1018 493 1018 l 608 1018 q 629 996 629 1018 q 618 974 628 981 l 428 842 q 404 829 414 832 q 379 826 394 826 l 331 826 z "},"ř":{"ha":531,"x_min":19,"x_max":629,"o":"m 49 0 q 27 9 35 0 q 22 32 19 18 l 163 689 q 176 713 165 703 q 201 722 188 722 l 265 722 q 287 713 279 722 q 292 689 294 703 l 278 628 q 364 699 311 675 q 488 722 417 722 l 547 722 q 567 713 561 722 q 571 690 574 704 l 560 633 q 547 611 557 619 q 521 603 536 603 l 439 603 q 311 559 364 603 q 242 440 258 515 l 156 32 q 142 9 153 18 q 117 0 131 0 l 49 0 m 361 826 q 340 830 350 826 q 319 847 331 833 l 215 981 q 208 997 208 990 q 217 1013 210 1007 q 232 1018 224 1018 l 269 1018 q 286 1015 279 1018 q 299 1008 293 1013 l 393 929 l 522 1008 q 538 1015 531 1013 q 554 1018 546 1018 l 613 1018 q 628 1001 629 1018 q 615 982 628 992 l 454 847 q 426 830 436 833 q 403 826 415 826 l 361 826 z "},"ŗ":{"ha":531,"x_min":-82,"x_max":574,"o":"m 49 0 q 27 9 35 0 q 22 32 19 18 l 163 689 q 176 713 165 703 q 201 722 188 722 l 265 722 q 287 713 279 722 q 292 689 294 703 l 278 628 q 364 699 311 675 q 488 722 417 722 l 547 722 q 567 713 561 722 q 571 690 574 704 l 560 633 q 547 611 557 619 q 521 603 536 603 l 439 603 q 311 559 364 603 q 242 440 258 515 l 156 32 q 142 9 153 18 q 117 0 131 0 l 49 0 m -62 -301 q -78 -293 -74 -301 q -78 -272 -82 -285 l -18 -110 q 0 -81 -11 -93 q 31 -69 11 -69 l 117 -69 q 133 -77 128 -69 q 135 -93 138 -85 q 131 -104 133 -99 q 125 -115 128 -110 l 32 -269 q 13 -292 24 -283 q -14 -301 3 -301 l -62 -301 z "},"s":{"ha":708,"x_min":22,"x_max":679,"o":"m 282 -14 q 153 6 204 -14 q 72 53 101 25 q 33 108 43 81 q 24 153 22 136 q 38 176 26 168 q 61 185 50 185 l 124 185 q 136 183 131 185 q 146 171 142 181 q 178 132 160 151 q 226 100 196 113 q 306 88 256 88 q 427 115 375 88 q 490 194 479 142 q 482 250 497 229 q 424 288 467 271 q 300 322 381 304 q 178 370 221 342 q 124 438 136 399 q 122 528 113 478 q 174 627 135 579 q 280 706 214 675 q 435 736 346 736 q 555 718 507 736 q 631 673 603 700 q 669 619 658 646 q 676 575 679 593 q 663 552 675 561 q 639 543 651 543 l 582 543 q 566 547 572 543 q 557 557 560 551 q 531 593 546 575 q 490 623 517 611 q 414 635 463 635 q 303 606 344 635 q 253 532 263 576 q 258 485 247 506 q 308 447 268 464 q 428 411 347 431 q 562 363 515 393 q 622 292 608 332 q 625 199 636 251 q 569 92 614 140 q 452 15 525 43 q 282 -14 379 -14 z "},"ś":{"ha":708,"x_min":22,"x_max":683,"o":"m 282 -14 q 153 6 204 -14 q 72 53 101 25 q 33 108 43 81 q 24 153 22 136 q 38 176 26 168 q 61 185 50 185 l 124 185 q 136 183 131 185 q 146 171 142 181 q 178 132 160 151 q 226 100 196 113 q 306 88 256 88 q 427 115 375 88 q 490 194 479 142 q 482 250 497 229 q 424 288 467 271 q 300 322 381 304 q 178 370 221 342 q 124 438 136 399 q 122 528 113 478 q 174 627 135 579 q 280 706 214 675 q 435 736 346 736 q 555 718 507 736 q 631 673 603 700 q 669 619 658 646 q 676 575 679 593 q 663 552 675 561 q 639 543 651 543 l 582 543 q 566 547 572 543 q 557 557 560 551 q 531 593 546 575 q 490 623 517 611 q 414 635 463 635 q 303 606 344 635 q 253 532 263 576 q 258 485 247 506 q 308 447 268 464 q 428 411 347 431 q 562 363 515 393 q 622 292 608 332 q 625 199 636 251 q 569 92 614 140 q 452 15 525 43 q 282 -14 379 -14 m 385 826 q 368 849 363 826 q 379 867 371 858 l 510 992 q 537 1013 526 1007 q 567 1018 547 1018 l 663 1018 q 683 996 683 1018 q 672 974 682 981 l 482 842 q 458 829 468 832 q 433 826 449 826 l 385 826 z "},"š":{"ha":708,"x_min":22,"x_max":683,"o":"m 282 -14 q 153 6 204 -14 q 72 53 101 25 q 33 108 43 81 q 24 153 22 136 q 38 176 26 168 q 61 185 50 185 l 124 185 q 136 183 131 185 q 146 171 142 181 q 178 132 160 151 q 226 100 196 113 q 306 88 256 88 q 427 115 375 88 q 490 194 479 142 q 482 250 497 229 q 424 288 467 271 q 300 322 381 304 q 178 370 221 342 q 124 438 136 399 q 122 528 113 478 q 174 627 135 579 q 280 706 214 675 q 435 736 346 736 q 555 718 507 736 q 631 673 603 700 q 669 619 658 646 q 676 575 679 593 q 663 552 675 561 q 639 543 651 543 l 582 543 q 566 547 572 543 q 557 557 560 551 q 531 593 546 575 q 490 623 517 611 q 414 635 463 635 q 303 606 344 635 q 253 532 263 576 q 258 485 247 506 q 308 447 268 464 q 428 411 347 431 q 562 363 515 393 q 622 292 608 332 q 625 199 636 251 q 569 92 614 140 q 452 15 525 43 q 282 -14 379 -14 m 415 826 q 394 830 404 826 q 374 847 385 833 l 269 981 q 263 997 263 990 q 271 1013 264 1007 q 286 1018 278 1018 l 324 1018 q 340 1015 333 1018 q 353 1008 347 1013 l 447 929 l 576 1008 q 592 1015 585 1013 q 608 1018 600 1018 l 667 1018 q 682 1001 683 1018 q 669 982 682 992 l 508 847 q 480 830 490 833 q 457 826 469 826 l 415 826 z "},"ş":{"ha":708,"x_min":21,"x_max":679,"o":"m 250 -306 q 184 -292 211 -304 q 148 -262 157 -279 q 153 -235 139 -246 l 178 -215 q 200 -210 192 -204 q 222 -226 208 -217 q 265 -236 236 -236 q 308 -222 288 -236 q 332 -185 328 -208 q 324 -149 338 -162 q 288 -136 310 -136 q 262 -142 275 -136 q 238 -149 249 -147 q 218 -140 226 -151 l 201 -115 q 198 -95 194 -107 q 208 -72 201 -83 l 244 -11 q 106 28 156 -3 q 39 96 57 60 q 24 153 21 132 q 38 176 26 168 q 61 185 50 185 l 121 185 q 135 183 129 185 q 144 171 140 181 q 177 132 158 151 q 226 100 196 113 q 306 88 256 88 q 427 115 375 88 q 490 194 479 142 q 482 250 497 229 q 424 288 467 271 q 300 322 381 304 q 178 370 221 342 q 124 438 136 399 q 122 528 113 478 q 174 627 135 579 q 280 706 214 675 q 435 736 346 736 q 555 718 507 736 q 631 673 603 700 q 669 619 658 646 q 676 575 679 593 q 663 552 675 561 q 639 543 651 543 l 581 543 q 565 547 571 543 q 557 557 560 551 q 531 593 546 575 q 490 623 517 611 q 414 635 463 635 q 303 606 344 635 q 253 532 263 576 q 258 485 247 506 q 308 447 268 464 q 428 411 347 431 q 562 363 515 393 q 622 292 608 332 q 625 199 636 251 q 528 55 607 115 q 318 -14 449 -6 l 286 -72 q 307 -68 296 -69 q 326 -67 318 -67 q 397 -99 374 -67 q 408 -183 419 -132 q 357 -270 399 -233 q 250 -306 315 -307 z "},"ŝ":{"ha":708,"x_min":22,"x_max":679,"o":"m 282 -14 q 153 6 204 -14 q 72 53 101 25 q 33 108 43 81 q 24 153 22 136 q 38 176 26 168 q 61 185 50 185 l 124 185 q 136 183 131 185 q 146 171 142 181 q 178 132 160 151 q 226 100 196 113 q 306 88 256 88 q 427 115 375 88 q 490 194 479 142 q 482 250 497 229 q 424 288 467 271 q 300 322 381 304 q 178 370 221 342 q 124 438 136 399 q 122 528 113 478 q 174 627 135 579 q 280 706 214 675 q 435 736 346 736 q 555 718 507 736 q 631 673 603 700 q 669 619 658 646 q 676 575 679 593 q 663 552 675 561 q 639 543 651 543 l 582 543 q 566 547 572 543 q 557 557 560 551 q 531 593 546 575 q 490 623 517 611 q 414 635 463 635 q 303 606 344 635 q 253 532 263 576 q 258 485 247 506 q 308 447 268 464 q 428 411 347 431 q 562 363 515 393 q 622 292 608 332 q 625 199 636 251 q 569 92 614 140 q 452 15 525 43 q 282 -14 379 -14 m 238 826 q 222 842 221 826 q 235 863 222 853 l 397 997 q 426 1015 415 1013 q 447 1018 436 1018 l 489 1018 q 510 1015 501 1018 q 531 997 519 1013 l 636 864 q 640 843 643 854 q 619 826 638 826 l 581 826 q 565 829 572 826 q 551 836 558 832 l 457 915 l 328 836 q 313 829 319 832 q 296 826 306 826 l 238 826 z "},"ș":{"ha":708,"x_min":22,"x_max":679,"o":"m 282 -14 q 153 6 204 -14 q 72 53 101 25 q 33 108 43 81 q 24 153 22 136 q 38 176 26 168 q 61 185 50 185 l 124 185 q 136 183 131 185 q 146 171 142 181 q 178 132 160 151 q 226 100 196 113 q 306 88 256 88 q 427 115 375 88 q 490 194 479 142 q 482 250 497 229 q 424 288 467 271 q 300 322 381 304 q 178 370 221 342 q 124 438 136 399 q 122 528 113 478 q 174 627 135 579 q 280 706 214 675 q 435 736 346 736 q 555 718 507 736 q 631 673 603 700 q 669 619 658 646 q 676 575 679 593 q 663 552 675 561 q 639 543 651 543 l 582 543 q 566 547 572 543 q 557 557 560 551 q 531 593 546 575 q 490 623 517 611 q 414 635 463 635 q 303 606 344 635 q 253 532 263 576 q 258 485 247 506 q 308 447 268 464 q 428 411 347 431 q 562 363 515 393 q 622 292 608 332 q 625 199 636 251 q 569 92 614 140 q 452 15 525 43 q 282 -14 379 -14 m 154 -301 q 139 -293 143 -301 q 139 -272 135 -285 l 199 -110 q 217 -81 206 -93 q 247 -69 228 -69 l 333 -69 q 349 -77 344 -69 q 351 -93 354 -85 q 347 -104 350 -99 q 342 -115 344 -110 l 249 -269 q 230 -292 240 -283 q 203 -301 219 -301 l 154 -301 z "},"ß":{"ha":818,"x_min":40,"x_max":813,"o":"m 68 0 q 47 9 54 0 q 43 32 40 18 l 182 685 q 245 833 200 765 q 367 944 290 901 q 551 986 443 986 q 718 947 660 986 q 794 848 776 907 q 799 726 813 789 q 761 631 788 671 q 702 564 735 590 q 639 524 669 538 q 722 466 696 503 q 752 382 747 429 q 746 285 757 335 q 706 188 735 238 q 631 94 678 138 q 519 26 585 51 q 368 0 454 0 l 275 0 q 252 9 258 0 q 249 32 246 18 l 258 78 q 272 101 261 92 q 299 110 283 110 l 372 110 q 535 161 472 110 q 613 288 597 213 q 589 415 629 363 q 447 467 549 467 l 372 467 q 351 475 357 467 q 347 499 344 483 l 357 539 q 369 562 360 553 q 394 571 378 571 l 457 571 q 603 612 550 572 q 671 724 657 651 q 647 833 686 790 q 528 876 607 876 q 390 828 449 876 q 311 681 332 781 l 172 32 q 158 9 169 18 q 133 0 147 0 l 68 0 z "},"ſ":{"ha":404,"x_min":67,"x_max":650,"o":"m 115 0 q 94 9 101 0 q 90 32 88 18 l 214 611 l 94 611 q 74 620 81 611 q 69 643 67 629 l 79 690 q 93 713 82 704 q 118 722 104 722 l 236 722 l 251 792 q 303 916 267 863 q 394 999 339 969 q 528 1028 450 1028 l 624 1028 q 644 1019 638 1028 q 647 996 650 1010 l 638 949 q 624 926 635 935 q 599 917 613 917 l 526 917 q 427 883 463 917 q 378 785 392 849 l 218 32 q 205 9 215 18 q 181 0 194 0 l 115 0 z "},"t":{"ha":533,"x_min":65,"x_max":554,"o":"m 304 0 q 168 30 213 0 q 116 115 124 60 q 124 244 108 169 l 201 611 l 93 611 q 72 620 79 611 q 68 643 65 629 l 78 690 q 92 713 81 704 q 117 722 103 722 l 225 722 l 275 954 q 288 977 278 968 q 313 986 299 986 l 378 986 q 399 977 392 986 q 403 954 406 968 l 354 722 l 526 722 q 547 713 540 722 q 551 690 554 704 l 542 643 q 528 620 539 629 q 503 611 517 611 l 331 611 l 254 254 q 243 179 246 211 q 257 131 240 147 q 319 114 274 114 l 411 114 q 431 105 425 114 q 435 82 438 96 l 425 32 q 412 9 422 18 q 388 0 401 0 l 304 0 z "},"ŧ":{"ha":543,"x_min":31,"x_max":561,"o":"m 310 0 q 174 30 217 0 q 123 115 131 60 q 131 244 115 169 l 167 413 l 58 413 q 37 421 43 413 q 33 444 31 429 l 39 474 q 52 497 42 488 q 76 506 63 506 l 186 506 l 213 629 l 104 629 q 83 638 90 629 q 78 661 76 647 l 85 690 q 99 713 88 704 q 124 722 110 722 l 232 722 l 282 954 q 295 977 285 968 q 319 986 306 986 l 385 986 q 406 977 399 986 q 411 954 414 968 l 361 722 l 533 722 q 554 713 547 722 q 558 690 561 704 l 551 661 q 539 638 550 647 q 514 629 528 629 l 342 629 l 314 506 l 488 506 q 508 497 501 506 q 513 474 515 488 l 507 444 q 493 421 504 429 q 468 413 482 413 l 294 413 l 261 254 q 251 179 253 211 q 265 131 249 147 q 326 114 281 114 l 418 114 q 439 105 432 114 q 443 82 446 96 l 432 32 q 419 9 429 18 q 394 0 408 0 l 310 0 z "},"ť":{"ha":533,"x_min":65,"x_max":714,"o":"m 304 0 q 168 30 213 0 q 116 115 124 60 q 124 244 108 169 l 201 611 l 93 611 q 72 620 79 611 q 68 643 65 629 l 78 690 q 92 713 81 704 q 117 722 103 722 l 225 722 l 275 954 q 288 977 278 968 q 313 986 299 986 l 378 986 q 399 977 392 986 q 403 954 406 968 l 354 722 l 526 722 q 547 713 540 722 q 551 690 554 704 l 542 643 q 528 620 539 629 q 503 611 517 611 l 331 611 l 254 254 q 243 179 246 211 q 257 131 240 147 q 319 114 274 114 l 411 114 q 431 105 425 114 q 435 82 438 96 l 425 32 q 412 9 422 18 q 388 0 401 0 l 304 0 m 515 849 q 499 857 503 849 q 499 878 496 865 l 558 1040 q 576 1069 565 1057 q 607 1081 588 1081 l 694 1081 q 709 1073 704 1081 q 711 1057 714 1065 q 708 1046 710 1051 q 701 1035 706 1040 l 610 881 q 590 858 600 867 q 563 849 581 849 l 515 849 z "},"ț":{"ha":533,"x_min":65,"x_max":554,"o":"m 304 0 q 168 30 213 0 q 116 115 124 60 q 124 244 108 169 l 201 611 l 93 611 q 72 620 79 611 q 68 643 65 629 l 78 690 q 92 713 81 704 q 117 722 103 722 l 225 722 l 275 954 q 288 977 278 968 q 313 986 299 986 l 378 986 q 399 977 392 986 q 403 954 406 968 l 354 722 l 526 722 q 547 713 540 722 q 551 690 554 704 l 542 643 q 528 620 539 629 q 503 611 517 611 l 331 611 l 254 254 q 243 179 246 211 q 257 131 240 147 q 319 114 274 114 l 411 114 q 431 105 425 114 q 435 82 438 96 l 425 32 q 412 9 422 18 q 388 0 401 0 l 304 0 m 103 -301 q 88 -293 92 -301 q 88 -272 83 -285 l 147 -110 q 165 -81 154 -93 q 196 -69 176 -69 l 282 -69 q 298 -77 293 -69 q 300 -93 303 -85 q 296 -104 299 -99 q 290 -115 293 -110 l 197 -269 q 178 -292 189 -283 q 151 -301 168 -301 l 103 -301 z "},"u":{"ha":836,"x_min":54,"x_max":794,"o":"m 297 -14 q 142 26 199 -14 q 70 136 86 65 q 72 299 54 207 l 156 690 q 169 713 158 704 q 194 722 181 722 l 264 722 q 284 713 278 722 q 288 690 290 704 l 207 306 q 197 191 192 238 q 233 122 201 144 q 331 99 264 99 q 489 153 421 99 q 578 306 557 208 l 660 690 q 674 713 663 704 q 699 722 685 722 l 767 722 q 788 713 782 722 q 792 690 794 704 l 651 32 q 639 9 649 18 q 614 0 629 0 l 550 0 q 528 9 536 0 q 524 32 521 18 l 536 93 q 474 37 506 61 q 401 -1 442 13 q 297 -14 360 -14 z "},"ú":{"ha":836,"x_min":54,"x_max":794,"o":"m 297 -14 q 142 26 199 -14 q 70 136 86 65 q 72 299 54 207 l 156 690 q 169 713 158 704 q 194 722 181 722 l 264 722 q 284 713 278 722 q 288 690 290 704 l 207 306 q 197 191 192 238 q 233 122 201 144 q 331 99 264 99 q 489 153 421 99 q 578 306 557 208 l 660 690 q 674 713 663 704 q 699 722 685 722 l 767 722 q 788 713 782 722 q 792 690 794 704 l 651 32 q 639 9 649 18 q 614 0 629 0 l 550 0 q 528 9 536 0 q 524 32 521 18 l 536 93 q 474 37 506 61 q 401 -1 442 13 q 297 -14 360 -14 m 439 826 q 422 849 417 826 q 433 867 425 858 l 564 992 q 591 1013 581 1007 q 621 1018 601 1018 l 717 1018 q 738 996 738 1018 q 726 974 736 981 l 536 842 q 513 829 522 832 q 488 826 503 826 l 439 826 z "},"ŭ":{"ha":836,"x_min":54,"x_max":794,"o":"m 297 -14 q 142 26 199 -14 q 70 136 86 65 q 72 299 54 207 l 156 690 q 169 713 158 704 q 194 722 181 722 l 264 722 q 284 713 278 722 q 288 690 290 704 l 207 306 q 197 191 192 238 q 233 122 201 144 q 331 99 264 99 q 489 153 421 99 q 578 306 557 208 l 660 690 q 674 713 663 704 q 699 722 685 722 l 767 722 q 788 713 782 722 q 792 690 794 704 l 651 32 q 639 9 649 18 q 614 0 629 0 l 550 0 q 528 9 536 0 q 524 32 521 18 l 536 93 q 474 37 506 61 q 401 -1 442 13 q 297 -14 360 -14 m 500 819 q 406 844 440 819 q 359 908 371 868 q 357 992 347 947 q 368 1010 360 1003 q 389 1018 376 1018 l 431 1018 q 449 1010 443 1018 q 451 992 454 1003 q 453 931 444 958 q 504 903 461 903 q 571 931 550 903 q 600 992 592 958 q 611 1010 603 1003 q 632 1018 619 1018 l 674 1018 q 692 1010 686 1018 q 694 992 697 1003 q 665 908 686 947 q 605 844 644 868 q 500 819 565 819 z "},"û":{"ha":836,"x_min":54,"x_max":794,"o":"m 297 -14 q 142 26 199 -14 q 70 136 86 65 q 72 299 54 207 l 156 690 q 169 713 158 704 q 194 722 181 722 l 264 722 q 284 713 278 722 q 288 690 290 704 l 207 306 q 197 191 192 238 q 233 122 201 144 q 331 99 264 99 q 489 153 421 99 q 578 306 557 208 l 660 690 q 674 713 663 704 q 699 722 685 722 l 767 722 q 788 713 782 722 q 792 690 794 704 l 651 32 q 639 9 649 18 q 614 0 629 0 l 550 0 q 528 9 536 0 q 524 32 521 18 l 536 93 q 474 37 506 61 q 401 -1 442 13 q 297 -14 360 -14 m 292 826 q 276 842 275 826 q 289 863 276 853 l 451 997 q 480 1015 469 1013 q 501 1018 490 1018 l 543 1018 q 565 1015 556 1018 q 585 997 574 1013 l 690 864 q 694 843 697 854 q 674 826 692 826 l 635 826 q 619 829 626 826 q 606 836 613 832 l 511 915 l 382 836 q 367 829 374 832 q 350 826 360 826 l 292 826 z "},"ü":{"ha":836,"x_min":54,"x_max":794,"o":"m 297 -14 q 142 26 199 -14 q 70 136 86 65 q 72 299 54 207 l 156 690 q 169 713 158 704 q 194 722 181 722 l 264 722 q 284 713 278 722 q 288 690 290 704 l 207 306 q 197 191 192 238 q 233 122 201 144 q 331 99 264 99 q 489 153 421 99 q 578 306 557 208 l 660 690 q 674 713 663 704 q 699 722 685 722 l 767 722 q 788 713 782 722 q 792 690 794 704 l 651 32 q 639 9 649 18 q 614 0 629 0 l 550 0 q 528 9 536 0 q 524 32 521 18 l 536 93 q 474 37 506 61 q 401 -1 442 13 q 297 -14 360 -14 m 576 863 q 556 871 563 863 q 551 893 550 879 l 568 968 q 581 991 571 982 q 606 1000 592 1000 l 681 1000 q 702 991 694 1000 q 707 968 710 982 l 689 893 q 676 871 686 879 q 651 863 665 863 l 576 863 m 342 863 q 322 871 328 863 q 317 893 315 879 l 333 968 q 347 991 336 982 q 371 1000 357 1000 l 446 1000 q 467 991 460 1000 q 472 968 475 982 l 454 893 q 441 871 451 879 q 417 863 431 863 l 342 863 z "},"ù":{"ha":836,"x_min":54,"x_max":794,"o":"m 297 -14 q 142 26 199 -14 q 70 136 86 65 q 72 299 54 207 l 156 690 q 169 713 158 704 q 194 722 181 722 l 264 722 q 284 713 278 722 q 288 690 290 704 l 207 306 q 197 191 192 238 q 233 122 201 144 q 331 99 264 99 q 489 153 421 99 q 578 306 557 208 l 660 690 q 674 713 663 704 q 699 722 685 722 l 767 722 q 788 713 782 722 q 792 690 794 704 l 651 32 q 639 9 649 18 q 614 0 629 0 l 550 0 q 528 9 536 0 q 524 32 521 18 l 536 93 q 474 37 506 61 q 401 -1 442 13 q 297 -14 360 -14 m 483 826 q 459 829 468 826 q 440 842 450 832 l 310 971 q 304 992 301 981 q 333 1018 310 1018 l 433 1018 q 462 1013 453 1018 q 479 992 471 1007 l 556 869 q 558 847 561 858 q 532 826 554 826 l 483 826 z "},"ű":{"ha":836,"x_min":54,"x_max":799,"o":"m 297 -14 q 142 26 199 -14 q 70 136 86 65 q 72 299 54 207 l 156 690 q 169 713 158 704 q 194 722 181 722 l 264 722 q 284 713 278 722 q 288 690 290 704 l 207 306 q 197 191 192 238 q 233 122 201 144 q 331 99 264 99 q 489 153 421 99 q 578 306 557 208 l 660 690 q 674 713 663 704 q 699 722 685 722 l 767 722 q 788 713 782 722 q 792 690 794 704 l 651 32 q 639 9 649 18 q 614 0 629 0 l 550 0 q 528 9 536 0 q 524 32 521 18 l 536 93 q 474 37 506 61 q 401 -1 442 13 q 297 -14 360 -14 m 565 826 q 546 843 546 826 q 549 852 547 847 q 554 861 551 857 l 640 992 q 662 1012 649 1006 q 697 1018 675 1018 l 775 1018 q 797 997 799 1018 q 788 975 797 985 l 649 846 q 601 826 626 826 l 565 826 m 338 826 q 318 843 318 826 q 321 852 318 847 q 326 861 324 857 l 413 992 q 434 1012 421 1006 q 469 1018 447 1018 l 547 1018 q 569 997 571 1018 q 560 975 569 985 l 419 846 q 374 826 397 826 l 338 826 z "},"ū":{"ha":836,"x_min":54,"x_max":794,"o":"m 297 -14 q 142 26 199 -14 q 70 136 86 65 q 72 299 54 207 l 156 690 q 169 713 158 704 q 194 722 181 722 l 264 722 q 284 713 278 722 q 288 690 290 704 l 207 306 q 197 191 192 238 q 233 122 201 144 q 331 99 264 99 q 489 153 421 99 q 578 306 557 208 l 660 690 q 674 713 663 704 q 699 722 685 722 l 767 722 q 788 713 782 722 q 792 690 794 704 l 651 32 q 639 9 649 18 q 614 0 629 0 l 550 0 q 528 9 536 0 q 524 32 521 18 l 536 93 q 474 37 506 61 q 401 -1 442 13 q 297 -14 360 -14 m 340 857 q 320 865 326 857 q 315 888 314 874 l 325 931 q 338 953 328 944 q 363 961 349 961 l 672 961 q 692 953 686 961 q 696 931 699 944 l 686 888 q 674 865 685 874 q 650 857 664 857 l 340 857 z "},"ų":{"ha":836,"x_min":74,"x_max":814,"o":"m 554 -306 q 470 -283 504 -306 q 424 -217 436 -260 q 424 -114 411 -174 q 453 -46 432 -76 q 501 7 475 -15 q 550 39 528 29 q 548 47 549 42 q 547 56 547 51 l 557 93 q 449 15 510 44 q 301 -14 389 -14 q 159 26 213 -14 q 90 136 106 65 q 92 299 74 207 l 175 690 q 189 713 178 704 q 214 722 200 722 l 283 722 q 304 713 297 722 q 308 690 311 704 l 226 306 q 363 99 182 99 q 513 153 449 99 q 597 306 576 208 l 679 690 q 693 713 682 704 q 718 722 704 722 l 788 722 q 808 713 801 722 q 811 690 814 704 l 672 32 q 662 14 669 22 q 639 0 654 6 l 632 -3 q 560 -45 586 -18 q 524 -114 533 -72 q 529 -185 514 -161 q 581 -210 544 -210 l 589 -210 q 610 -219 603 -210 q 614 -242 617 -228 l 607 -274 q 593 -297 604 -287 q 568 -306 582 -306 l 554 -306 z "},"ů":{"ha":836,"x_min":54,"x_max":794,"o":"m 297 -14 q 142 26 199 -14 q 70 136 86 65 q 72 299 54 207 l 156 690 q 169 713 158 704 q 194 722 181 722 l 264 722 q 284 713 278 722 q 288 690 290 704 l 207 306 q 197 191 192 238 q 233 122 201 144 q 331 99 264 99 q 489 153 421 99 q 578 306 557 208 l 660 690 q 674 713 663 704 q 699 722 685 722 l 767 722 q 788 713 782 722 q 792 690 794 704 l 651 32 q 639 9 649 18 q 614 0 629 0 l 550 0 q 528 9 536 0 q 524 32 521 18 l 536 93 q 474 37 506 61 q 401 -1 442 13 q 297 -14 360 -14 m 490 819 q 413 851 442 819 q 393 929 383 882 q 444 1008 406 976 q 529 1039 482 1039 q 608 1008 578 1039 q 626 929 638 976 q 577 849 617 879 q 490 819 538 819 m 497 888 q 533 899 518 888 q 551 929 547 911 q 548 959 556 947 q 522 971 540 971 q 487 959 501 971 q 468 929 472 947 q 472 899 464 911 q 497 888 481 888 z "},"ũ":{"ha":836,"x_min":54,"x_max":794,"o":"m 297 -14 q 142 26 199 -14 q 70 136 86 65 q 72 299 54 207 l 156 690 q 169 713 158 704 q 194 722 181 722 l 264 722 q 284 713 278 722 q 288 690 290 704 l 207 306 q 197 191 192 238 q 233 122 201 144 q 331 99 264 99 q 489 153 421 99 q 578 306 557 208 l 660 690 q 674 713 663 704 q 699 722 685 722 l 767 722 q 788 713 782 722 q 792 690 794 704 l 651 32 q 639 9 649 18 q 614 0 629 0 l 550 0 q 528 9 536 0 q 524 32 521 18 l 536 93 q 474 37 506 61 q 401 -1 442 13 q 297 -14 360 -14 m 569 819 q 517 831 536 819 q 481 855 497 843 q 444 867 465 867 q 417 857 428 867 q 396 837 406 847 q 371 826 386 826 l 326 826 q 312 833 317 826 q 308 849 307 840 q 322 891 311 869 q 351 931 333 913 q 393 961 369 950 q 444 972 417 972 q 499 960 479 972 q 535 937 519 949 q 571 925 550 925 q 599 935 589 925 q 617 956 608 946 q 642 967 626 967 l 686 967 q 702 960 697 967 q 706 943 707 953 q 690 901 701 924 q 662 860 679 879 q 621 831 644 842 q 569 819 597 819 z "},"v":{"ha":767,"x_min":99,"x_max":789,"o":"m 263 0 q 233 10 242 0 q 222 35 225 19 l 101 688 q 108 714 99 706 q 131 722 117 722 l 193 722 q 217 715 208 722 q 226 692 225 708 l 321 151 l 649 699 q 663 714 653 706 q 688 722 672 722 l 761 722 q 782 710 775 722 q 778 679 789 697 l 383 35 q 362 10 374 19 q 329 0 350 0 l 263 0 z "},"w":{"ha":1114,"x_min":104,"x_max":1126,"o":"m 204 0 q 178 9 186 0 q 167 35 169 18 l 106 688 q 113 712 104 701 q 140 722 122 722 l 197 722 q 219 716 213 722 q 228 699 226 710 l 274 175 l 546 693 q 561 713 551 703 q 589 722 571 722 l 640 722 q 665 713 658 722 q 672 693 671 703 l 729 175 l 996 699 q 1007 714 999 706 q 1031 722 1015 722 l 1100 722 q 1123 710 1119 722 q 1119 683 1126 699 l 786 35 q 765 9 776 18 q 735 0 754 0 l 678 0 q 650 9 660 0 q 638 35 640 18 l 578 532 l 315 35 q 293 9 306 18 q 261 0 281 0 l 204 0 z "},"ẃ":{"ha":1114,"x_min":104,"x_max":1126,"o":"m 204 0 q 178 9 186 0 q 167 35 169 18 l 106 688 q 113 712 104 701 q 140 722 122 722 l 197 722 q 219 716 213 722 q 228 699 226 710 l 274 175 l 546 693 q 561 713 551 703 q 589 722 571 722 l 640 722 q 665 713 658 722 q 672 693 671 703 l 729 175 l 996 699 q 1007 714 999 706 q 1031 722 1015 722 l 1100 722 q 1123 710 1119 722 q 1119 683 1126 699 l 786 35 q 765 9 776 18 q 735 0 754 0 l 678 0 q 650 9 660 0 q 638 35 640 18 l 578 532 l 315 35 q 293 9 306 18 q 261 0 281 0 l 204 0 m 578 826 q 561 849 556 826 q 572 867 564 858 l 703 992 q 730 1013 719 1007 q 760 1018 740 1018 l 856 1018 q 876 996 876 1018 q 865 974 875 981 l 675 842 q 651 829 661 832 q 626 826 642 826 l 578 826 z "},"ŵ":{"ha":1114,"x_min":104,"x_max":1126,"o":"m 204 0 q 178 9 186 0 q 167 35 169 18 l 106 688 q 113 712 104 701 q 140 722 122 722 l 197 722 q 219 716 213 722 q 228 699 226 710 l 274 175 l 546 693 q 561 713 551 703 q 589 722 571 722 l 640 722 q 665 713 658 722 q 672 693 671 703 l 729 175 l 996 699 q 1007 714 999 706 q 1031 722 1015 722 l 1100 722 q 1123 710 1119 722 q 1119 683 1126 699 l 786 35 q 765 9 776 18 q 735 0 754 0 l 678 0 q 650 9 660 0 q 638 35 640 18 l 578 532 l 315 35 q 293 9 306 18 q 261 0 281 0 l 204 0 m 431 826 q 415 842 414 826 q 428 863 415 853 l 590 997 q 619 1015 608 1013 q 640 1018 629 1018 l 682 1018 q 703 1015 694 1018 q 724 997 713 1013 l 829 864 q 833 843 836 854 q 813 826 831 826 l 774 826 q 758 829 765 826 q 744 836 751 832 l 650 915 l 521 836 q 506 829 513 832 q 489 826 499 826 l 431 826 z "},"ẅ":{"ha":1114,"x_min":104,"x_max":1126,"o":"m 204 0 q 178 9 186 0 q 167 35 169 18 l 106 688 q 113 712 104 701 q 140 722 122 722 l 197 722 q 219 716 213 722 q 228 699 226 710 l 274 175 l 546 693 q 561 713 551 703 q 589 722 571 722 l 640 722 q 665 713 658 722 q 672 693 671 703 l 729 175 l 996 699 q 1007 714 999 706 q 1031 722 1015 722 l 1100 722 q 1123 710 1119 722 q 1119 683 1126 699 l 786 35 q 765 9 776 18 q 735 0 754 0 l 678 0 q 650 9 660 0 q 638 35 640 18 l 578 532 l 315 35 q 293 9 306 18 q 261 0 281 0 l 204 0 m 714 863 q 694 871 700 863 q 689 893 688 879 l 706 968 q 719 991 708 982 q 743 1000 729 1000 l 818 1000 q 840 991 832 1000 q 844 968 847 982 l 826 893 q 813 871 824 879 q 789 863 803 863 l 714 863 m 479 863 q 459 871 465 863 q 454 893 453 879 l 471 968 q 484 991 474 982 q 508 1000 494 1000 l 583 1000 q 605 991 597 1000 q 610 968 613 982 l 592 893 q 578 871 589 879 q 554 863 568 863 l 479 863 z "},"ẁ":{"ha":1114,"x_min":104,"x_max":1126,"o":"m 204 0 q 178 9 186 0 q 167 35 169 18 l 106 688 q 113 712 104 701 q 140 722 122 722 l 197 722 q 219 716 213 722 q 228 699 226 710 l 274 175 l 546 693 q 561 713 551 703 q 589 722 571 722 l 640 722 q 665 713 658 722 q 672 693 671 703 l 729 175 l 996 699 q 1007 714 999 706 q 1031 722 1015 722 l 1100 722 q 1123 710 1119 722 q 1119 683 1126 699 l 786 35 q 765 9 776 18 q 735 0 754 0 l 678 0 q 650 9 660 0 q 638 35 640 18 l 578 532 l 315 35 q 293 9 306 18 q 261 0 281 0 l 204 0 m 622 826 q 598 829 607 826 q 579 842 589 832 l 449 971 q 443 992 440 981 q 472 1018 449 1018 l 572 1018 q 601 1013 592 1018 q 618 992 610 1007 l 694 869 q 697 847 700 858 q 671 826 693 826 l 622 826 z "},"x":{"ha":747,"x_min":-46,"x_max":771,"o":"m -12 0 q -39 17 -32 0 q -32 49 -46 35 l 283 372 l 117 678 q 117 707 110 692 q 142 722 124 722 l 210 722 q 231 715 224 722 q 243 700 239 707 l 379 454 l 622 700 q 639 715 629 707 q 669 722 649 722 l 738 722 q 763 706 754 724 q 756 674 771 689 l 446 354 l 613 44 q 615 15 621 31 q 588 0 608 0 l 519 0 q 496 7 504 0 q 483 21 488 14 l 347 268 l 104 21 q 89 8 99 15 q 58 0 79 0 l -12 0 z "},"y":{"ha":771,"x_min":56,"x_max":801,"o":"m 83 -264 q 61 -250 67 -264 q 68 -218 56 -236 l 239 49 l 103 685 q 107 710 100 699 q 135 722 114 722 l 196 722 q 218 716 211 722 q 226 699 225 710 l 333 192 l 658 699 q 674 715 664 708 q 699 722 683 722 l 771 722 q 792 711 783 722 q 790 682 801 700 l 194 -240 q 178 -257 188 -250 q 154 -264 169 -264 l 83 -264 z "},"ý":{"ha":771,"x_min":56,"x_max":801,"o":"m 83 -264 q 61 -250 67 -264 q 68 -218 56 -236 l 239 49 l 103 685 q 107 710 100 699 q 135 722 114 722 l 196 722 q 218 716 211 722 q 226 699 225 710 l 333 192 l 658 699 q 674 715 664 708 q 699 722 683 722 l 771 722 q 792 711 783 722 q 790 682 801 700 l 194 -240 q 178 -257 188 -250 q 154 -264 169 -264 l 83 -264 m 418 826 q 401 849 396 826 q 413 867 404 858 l 543 992 q 570 1013 560 1007 q 600 1018 581 1018 l 696 1018 q 717 996 717 1018 q 706 974 715 981 l 515 842 q 492 829 501 832 q 467 826 482 826 l 418 826 z "},"ŷ":{"ha":771,"x_min":56,"x_max":801,"o":"m 83 -264 q 61 -250 67 -264 q 68 -218 56 -236 l 239 49 l 103 685 q 107 710 100 699 q 135 722 114 722 l 196 722 q 218 716 211 722 q 226 699 225 710 l 333 192 l 658 699 q 674 715 664 708 q 699 722 683 722 l 771 722 q 792 711 783 722 q 790 682 801 700 l 194 -240 q 178 -257 188 -250 q 154 -264 169 -264 l 83 -264 m 269 826 q 254 842 253 826 q 267 863 254 853 l 429 997 q 458 1015 447 1013 q 479 1018 468 1018 l 521 1018 q 542 1015 533 1018 q 563 997 551 1013 l 668 864 q 672 843 675 854 q 651 826 669 826 l 613 826 q 597 829 604 826 q 583 836 590 832 l 489 915 l 360 836 q 344 829 351 832 q 328 826 338 826 l 269 826 z "},"ÿ":{"ha":771,"x_min":56,"x_max":801,"o":"m 83 -264 q 61 -250 67 -264 q 68 -218 56 -236 l 239 49 l 103 685 q 107 710 100 699 q 135 722 114 722 l 196 722 q 218 716 211 722 q 226 699 225 710 l 333 192 l 658 699 q 674 715 664 708 q 699 722 683 722 l 771 722 q 792 711 783 722 q 790 682 801 700 l 194 -240 q 178 -257 188 -250 q 154 -264 169 -264 l 83 -264 m 554 863 q 534 871 540 863 q 529 893 528 879 l 546 968 q 559 991 549 982 q 583 1000 569 1000 l 658 1000 q 680 991 672 1000 q 685 968 688 982 l 667 893 q 653 871 664 879 q 629 863 643 863 l 554 863 m 319 863 q 299 871 306 863 q 294 893 293 879 l 311 968 q 324 991 314 982 q 349 1000 335 1000 l 424 1000 q 445 991 438 1000 q 450 968 453 982 l 432 893 q 419 871 429 879 q 394 863 408 863 l 319 863 z "},"ỳ":{"ha":771,"x_min":56,"x_max":801,"o":"m 83 -264 q 61 -250 67 -264 q 68 -218 56 -236 l 239 49 l 103 685 q 107 710 100 699 q 135 722 114 722 l 196 722 q 218 716 211 722 q 226 699 225 710 l 333 192 l 658 699 q 674 715 664 708 q 699 722 683 722 l 771 722 q 792 711 783 722 q 790 682 801 700 l 194 -240 q 178 -257 188 -250 q 154 -264 169 -264 l 83 -264 m 461 826 q 437 829 446 826 q 418 842 428 832 l 288 971 q 282 992 279 981 q 311 1018 288 1018 l 411 1018 q 440 1013 431 1018 q 457 992 449 1007 l 533 869 q 536 847 539 858 q 510 826 532 826 l 461 826 z "},"z":{"ha":703,"x_min":-29,"x_max":688,"o":"m 0 0 q -22 9 -14 0 q -26 32 -29 18 l -15 81 q -9 99 -12 92 q 1 111 -6 106 l 499 613 l 143 613 q 122 621 129 613 q 117 644 114 629 l 128 690 q 141 713 131 704 q 167 722 151 722 l 661 722 q 681 713 675 722 q 685 690 688 704 l 675 639 q 658 610 672 622 l 164 110 l 558 110 q 579 101 572 110 q 583 78 586 93 l 574 32 q 560 9 571 18 q 536 0 550 0 l 0 0 z "},"ź":{"ha":703,"x_min":-29,"x_max":689,"o":"m 0 0 q -22 9 -14 0 q -26 32 -29 18 l -15 81 q -9 99 -12 92 q 1 111 -6 106 l 499 613 l 143 613 q 122 621 129 613 q 117 644 114 629 l 128 690 q 141 713 131 704 q 167 722 151 722 l 661 722 q 681 713 675 722 q 685 690 688 704 l 675 639 q 658 610 672 622 l 164 110 l 558 110 q 579 101 572 110 q 583 78 586 93 l 574 32 q 560 9 571 18 q 536 0 550 0 l 0 0 m 390 826 q 374 849 368 826 q 385 867 376 858 l 515 992 q 542 1013 532 1007 q 572 1018 553 1018 l 668 1018 q 689 996 689 1018 q 678 974 688 981 l 488 842 q 464 829 474 832 q 439 826 454 826 l 390 826 z "},"ž":{"ha":703,"x_min":-29,"x_max":689,"o":"m 0 0 q -22 9 -14 0 q -26 32 -29 18 l -15 81 q -9 99 -12 92 q 1 111 -6 106 l 499 613 l 143 613 q 122 621 129 613 q 117 644 114 629 l 128 690 q 141 713 131 704 q 167 722 151 722 l 661 722 q 681 713 675 722 q 685 690 688 704 l 675 639 q 658 610 672 622 l 164 110 l 558 110 q 579 101 572 110 q 583 78 586 93 l 574 32 q 560 9 571 18 q 536 0 550 0 l 0 0 m 421 826 q 400 830 410 826 q 379 847 390 833 l 275 981 q 268 997 268 990 q 276 1013 269 1007 q 292 1018 283 1018 l 329 1018 q 346 1015 339 1018 q 358 1008 353 1013 l 453 929 l 582 1008 q 598 1015 590 1013 q 614 1018 606 1018 l 672 1018 q 688 1001 689 1018 q 675 982 688 992 l 514 847 q 485 830 496 833 q 463 826 475 826 l 421 826 z "},"ż":{"ha":703,"x_min":-29,"x_max":688,"o":"m 0 0 q -22 9 -14 0 q -26 32 -29 18 l -15 81 q -9 99 -12 92 q 1 111 -6 106 l 499 613 l 143 613 q 122 621 129 613 q 117 644 114 629 l 128 690 q 141 713 131 704 q 167 722 151 722 l 661 722 q 681 713 675 722 q 685 690 688 704 l 675 639 q 658 610 672 622 l 164 110 l 558 110 q 579 101 572 110 q 583 78 586 93 l 574 32 q 560 9 571 18 q 536 0 550 0 l 0 0 m 397 851 q 376 860 383 851 q 372 882 369 868 l 392 971 q 405 994 394 985 q 429 1003 415 1003 l 517 1003 q 538 994 531 1003 q 543 971 546 985 l 524 882 q 510 860 521 868 q 486 851 500 851 l 397 851 z "},"ﬁ":{"ha":761,"x_min":69,"x_max":785,"o":"m 118 0 q 97 9 104 0 q 92 32 89 18 l 215 611 l 97 611 q 76 620 83 611 q 72 643 69 629 l 82 690 q 96 713 85 704 q 121 722 107 722 l 239 722 l 254 792 q 305 916 269 863 q 397 999 340 969 q 531 1028 453 1028 l 757 1028 q 778 1019 771 1028 q 782 996 785 1010 l 771 949 q 757 926 768 935 q 732 917 746 917 l 529 917 q 430 883 465 917 q 381 785 394 849 l 368 722 l 692 722 q 713 713 706 722 q 717 690 719 704 l 576 32 q 563 9 574 18 q 539 0 553 0 l 474 0 q 452 9 460 0 q 447 32 444 18 l 571 611 l 344 611 l 221 32 q 208 9 218 18 q 183 0 197 0 l 118 0 z "},"ﬂ":{"ha":832,"x_min":69,"x_max":854,"o":"m 118 0 q 97 9 104 0 q 92 32 89 18 l 215 611 l 97 611 q 76 620 83 611 q 72 643 69 629 l 82 690 q 96 713 85 704 q 121 722 107 722 l 239 722 l 254 792 q 305 916 269 863 q 397 999 340 969 q 531 1028 453 1028 l 619 1028 q 641 1019 635 1028 q 644 996 647 1010 l 635 949 q 621 926 632 935 q 596 917 610 917 l 529 917 q 430 883 465 917 q 381 785 394 849 l 368 722 l 664 722 l 722 996 q 735 1019 725 1010 q 760 1028 746 1028 l 825 1028 q 847 1019 839 1028 q 851 996 854 1010 l 646 32 q 633 9 643 18 q 608 0 622 0 l 543 0 q 522 9 529 0 q 518 32 515 18 l 640 611 l 344 611 l 221 32 q 208 9 218 18 q 183 0 197 0 l 118 0 z "},"ª":{"ha":501,"x_min":122,"x_max":514,"o":"m 250 596 q 156 627 190 596 q 129 703 122 658 q 187 790 136 756 q 317 835 238 824 l 401 847 q 405 865 403 854 q 398 885 407 876 q 360 894 389 894 q 311 888 328 894 q 283 875 294 882 q 258 868 272 868 l 215 868 q 192 890 188 868 q 215 926 197 906 q 270 963 233 947 q 363 979 307 979 q 478 938 443 979 q 499 829 514 897 l 456 632 q 444 610 454 618 q 422 603 435 603 l 381 603 q 361 610 367 603 q 357 632 356 618 l 360 643 q 315 609 343 622 q 250 596 286 596 m 263 676 q 346 705 314 676 q 385 772 378 733 l 321 763 q 253 740 275 756 q 229 707 232 725 q 235 685 228 694 q 263 676 243 676 z "}}}
